<?xml version="1.0" encoding="utf-8"?>
<!-- Generator: Adobe Illustrator 16.0.4, SVG Export Plug-In . SVG Version: 6.00 Build 0)  -->
<!DOCTYPE svg PUBLIC "-//W3C//DTD SVG 1.1//EN" "http://www.w3.org/Graphics/SVG/1.1/DTD/svg11.dtd">
<svg version="1.1" id="Layer_1" xmlns="http://www.w3.org/2000/svg" xmlns:xlink="http://www.w3.org/1999/xlink" x="0px" y="0px"
	 width="368.02px" height="657.422px" viewBox="0 0 368.02 657.422" enable-background="new 0 0 368.02 657.422"
	 xml:space="preserve">
<g>
	<path d="M325.074,161.989c-1.195,0.133-2.392,5.05-1.993,9.036c0,0,0,8.504,3.322,8.638c3.322,0.133,2.392-7.176,1.86-10.498
		C327.732,165.843,326.271,161.856,325.074,161.989z"/>
	<path d="M322.948,143.652c-1.595,0.266-1.195,5.448-1.062,8.239c0,0,0.398,7.707,3.056,7.175c2.658-0.531,1.749-6.202,1.462-8.504
		C326.005,147.373,324.543,143.386,322.948,143.652z"/>
	<path d="M322.019,127.307c-0.931,0-1.993,1.595-1.86,6.378s1.461,6.246,2.79,6.246s1.728-4.651,1.329-6.91
		C323.879,130.762,322.948,127.307,322.019,127.307z"/>
	<path d="M21.438,82.127c0.621-0.088,1.417-2.304,0.974-3.455c0,0-1.594,0.267-1.682,1.241
		C20.641,80.887,20.817,82.215,21.438,82.127z"/>
	<path d="M150.801,283.695c-9.223-0.427-23.74,0.085-23.74,0.085s-14.518,0-14.858,6.405c-0.32,5.974,8.471,6.643,11.87,7.002
		c4.011,0.427,23.995-0.001,29.119-0.769c5.125-0.768,7.6-4.099,7.43-6.063C160.452,288.392,157.035,283.984,150.801,283.695z
		 M130.306,295.394c-0.171,0.77-1.366,0.427-2.733,0.257c-1.367-0.17-3.244-1.879-3.159-5.808s4.697-4.44,4.697-4.44
		c1.024,0,1.196,0.427,1.196,1.196c0,0.769-1.196,1.024-1.281,2.989c-0.086,1.965,0.255,3.501,0.854,4.014
		C130.477,294.113,130.477,294.625,130.306,295.394z M135.941,295.223c-0.598-0.341-0.085-4.953-0.17-6.319
		c-0.085-1.366-1.025-1.452-1.537-1.708c-0.513-0.256-0.517-1.601-0.171-1.708c1.11-0.342,1.025-0.171,1.793,0
		c0.769,0.171,1.879,1.964,2.049,5.209C138.077,293.943,136.539,295.565,135.941,295.223z M143.457,295.223
		c-1.624,0-4.186,0.342-4.356-0.427c-0.17-0.77,1.026-2.647,1.196-4.099c0.17-1.452,0.341-2.647-0.769-3.928
		c-0.683-0.788,0.17-1.453,0.427-1.538c0,0,5.466-0.342,8.966,0c3.501,0.341,9.821,1.538,9.736,5.807
		C158.573,295.309,145.079,295.223,143.457,295.223z"/>
	<path d="M367.464,22.596c-0.886-2.834-3.365-11.162-4.606-13.111c-1.24-1.949-4.604-3.544-7.264-1.418c0,0,0.265-3.721-1.861-5.67
		c-1.847-1.693-3.809-3.721-5.935-1.24c0,0-6.024,9.39-5.315,16.832c0,0,1.417,11.162,1.24,15.237s-13.996,30.475-13.996,30.475
		l-11.34,21.084c0,0-6.2-1.062-10.275-0.177c-4.076,0.885-12.226,4.429-12.226,4.429s-7.796-7.441-13.643-9.036
		c-5.848-1.595-13.466,0.532-13.82,3.543c-0.354,3.012,0.887,4.076,3.898,5.139s6.732,2.304,9.39,5.315
		c2.658,3.012,6.732,6.378,9.567,6.91c2.836,0.531,9.744-0.532,13.289-1.063c3.544-0.532,8.15-0.886,8.15-0.886
		s-2.126,6.024-2.304,10.631c-0.178,4.606-0.532,9.39-0.532,9.39s-5.847,3.367-7.973,5.315c0.355,2.658,3.75,4.434,5.847,4.784
		c2.126,0.354,4.962-0.177,6.024-0.354c1.063,6.733,1.949,62.897,1.949,62.897s-1.24,1.949-1.771,2.481
		c-0.531,0.531-1.062,1.24-1.062,1.24s-1.95-0.532-2.481,0.531c-0.532,1.063-0.887,2.48-2.304,5.138s-18.78,26.223-21.084,29.057
		c-2.304,2.835-10.631,16.123-10.631,16.123l-15.592-37.03c0,0-1.062-2.126-2.657-2.303c-1.595-0.177-18.958,1.24-18.958,1.24
		s-4.074,18.072-4.252,20.198s-0.001,3.544,0.708,7.087c0.709,3.543,13.112,35.435,13.112,35.435l-24.629,0.354
		c0,0,6.378-21.083,5.139-30.474c-1.24-9.391-7.618-22.856-8.327-26.045c-0.709-3.189-0.533-5.493,0.886-6.91
		c1.418-1.417,1.949-2.658,1.949-2.658s4.253-0.354,7.619-6.023c3.365-5.67,3.544-12.402,2.657-14.883l-24.806-35.967
		c0,0-8.149-7.086-15.59-5.669c-7.441,1.417-8.328,2.658-8.328,2.658s-1.95-1.595-2.658-1.241s-1.374,3.101-2.437,3.278
		c-1.063,0.177,0.311-5.227,0.311-5.227l1.595-3.189c0,0,20.199,0,22.679,0c2.48,0,7.266,0,8.505-0.886
		c1.239-0.886,4.961-9.036,5.847-12.225c0.886-3.189,1.595-7.796-1.24-8.327c-2.835-0.532-30.829,0.354-30.829,0.354
		s-4.563-0.258-4.802,3.208c-0.171,2.481-0.689,13.447-2.461,13.447s-17.187,0-17.187,0s-1.771-0.176-1.949-2.48
		c-0.177-2.304,0-8.328,0-8.328s-0.885-4.43-4.961-4.784c-4.076-0.354-23.743,0.354-23.743,0.354s-5.315-0.178-5.315,5.492
		s0.71,11.162,0.71,11.162s0.708,4.607,3.721,4.961c3.01,0.354,24.095-0.178,24.095-0.178s0.709,1.418,1.241,2.835
		c0.531,1.417,2.658,5.847,2.658,5.847s-7.088-7.441-18.781-6.91c-11.694,0.531-21.793,9.744-22.679,16.654
		c-0.885,6.91,0.001,10.808,2.305,13.82c2.302,3.012,4.96,5.492,4.96,5.492s-6.556,7.973-8.15,10.631
		c-1.595,2.657-3.012,7.264,0.532,7.264c3.543,0,18.072,0.177,18.072,0.177l1.595-0.532l0.709-0.177c0,0,3.189,5.847,4.784,8.327
		c1.595,2.48,4.784,6.378,4.784,6.378s-1.239,3.012-0.355,6.378c0.868,3.295,8.15,15.592,8.15,15.592h-6.201
		c0,0-3.544,0.532-4.076,3.721c-0.532,3.189-1.416,10.099-0.708,11.694s4.429,3.897,4.429,3.897l0.179,6.556
		c0,0,1.948,0.354,3.189,1.063c1.24,0.708,4.96,5.315,4.96,5.315l3.367-0.178c0,0,4.607,3.721,4.252,4.43
		s-28.171,0.178-36.498,0.532c-8.328,0.354-15.238,0.885-15.238,0.885s-0.354-0.532-1.063-1.949
		c-0.709-1.417-31.538-43.409-33.132-45.712c-1.595-2.303-12.224-19.312-12.579-20.198c-0.355-0.885-1.063-1.771-1.063-1.771
		s-0.176-7.796-3.189-11.517c-2.288-2.826-6.024-3.366-6.024-3.366s-3.321-17.278-5.138-26.753
		c-2.481-12.934-3.898-29.234-3.898-29.234s5.392-4.013,4.961-8.859c-0.709-7.973-8.15-7.441-8.15-7.441l0.354-2.126l22.856-0.532
		c0,0,6.202,0,6.378-3.543c0.178-3.543-3.897-7.441-7.973-8.504c-4.075-1.063-14.528-0.886-14.528-0.886l-6.556-4.784
		c0,0-0.354-1.417,0.178-1.949s1.771-3.001,1.771-8.504c0-6.556-4.252-9.568-4.252-9.568s1.063-3.543,1.063-4.96
		s0.178-7.264,0.71-8.15c0.532-0.886,1.949-1.595,3.189-2.835c1.24-1.24,1.771-3.897,1.063-6.024
		c-0.71-2.126-3.189-4.252-3.189-4.252s1.24-3.013,1.416-3.898c0.178-0.885,0.532-2.126,1.241-2.126s2.126-1.417,2.48-4.606
		c0.355-3.189-0.885-5.315-0.885-5.315s0.354-3.721,0.354-4.43c0-0.708-0.354-8.682-1.063-10.099
		c-0.708-1.417-1.948-2.126-1.948-2.126s-2.835,2.304-3.721,4.43c-0.886,2.126-2.835,6.023-3.367,7.264
		c-0.532,1.241-2.658,3.366-3.721,3.721s-2.48,1.949-2.658,4.252c-0.177,2.304,0.177,3.721,0.531,5.315
		c0.355,1.595-0.531,6.556-0.531,6.556s-0.708,2.302-1.24,2.48c-0.531,0.178-2.658,1.95-2.658,2.835
		c0,0.886-0.531,4.784-0.355,5.315c0.178,0.532,1.063,0.532,1.063,2.303s-1.416,1.594-1.239,2.834c0.176,1.241,0,3.366-0.887,3.721
		c-0.885,0.354-2.126-0.886-2.126-2.126s-2.126-6.555-3.721-9.39c-1.595-2.835-2.126-4.43-2.126-4.43s-0.885-4.784-1.417-6.555
		c-0.531-1.772-1.417-5.67-1.417-5.67s2.658-3.72,3.012-4.606c0.354-0.886,2.304-2.48,2.304-5.138s-0.709-9.922-0.709-9.922h-6.732
		L1.949,29.86c0,0-1.949,3.722-1.949,5.67c0,1.949,0.708,3.721,0.708,3.721s0.355,1.063,0.532,2.303
		c0.178,1.24,0.887,7.796,0.887,10.099s1.239,7.087,1.771,9.036c0.531,1.948,3.544,7.795,4.784,9.745
		c1.242,1.949,5.847,7.618,5.847,7.618s0.355,4.607,0.355,7.796c0,3.189,2.48,8.327,3.543,10.099s6.732,6.378,6.732,6.378
		s1.242,1.772,0.886,4.075c-0.355,2.303-1.239,5.315-1.239,9.036s0.353,7.618,0.353,7.618s-2.303,4.961-2.834,6.91
		c-0.531,1.949-1.949,4.429-0.708,6.91c1.539,3.077,7.263,1.772,7.263,1.772s3.004,22.583,4.252,31.005
		c1.418,9.568,5.139,22.679,5.139,22.679s-1.063,5.492-0.178,9.921c0.886,4.43,3.189,8.682,3.189,8.682s-0.596,4.34,0.532,8.504
		c1.866,6.89,14.352,30.12,25.514,43.585c0,0-2.924,4.252-3.368,7.973c-0.251,2.118,0,9.035,0.177,9.921
		c0.178,0.886,1.063,1.949,2.126,3.012c1.063,1.063,25.691,19.49,25.691,19.49s3.366,1.593,5.669,0.885
		c2.304-0.708,3.898-1.949,3.898-1.949s4.252,3.721,6.023,4.43c1.772,0.708,5.847,0.176,8.504,0.354
		c2.658,0.177,16.301,0.354,16.301,0.354s1.417,4.252,2.834,7.441c1.418,3.189,2.126,5.847,4.431,6.202
		c2.303,0.353,5.492,0.532,5.492,0.532s1.595,2.834,1.949,4.784c-1.417,0.884-6.732,3.542-7.441,10.983
		c-0.457,4.792,0.466,13.867,4.784,17.717c6.556,5.847,14.174,3.721,14.174,3.721s5.14,11.518,7.974,16.833
		c2.834,5.315,4.251,8.328,4.429,10.277c0.177,1.947,2.48,4.607,4.784,4.784c2.304,0.176,6.387,0.853,9.391,1.062
		c7.618,0.532,11.516-1.418,11.516-1.418s11.34-0.531,14.352,0s4.96,2.657,6.201,4.076c1.24,1.416,3.19,2.302,3.013,3.896
		c-0.178,1.596-1.595,5.314-1.772,6.201s-1.949,3.367-2.481,4.43c-0.531,1.064-12.932,25.869-16.476,36.854
		c-3.545,10.984-5.493,18.424-6.025,20.906c-0.531,2.48,0,7.795,0,10.277c-0.885,4.072-3.513,11.537-3.898,12.756
		c-1.063,3.365-2.835,15.236-2.835,15.236s-6.555,2.303-11.338,5.846c-4.784,3.545-7.087,8.152-7.087,8.152l-15.592-0.531
		c0,0-3.721-8.15-10.631-8.328c-6.91-0.176-45.001,1.24-45.001,1.24s-11.341,8.33-13.821,12.402
		c-2.48,4.076-5.493,7.441-7.087,9.393c-1.595,1.947-6.201,7.971-7.618,10.451c-1.418,2.48-7.441,12.049-8.504,15.414
		c-1.063,3.367-5.315,8.152-6.378,10.455c-1.063,2.303-3.898,6.377-4.784,8.148c-0.887,1.773-5.315,10.631-6.024,11.873
		c-0.709,1.238-3.898,5.844-4.43,6.73c-0.531,0.887-2.835,5.316-3.189,6.91s-2.834,6.557-4.075,8.152
		c-1.241,1.594-4.784,7.793-5.315,9.035c-0.532,1.24-3.722,8.504-4.43,10.275s-2.658,6.555-2.126,10.807
		c0.532,4.254,2.658,6.203,4.43,8.152c1.772,1.947,7.441,6.199,7.441,6.199s59.53,0.18,63.782,0.18
		c4.252,0,35.26,0.531,39.688,0.531s71.581,0.887,74.06,0.887c2.48,0,81.856-0.533,84.159-0.533s37.207-0.354,37.207-0.354
		s5.138,0.707,10.453-4.252c5.315-4.963,6.201-12.936,5.138-15.947c-1.062-3.012-7.795-23.211-9.035-26.398
		c-1.241-3.189-13.466-40.928-14.529-43.23c-1.063-2.305-2.48-8.861-3.012-10.455s-5.492-13.111-6.378-15.238
		c-0.887-2.125-3.899-13.287-4.076-14.352c-0.177-1.062-3.721-9.92-4.252-11.338c-0.532-1.418-3.544-8.328-10.631-9.391
		c-7.086-1.062-20.551-0.354-22.501-0.354c-1.949,0-26.223-0.707-28.349-0.887c-2.126-0.176-3.012-0.887-3.012-0.887
		s4.074-14.172,6.023-19.311c1.95-5.137,3.721-9.389,3.721-10.453c0-1.062,1.418-3.367,1.418-3.367s2.393-1.598,3.633-3.545
		c1.24-1.949,3.631-7.086,3.985-8.857c0.355-1.77-0.177-3.543-0.886-4.074c-0.709-0.533-1.595-1.064-1.595-1.064l-0.354-1.594
		c0,0,2.657-0.887,3.721-1.24c1.063-0.355,3.543-3.01,3.543-4.961c0-1.949,0.709-4.785,1.063-5.67
		c0.354-0.887,1.417-4.252,1.948-5.139c0.531-0.885,1.773-5.846,1.418-7.617c-0.354-1.773-0.887-1.949-1.771-1.949
		c-0.886,0-1.772-0.355-1.772-0.355l1.063-1.596c0,0,2.018-4.391,2.657-5.668c0.709-1.418,2.064-2.969,1.772-5.314
		c-0.532-4.252-3.721-6.023-4.253-6.203c0,0,1.949-3.188,1.417-4.959c-0.531-1.773-1.948-3.189-1.948-3.189s2.304-3.192,1.772-5.67
		c-0.532-2.481-1.772-3.721-1.772-3.721s-0.709-0.531-0.178-0.887c0.532-0.353,1.771-3.542,1.063-5.315
		c-0.708-1.771-2.658-3.189-2.658-3.189s1.064-3.188,0.355-4.073c-0.709-0.887-2.481-1.949-2.481-1.949s0.533-2.658-1.239-4.076
		c-1.772-1.416-3.544-2.303-3.544-2.303s-0.532-1.947,0.709-2.657c1.24-0.708,8.15-1.063,9.036-0.887
		c0.885,0.179,10.63,0.179,10.63,0.179s3.72-0.887,5.67-3.899c1.949-3.011,2.657-10.1,2.657-10.1s12.581,0.532,14.353-0.708
		s6.909-10.986,8.149-13.112s2.127-5.492,1.772-7.973c-0.355-2.479-5.671-14.704-6.024-15.413c-0.354-0.709-3.189-6.201-3.189-6.201
		s21.615-12.58,24.805-14.175c3.188-1.594,6.555-3.366,7.441-8.149s0.531-9.745-1.063-12.048c-1.595-2.303-4.075-4.429-6.91-3.898
		c-2.834,0.532-6.378,1.772-7.973,2.126s-17.363,1.772-17.363,1.772s2.481-6.023,4.076-7.795c1.595-1.772,6.202-9.922,7.973-13.289
		c1.771-3.367,6.732-13.288,8.149-15.769c1.417-2.48,6.379-10.63,8.505-13.819c2.126-3.189,6.379-10.454,8.15-12.935
		c1.771-2.48,3.543-4.429,3.543-6.732c0-2.303,0.346-13.247,0-15.237c-0.708-4.075-3.188-5.315-3.188-5.315
		s-2.836-24.982-3.189-29.234c-0.354-4.252-6.556-27.285-6.556-27.285s4.253-1.418,5.139-2.304c0.886-0.885,0.886-4.075,0.886-6.201
		s-0.886-3.367-1.595-2.835c-0.709,0.531-4.253,1.594-4.253,1.594s0.71-11.516,0.355-12.934c-0.355-1.417-1.063-2.658-1.063-2.658
		s7.974-10.1,9.391-12.048c1.417-1.948,2.835-5.847,3.366-7.441c0.531-1.594,0.886-3.897,0.886-3.897s15.945-13.997,18.958-16.832
		s5.492-8.859,6.556-15.061c1.062-6.201,2.481-12.401,2.835-13.642S368.35,25.431,367.464,22.596z M280.559,84.519
		c0,0-3.056-0.797-5.979,0c-2.239,0.61-3.455,0.664-3.854-0.266c-0.398-0.931,1.196-2.791,4.784-2.924
		c3.587-0.133,7.175,1.196,9.302,2.392c2.126,1.196,6.112,3.588,5.581,4.385c-0.532,0.797-1.329,1.063-2.924,0
		S282.685,84.917,280.559,84.519z M295.043,95.548c-0.167,1.058-1.993,3.322-4.119,2.923c-1.742-0.327-2.392-2.658-2.126-3.721
		s1.195-4.518,3.588-4.252C293.844,90.661,295.441,93.023,295.043,95.548z M358.029,9.174c1.462-0.266,2.565,0.009,3.588,2.259
		c1.329,2.923,3.721,11.295,3.721,11.295s-1.728-0.797-3.322-0.532c-2.228,0.372-4.119,3.189-4.119,3.189s-1.728-7.309-2.259-10.896
		S358.029,9.174,358.029,9.174z M349.126,6.251c0.931-0.797,0.532,11.694,0.532,11.694l-3.854,7.84c0,0-0.267-7.042-0.267-9.833
		S349.126,6.251,349.126,6.251z M344.476,39.472c0.664,0.266,0.531,7.309,0.266,7.973c-0.266,0.664-3.588,6.245-4.784,8.105
		c-1.195,1.861-5.315,6.512-5.315,6.512s0.798-0.93-1.195,0.93c-1.107,1.034-1.196,0-1.196,0L344.476,39.472z M310.059,92.226
		c-1.993,0.133-7.309,1.993-8.903,1.993c-1.594,0-2.657-0.531-2.657-2.259s2.392-2.259,2.392-2.259
		c0.665-0.266,5.448-2.259,8.903-2.657c3.455-0.399,7.309,0,6.777,0.797c-0.532,0.797-0.665,3.322-1.196,3.721
		C314.843,91.96,312.052,92.093,310.059,92.226z M313.248,107.641c0.797-4.917,2.657-9.701,5.581-10.896s5.714,3.056,6.245,5.714
		c0.532,2.658-0.266,12.225-0.266,12.225l-2.126,0.532c0,0,0.325-4.921,0.133-8.771c-0.133-2.657-2.063-4.338-4.252-3.721
		c-3.913,1.104-4.519,14.352-4.519,14.352l-1.993,0.93C312.052,118.005,312.45,112.557,313.248,107.641z M294.645,225.242
		l3.588,3.854c0,0-15.148,29.766-16.61,32.291s-2.941,6.197,0.93,9.036c3.987,2.923,12.358,2.392,12.358,2.392
		s-14.484,20.331-15.813,22.723c-1.328,2.392-4.783,9.302-8.637,9.7c-4.788,0.495-8.638-2.791-12.358-8.903
		c-3.345-5.496,0.531-14.351,4.119-22.191C265.809,266.302,294.645,225.242,294.645,225.242z M150.234,188.118v-1.81l3.982-0.241
		v-1.328l-4.103-0.241l0.241-1.448l32.099-1.086c0,0-0.845,1.448-0.965,2.172c-0.121,0.724,0,3.5,0,3.861s-4.706,0.362-7.603,0.121
		C170.989,187.876,150.234,188.118,150.234,188.118z M168.938,210.625l-1.595,9.435c-1.993-4.917-8.637-11.428-9.7-12.092
		s-4.12-0.797-4.12-0.797l-4.385-8.77L168.938,210.625z M172.667,157.55c2.067,0.276,3.791-0.207,3.791-0.207
		s-0.477,6.905,0.413,10.887c1.122,5.021,7.649,10.543,7.649,10.75s-1.517,1.86-2.068,1.86s-26.253,0.62-28.872,0.414
		s-0.551-2.48-0.068-3.446c0.482-0.965,2.404-5.321,2.404-5.321c0.532-1.196,1.993-2.392,2.392-5.98
		c0.297-2.674,6.112-8.903,6.112-8.903S170.6,157.275,172.667,157.55z M168.739,149.626c0.621-0.068,2.55-0.482,2.963-0.414
		c0.413,0.069,0.138,3.721,0.138,5.168c0,1.394-1.172,0.965-1.999,0.896s-0.964-0.345-1.034-1.309
		c-0.069-0.964-0.551-1.516-0.758-2.343C167.843,150.797,168.522,149.65,168.739,149.626z M187.521,184.136
		c0.965,1.086,5.913,0.603,8.326,0.483c2.412-0.121,7.844-1.448,7.844-1.448l0.241,3.861c0,0-10.86,0.482-13.636,0.362
		c-2.776-0.121-7.24,0.12-7.36-0.362c-0.121-0.483-0.121-2.293,0.845-3.137c0.966-0.845,2.775-3.862,2.775-3.862
		C187.762,180.153,186.556,183.05,187.521,184.136z M214.068,184.256l-1.931,1.568l-7.965-10.498l1.932-1.69L214.068,184.256z
		 M207.069,172.068l1.328-1.448l7.48,10.74l-0.965,1.327L207.069,172.068z M211.414,187.032l-0.845,0.603l-8.326-10.74l0.844-0.724
		L211.414,187.032z M230.199,294.421c0,0-11.277,0.517-15.458-0.675c-3.944-1.126-5.932-4.481-5.152-5.583
		c0.78-1.102,4.341-1.81,6.257-2.085c1.12-0.162,4.744-0.528,4.744-0.528h10.878c0,0-1.652,2.709-1.698,4.637
		S230.199,294.421,230.199,294.421z M206.809,284.507c-1.461-0.133-3.721-6.91-5.447-12.358c-1.728-5.448-8.239-22.324-8.904-24.583
		c-0.664-2.259,0.797-5.05,0.797-5.05c0.532-0.664,1.595-2.791,3.455-2.791c2.794,0,5.847,11.561,6.777,14.352
		c0.93,2.791,5.448,14.218,6.511,19.799C211.062,279.458,208.271,284.64,206.809,284.507z M199.234,307.629
		c0,0,5.448,3.854,7.441,4.784s11.429,6.511,11.429,6.511s-0.267,1.063-0.399,1.461c-0.133,0.399-3.454,3.057-3.454,3.057
		s-2.393-1.728-4.386-2.923c-1.993-1.196-8.903-5.581-10.498-6.777c-1.594-1.196-3.721-0.531-3.721-0.531l2.658-5.714
		L199.234,307.629z M190.332,249.692h-16.079c0,0,0-4.917,0.133-6.378c0.133-1.461,1.329-3.189,2.658-3.322
		c1.329-0.133,15.946-0.797,15.946-0.797s-3.056,2.923-3.189,5.581C189.667,247.433,190.332,249.692,190.332,249.692z
		 M193.91,262.767c1.706,0,2.047,1.934,1.706,2.274c-0.342,0.341-10.235,0.91-11.486,0.91s-3.298,0.455-3.866,0.91
		s-3.525,4.549-3.525,4.549s-2.389-4.549-2.957-5.231c-0.567-0.683-0.114-2.274-0.114-2.274
		C175.942,263.677,192.205,262.767,193.91,262.767z M209.334,262.05c-1.462,0-3.057-6.378-3.721-8.505
		c-0.665-2.126-1.86-6.245-3.322-10.365c-1.462-4.119-3.322-5.714-5.183-6.113c-1.86-0.398-8.504,0.399-9.435,0.266
		s0.665-2.658,0.797-3.987c0.133-1.329,0.133-4.252,1.728-5.714c1.595-1.461,3.986-3.854,5.448-3.854
		c1.462,0,3.322-0.266,6.645-2.126s6.512,8.77,8.638,17.939S210.796,262.05,209.334,262.05z M203.222,199.728
		c0.93-0.797,2.524-1.329,3.056-0.93c0.531,0.399,0,1.595,0,1.595s-10.099,12.225-10.631,12.624c-0.531,0.398-1.86,0.531-2.392,0
		c-0.531-0.532-0.133-2.259-0.133-2.259L203.222,199.728z M196.692,188.721l7.603-0.121l0.12,1.689l-7.603,0.362L196.692,188.721z
		 M205.742,185.705l0.241-1.931l3.62,3.861l-1.327,0.965L205.742,185.705z M187.01,202.519c0.133,2.525-0.399,3.455-1.595,3.322
		s-7.043-0.93-7.043-0.93s0.266-4.784,0.532-5.581c0.266-0.797,3.189-1.462,6.112-1.196
		C187.94,198.399,186.905,200.524,187.01,202.519z M172.658,214.345c0.665-0.93,2.521-4.053,4.385-3.986
		c3.721,0.133,4.651-0.532,5.315-1.595c2.657-0.398,6.644,1.86,6.644,1.86s-1.329,0.797-4.917,4.119
		c-3.588,3.322-9.833,13.554-9.833,13.554c-0.532,0.665-0.532,0.532-1.196,0.133c-0.664-0.398-0.266-7.441-0.398-8.903
		c-0.133-1.462-1.329-1.329-1.728-2.392C170.532,216.073,171.994,215.275,172.658,214.345z M171.861,236.271l16.079-21.527
		c0,0,0.93-0.797,2.524-0.266c1.595,0.532,4.651,2.791,4.12,3.721c-0.532,0.93-3.588,2.923-3.987,3.721
		c-0.398,0.797-12.491,15.415-13.155,15.68s-2.923,0.665-4.119,0.133C172.704,237.458,171.595,237.201,171.861,236.271z
		 M182.538,267.999c1.593-0.682,13.76-0.796,13.76-0.796l0.91,2.047c0,0-4.094-0.114-6.142,0c-2.047,0.114-6.254-0.228-7.505,0.796
		s-6.823,13.191-7.278,14.329c-0.455,1.137,0.341,2.274,0.341,2.274h11.828c0,0-1.82,3.525-2.389,3.98
		c-0.569,0.455-11.258,0.569-13.419,0.569c-2.06,0-2.843-0.228-2.729-2.389c0.114-2.16,1.478-3.98,2.729-7.165
		S180.946,268.681,182.538,267.999z M180.498,293.41c1.196-0.133,4.784-0.266,4.784-0.266s5.182,14.75,6.378,17.009
		c0.634,1.198,0.133,1.86-0.532,1.86c0,0-18.072,0.133-19.534,0.133c-1.462,0-4.252,1.063-5.448,1.196s-1.196-1.728-0.665-3.986
		c0.532-2.259,2.259-7.043,2.791-9.435c0.532-2.392,1.86-6.378,1.86-6.378S179.302,293.543,180.498,293.41z M192.059,314.671
		l-2.126,5.448c0,0-13.82-0.133-17.142,0.399c-3.322,0.531-6.378,1.727-7.042,1.594c-0.665-0.133-0.665-2.259-1.063-2.923
		c-0.398-0.665-1.461-3.986-1.461-3.986L192.059,314.671z M189.136,297.264c-0.133-0.665-0.797-4.12-0.797-5.315
		c0-1.196,2.392-5.448,2.392-5.448l0.797-0.266c0,0,0.399,2.657,0.93,7.042c0.532,4.385,4.917,11.295,4.917,11.295l-3.189,7.575
		c0,0-0.398-1.063-0.93-2.525C192.724,308.16,189.269,297.928,189.136,297.264z M194.982,315.336c0,0,1.86-0.532,3.986,0.797
		c2.126,1.329,14.617,8.903,14.617,8.903l0.665,1.063l-2.791,4.518l-18.604-10.498L194.982,315.336z M215.446,327.163
		c4.917,8.903,18.736,35.745,24.317,52.355l-1.86,4.784c0,0-9.036-22.059-12.757-29.766c-3.721-7.708-12.092-22.989-12.092-22.989
		L215.446,327.163z M239.232,372.608c-0.266-1.062-5.847-13.421-8.505-18.869c-2.657-5.448-14.085-28.702-14.085-28.702l2.657-3.057
		c0,0,1.993,3.455,2.393,4.651c0.398,1.196,8.504,22.458,9.7,24.716c1.195,2.259,12.225,23.521,12.225,23.521l-2.524,2.79
		C241.093,377.658,239.498,373.671,239.232,372.608z M241.89,306.699c1.994-0.133,4.055,0.432,7.043,0.93
		c1.595,0.266,10.365-0.266,12.226-0.133c1.86,0.133,3.854,0.133,3.854,0.133l5.183,11.827c0,0-8.239,0.531-12.491,0.797
		c-4.252,0.266-10.099,1.329-10.099,1.329l-6.91-12.491C240.694,309.09,239.896,306.832,241.89,306.699z M258.323,210.107
		c0-0.333,1.22,2.441,2.107,5.437c0.888,2.995,13.757,34.725,13.757,34.725l-7.988,11.427l-10.428-31.951
		C255.771,229.744,258.323,210.44,258.323,210.107z M240.794,213.436c0.333-2.108,0.333-3.106,0.333-3.106l14.755-0.666
		c0,0-1.447,11.458-1.886,14.312c-0.444,2.884-0.333,5.88-0.333,5.88l-16.087,0.555C237.576,230.41,240.461,215.544,240.794,213.436
		z M237.91,232.74l16.418-0.556l10.096,32.728c0,0-3.216,4.216-3.66,6.324c-0.444,2.108-1.443,3.55-1.997,3.55
		c-1.665,0-0.878-2.441-3.218-2.441c-2.552,0-3.217-1.109-3.217-1.109L237.91,232.74z M228.852,273.92
		c0,0,17.291-0.575,19.284-0.442c0.531,0.797,2.259,1.196,3.189,1.461c0.93,0.266,2.259-0.266,2.79-0.133s1.329,1.063,1.329,1.063
		s-4.253,7.043-2.924,13.953c1.329,6.91,8.239,15.281,8.239,15.281s-24.052-0.266-31.493-0.266s-20.065,0.398-23.786-3.189
		s-5.847-7.042-5.315-11.428s0.93-8.771,1.86-8.372c0.93,0.398,1.993,4.385,3.189,4.784c1.195,0.398,1.993,0.266,1.993,0.266
		s0.357,4.574,2.524,6.246c2.371,1.828,4.703,3.117,8.692,2.989c2.789-0.089,23.275,0.125,25.459-0.065
		c2.862-0.251,7.042-1.461,6.245-5.714c-0.798-4.252-5.269-6.188-6.863-6.72c-1.595-0.532-11.759,0.158-15.347,0.158
		s-12.621-0.032-14.098,0.814c-1.206,0.692-3.514,1.225-3.514,1.225s1.295-4.154,1.286-5.414c-0.024-3.855-0.067-7.58-0.067-7.58
		s5.099,0.271,6.294,0.271c0.406,1.015,1.039,1.226,2.368,1.624C221.518,275.131,228.852,273.92,228.852,273.92z M235.278,290.232
		c0.158,2.057,1.659,4.319,1.659,4.319h-4.905c0,0-0.389-3.016-0.105-5.053c0.229-1.652,1.285-3.948,1.285-3.948h3.076
		C236.288,285.55,235.119,288.175,235.278,290.232z M221.559,249.161c0.798,8.372-4.385,22.058-4.385,22.058l-5.05-0.133
		c0,0,4.651-7.574,5.98-18.869c1.09-9.266-2.924-26.045-5.715-31.095c-0.633-1.146-0.547-2.485-0.133-2.126
		C216.62,222.778,220.018,232.974,221.559,249.161z M232.189,185.643c0.798,1.329-0.133,2.791-1.195,3.189
		c-1.063,0.399-0.931,4.12-1.462,7.043c-0.532,2.923-6.645,7.309-6.645,7.309l-11.561-13.82c0,0,4.119-3.056,6.91-7.176
		c2.433-3.592,3.321-12.89,3.321-12.89S231.393,184.314,232.189,185.643z M212.5,156.14l7.24,10.619v2.534l-7.36-10.619
		L212.5,156.14z M212.138,160.845l7.482,10.74l-0.121,2.414l-7.361-11.343V160.845z M211.414,164.225l7.723,10.981l-0.482,2.293
		l-7.723-11.464L211.414,164.225z M209.966,167.604l7.964,11.222l-1.086,1.448l-7.48-10.981L209.966,167.604z M180.631,155.478
		c2.658-3.322,1.461-4.651,3.721-6.777c6.591-6.204,15.973-3.674,19.401-2.126c4.119,1.86,6.705,10.216,5.05,17.806
		c-1.595,7.309-8.505,11.295-10.1,12.225c-0.925,0.54-6.777,0.532-8.77,1.063c-3.744,0.999-6.642-0.792-10.232-7.973
		C176.777,163.85,180.631,155.478,180.631,155.478z M158.753,138.754c-1.4-0.305-1.793-5.02-2.151-8.366
		c-0.358-3.346-1.314-5.258-2.988-5.377c-1.673-0.119-13.863-0.239-17.567-0.12c-3.704,0.12-4.541,1.554-4.661,4.183
		c-0.118,2.629,0.837,6.812,0.837,7.529s0.359,2.032-1.314,0.956c-1.673-1.075-2.032-8.366-2.151-11.353
		c-0.12-2.987,1.553-4.542,1.553-4.542c1.076-0.956,2.39-0.836,5.618-0.836s16.013-0.358,19.001-0.239
		c2.988,0.119,3.825,2.749,3.825,8.246c0,5.497,1.434,7.17,3.465,7.409s14.341,0,18.523-0.358c3.994-0.342,4.302-9.083,4.183-11.592
		c-0.119-2.51,0.359-3.943,1.913-3.943c1.553,0,23.542-0.239,27.127-0.478c2.743-0.183,3.044-0.399,1.912,5.139
		c-1.195,5.855-4.661,12.093-6.931,11.951c-1.912-0.12,1.314-6.454,1.673-8.485s-0.478-3.585-3.824-3.705
		c-3.348-0.12-12.787,0.359-16.133,0.717c-3.346,0.358-3.466,3.705-3.824,5.856c-0.358,2.151-1.913,3.585-2.749,4.661
		c-0.837,1.075-2.693,1.341-5.378,2.271C175.604,139.351,161.502,139.351,158.753,138.754z M151.796,147.373
		c0.797,0.398,4.119,3.189,5.581,4.119c1.461,0.93,5.182,3.455,5.182,3.455s-0.531,2.923-1.063,2.791s-3.588-4.252-6.511-5.183
		s-5.448-5.714-5.448-5.714C150.201,146.708,150.999,146.974,151.796,147.373z M121.232,168.5
		c-4.65-9.036,2.791-16.079,2.791-16.079c3.587-3.322,7.707-6.644,13.819-7.309c6.113-0.665,13.222,3.307,13.82,12.624
		c0.665,10.365-5.315,19.401-12.756,20.464C132.611,179.1,125.884,177.537,121.232,168.5z M136.913,193.616
		c0,0-17.407,0.266-18.47,0.133c-1.063-0.133-0.797-1.196,0-1.993c0.797-0.797,3.189-3.721,3.322-4.917
		c0.133-1.196,4.917-7.042,4.917-7.042l0.133,1.86c0,0-2.924,4.252-3.322,5.315c-0.398,1.063-0.266,3.588,0.133,3.588
		c0.399,0,2.525-0.266,3.189-0.398c0.664-0.133,9.168,0.133,9.168,0.133l7.708-9.966l1.86,0.266L136.913,193.616z M140.899,197.602
		c-0.797-0.93-1.646-3.089-0.797-3.854c1.329-1.196,2.851,0.324,3.721,1.329c1.728,1.993,7.707,12.491,7.707,12.491l-2.791,1.594
		L140.899,197.602z M161.098,246.104c0,0-6.246,0.133-7.575,0.797c-1.329,0.665-5.049,1.329-5.979,0.797s-0.797-5.581-0.532-7.176
		c0.266-1.594,0.665-6.245,1.86-6.378c1.196-0.133,12.89,0.266,12.89,0.266L161.098,246.104z M160.433,217.534
		c-1.329-1.594-1.728-2.657-3.854-2.392c-2.126,0.266-2.259,3.854-1.86,5.847c0.398,1.993,5.714,10.365,5.714,10.365l-0.665,0.797
		l-2.392,0.133c0,0-6.146-10.841-7.441-15.016c-1.196-3.854,1.196-7.84,5.182-7.441c2.526,0.253,9.833,11.561,9.833,11.561
		l-0.399,2.524C164.552,223.913,161.762,219.129,160.433,217.534z M163.489,246.237l0.797-11.561l8.239,5.448
		c0,0-0.532,4.252-0.532,5.581c0,1.329-0.266,4.385-0.266,4.385L163.489,246.237z M53.861,189.496c0,0-0.199,2.842,0.133,4.917
		c0.531,3.322,2.923,5.581,2.923,5.581l-2.658,0.266c0,0-0.93-2.791-2.259-4.385c-1.329-1.595-3.322-3.189-3.322-3.189
		s-2.259-15.946-3.854-24.583s-4.917-31.626-5.183-32.689c-0.266-1.063-2.259-7.973-2.524-8.903
		c-0.266-0.93,0.797-1.993,2.791-2.658c1.993-0.664,3.455,0.399,3.721,8.638C43.895,140.728,53.861,189.496,53.861,189.496z
		 M44.161,107.242c-1.063,0.665-3.056-0.266-3.056-2.126s1.993-2.259,1.993-2.259c1.595,0.266,1.993,0.93,2.126,2.392
		C45.357,106.71,45.224,106.578,44.161,107.242z M61.834,100.199c4.385,0.531,6.777,3.986,7.973,5.315
		c1.196,1.329-0.532,3.057-2.259,3.189c-1.728,0.133-3.189-4.252-3.987-5.448s-3.455-1.728-4.917-1.86s-1.86-0.398-2.392-1.196
		C55.722,99.402,61.834,100.199,61.834,100.199z M55.589,102.724c1.594,0.399,5.448,3.189,4.651,3.322s-3.588-1.728-4.252-1.86
		s-1.595,1.063-2.923,1.063c-1.329,0-4.385-2.791-4.385-2.791C50.273,102.325,53.994,102.325,55.589,102.724z M47.483,97.542
		c0.398,0.398-0.93,0.266-2.126,0c-1.196-0.266-2.259-1.196-2.791-1.196c-0.532,0-3.057,0.133-3.854,0.133
		c-0.797,0-3.189-2.392-4.119-3.189s0.266-1.196,0.266-1.196c0.797,0.133,2.126-0.133,2.923-0.133c0.797,0,3.854,1.196,4.252,1.595
		C42.433,93.954,47.084,97.143,47.483,97.542z M37.384,99.402c-0.665-0.399-2.923-2.525-3.854-2.658s-2.923-0.266-2.923-0.665
		c0-0.398,1.329-1.594,1.329-1.594c0.665,0,1.329,0.133,2.126,0.93c0.797,0.797,5.315,3.455,6.113,4.784
		C40.972,101.528,38.048,99.8,37.384,99.402z M37.517,113.354c0.133,1.595-3.322,3.189-4.651,3.455
		c-1.329,0.266-1.728-3.455-1.728-5.581c0-2.126,0.93-5.448,0.93-5.448c1.462-0.797,1.728,0.797,2.923,1.86
		C36.188,108.704,37.384,111.76,37.517,113.354z M29.544,93.023c0,0,0,0-0.665-0.797s-3.056-4.784-2.658-9.567
		s4.119-5.847,4.119-5.847c2.126-0.133,3.432,0.061,5.714,4.385c2.524,4.784,1.063,8.771,1.063,8.771s-1.993,0.266-3.455,0.664
		C32.201,91.03,29.544,93.023,29.544,93.023z M28.613,119.999c-1.196,0.665-1.461,0.797-1.594-1.329
		c-0.133-2.126,0.266-7.441,0.266-7.441c-0.133,2.524,2.658,5.714,3.056,6.511C30.74,118.537,29.81,119.334,28.613,119.999z
		 M43.674,21.622c0.886-1.24,1.86-4.518,1.86-4.518c0.62-0.621,0.709-0.177,0.975,0.531c0.266,0.708,0.885,6.378,0.531,7.619
		c-0.355,1.24-2.747,0.709-4.076-0.177C41.636,24.19,42.789,22.861,43.674,21.622z M35.878,39.693
		c0.532-1.506,1.151-4.961,1.151-4.961c0.354-1.151,0.178-0.266,0.975-0.177c0.797,0.088,1.771,1.949,3.455,2.038
		c1.683,0.089,2.923-0.886,3.277-1.506c0.354-0.62,0.886,1.152,0.886,1.86c0,0.709-0.088,2.038-0.62,4.075
		c-0.532,2.038-2.038,2.658-4.252,2.835c-2.214,0.177-3.721-0.088-4.34-0.177C35.789,43.591,35.347,41.199,35.878,39.693z
		 M31.095,61.486c0.176-0.708,1.417-3.544,1.417-3.544c0.62-1.417,1.595-4.429,1.595-4.429s0.885,0.266,2.923,0.886
		c2.038,0.62,4.43-1.329,4.43-1.329s0.532,0.975,0,3.277c-0.531,2.303-0.089,6.733-0.443,7.265
		c-0.354,0.531-1.683,0.177-3.367-0.443c-1.684-0.62-3.455-1.152-5.049-0.709S30.917,62.195,31.095,61.486z M18.958,55.019
		c1.063,0.886,2.924,4.518,2.835,5.67c-0.089,1.152-2.747,3.1-3.721,2.923c-0.975-0.177-1.86-2.747-2.835-3.721
		c-0.975-0.974-3.277-2.923-3.277-2.923l2.746-2.569c0,0,0.531-0.975,1.595-1.063C17.363,53.247,17.895,54.133,18.958,55.019z
		 M16.033,45.54l-0.087,1.595l-5.05,2.834l-0.089-1.948L16.033,45.54z M10.542,46.337l-0.266-2.658c0,0,2.392-0.709,3.897-0.797
		c1.506-0.088,1.595,0.797,1.595,0.797s-1.595,0.886-2.303,1.151C12.757,45.097,10.542,46.337,10.542,46.337z M15.06,21.444
		c-0.089-1.86,1.505-2.126,1.505-2.126c1.594,0,2.341-0.006,2.481,0.975c0.177,1.24,0.089,0.443,0.177,2.658
		c0.089,2.215-0.797,2.834-2.745,2.746C14.528,25.607,15.149,23.304,15.06,21.444z M14.706,39.073
		c0.292,1.355,0.088,1.771-0.797,2.126s-3.101,0.532-3.632,0.62c-0.532,0.089-1.329-0.443-1.86-1.949
		c-0.532-1.506,0.797-1.949,0.797-1.949c0.442,0,2.481-0.621,3.544-0.532C13.996,37.494,14.438,37.833,14.706,39.073z
		 M12.578,21.976c0.443-0.355,0.621-0.443,0.621-0.443s0.355,0.974,0.355,2.037s-1.242,4.252-2.126,6.113
		c-0.887,1.86-3.899,6.822-3.899,6.822s0.089-5.05-0.176-6.113c-0.266-1.063-2.037-0.797-2.037-0.797L12.578,21.976z M1.682,36.504
		c-0.62-1.506,1.329-4.607,1.329-4.607c1.063-0.708,2.836-1.329,3.013,0.266c0.177,1.595-0.797,4.075-1.505,4.695
		C3.809,37.478,2.303,38.01,1.682,36.504z M3.542,46.958c-0.088-0.886-0.708-4.606-0.797-5.847c-0.088-1.24,1.418-1.949,2.215-2.126
		c0,0,0,0,0.974-0.088c0.975-0.088,1.242,1.24,1.329,2.746c0.089,1.506,0.976,6.29,0.886,7.353
		c-0.089,1.063-1.418,1.506-2.834,1.595C3.897,50.679,3.632,47.843,3.542,46.958z M5.226,55.462
		c-0.177-2.215,0.709-3.366,0.709-3.366c0.886-0.089,0.886,0.886,1.595,1.771s2.658,2.48,3.101,4.784
		c0.442,2.303-1.86,3.278-2.923,3.278S5.404,57.677,5.226,55.462z M16.743,78.318c-0.089-0.885-0.797-1.417-1.86-2.657
		c-1.063-1.24-3.633-4.696-4.252-5.404c-0.621-0.708-3.278-5.759-3.013-6.644c0.266-0.886,1.771-0.178,2.568-0.532
		s1.684-1.86,1.684-1.86c0.442-0.62,0.975-0.442,1.418,0.177c0.442,0.62,1.417,2.746,2.037,4.075
		c0.62,1.329,2.481,6.999,3.101,7.264c0.62,0.266,2.214,0.266,2.304,0.886c0.088,0.62-0.797,0.975-1.506,2.038
		c-0.709,1.063-1.241,4.075-1.772,4.606C16.92,80.798,16.832,79.204,16.743,78.318z M22.899,97.276
		c-1.86-1.728-5.581-7.708-5.581-10.365c0-2.657,1.329-1.993,1.728-3.455c0.399-1.462,0.532-4.917,1.196-6.113
		c0.665-1.196,4.518-4.518,6.246-4.784s6.644,0.665,8.372,1.196c1.728,0.532,4.784,2.259,5.581,3.056
		c0.797,0.797,2.525,3.189,2.658,6.777s-0.93,7.973-0.93,7.973l-2.392-1.196c0,0,0.266-4.518,0-6.112
		c-0.266-1.595-2.924-9.169-7.84-9.701s-7.441,4.385-7.441,6.91c0,2.525-0.398,6.91,0.93,8.638s2.923,3.854,2.923,3.854
		s0.399,4.917,0.133,5.581C28.215,100.199,24.76,99.003,22.899,97.276z M25.69,129.699c0,0,0.532-5.183,4.12-8.505
		c3.588-3.322,7.441-5.049,9.567-5.182s4.12-0.399,5.581,0.797c1.462,1.196,3.189,3.056,3.189,4.784c0,0-8.505-0.665-9.435-0.399
		c-0.93,0.266-6.245,1.462-7.707,2.658C29.544,125.048,25.69,129.699,25.69,129.699z M40.042,191.888c0,0-5.448-23.254-6.644-34.284
		c-1.196-11.029-3.455-20.464-3.455-20.996s1.595-4.518,1.728-5.714s1.196-4.385,2.259-4.385s5.315,25.248,6.644,33.088
		c1.329,7.84,5.183,31.626,5.183,31.626s-2.658-0.797-3.588-0.532C41.237,190.958,40.042,191.888,40.042,191.888z M42.433,197.336
		c0.266-2.392,1.994-3.322,2.924-2.658s5.847,5.581,5.979,6.378c0.133,0.797-2.126,0.93-3.455,1.728
		c-1.329,0.797-3.721,2.923-3.721,2.923C42.832,204.778,42.167,199.728,42.433,197.336z M56.652,242.25
		c-6.246-12.624-9.302-19.002-11.694-22.856c-2.134-3.439-0.665-8.504-0.133-10.365s4.917-4.651,6.378-5.049
		c1.461-0.399,2.658,0.133,3.721-0.266c1.063-0.398,2.392-1.86,6.246-0.93c4.271,1.031,6.245,7.042,9.169,11.428
		c2.923,4.385,30.829,44.781,30.829,44.781s-0.532,0.532-1.462,1.063c-0.93,0.532-3.721,3.322-3.721,3.322
		s-12.624-17.806-13.953-19.268c-1.329-1.461-3.056-0.93-3.056-0.93s-2.791,1.063-3.986,2.525c-1.196,1.461,0.398,3.588,0.398,3.588
		l12.757,17.142c0,0-2.525,2.791-3.987,4.385c-1.461,1.595-1.594,4.784-1.86,7.707C75.083,268.97,62.366,250.356,56.652,242.25z
		 M89.917,299.435l-23.033-18.692c0,0-0.708-4.518-0.62-6.733c0.088-2.215,0.354-6.201,2.392-8.77
		c0.912-1.149,1.949,0.62,1.949,0.62c0.62,0.886,2.481,3.81,2.481,3.81s-1.86,0.886-2.392,3.632c-0.532,2.747,0.087,8.15,0.087,8.15
		l19.402,17.364L89.917,299.435z M95.321,296.998c0,0-10.099-12.624-11.029-14.883c-0.93-2.259-0.399-4.518,0.398-7.84
		c0.797-3.322,4.651-5.847,5.448-6.644c0.797-0.797,0-1.595,0-1.595s-11.827-15.946-12.491-16.743
		c-0.664-0.797-0.93-1.993-0.93-2.525s1.462-1.462,2.126-1.728c0.664-0.266,1.993,0.399,1.993,0.399l14.085,19.4l1.595,0.399
		c0,0,2.392-3.056,3.854-3.854s2.658,0.665,2.658,0.665l6.91,7.308l-0.133,1.728c0,0-5.315,1.329-9.7,8.239
		C95.759,286.172,95.321,296.998,95.321,296.998z M138.906,318.791c-0.399-0.665-4.252-11.162-4.252-11.162l2.525,0.266
		l3.986,11.295C141.165,319.189,139.305,319.456,138.906,318.791z M117.778,304.307c-1.196,0.133-8.372-0.531-9.568-1.063
		c-1.196-0.532-9.435-3.854-8.903-10.896c0.531-7.042,3.189-13.421,8.106-16.211c4.917-2.791,6.777-3.189,10.498-3.721
		c3.721-0.532,29.101,0.266,34.948,0.133c5.847-0.133,13.022-0.93,13.022-0.93l5.581,7.84c0,0-3.588,5.315-3.854,7.973
		c-0.266,2.658,1.063,4.518,1.063,4.518l-4.12,11.959C164.552,303.908,118.974,304.174,117.778,304.307z M147.278,316.931
		c-0.93-3.588-1.994-9.036-0.93-9.833c1.063-0.797,2.126,1.595,3.189,5.448s4.651,11.295,4.651,11.295l-3.854,5.581
		C150.334,329.421,148.208,320.519,147.278,316.931z M151.663,331.016c0.532-0.93,8.903-14.75,8.903-14.75s1.063,1.728,1.329,2.259
		c0.266,0.532,0.133,2.259,0.133,2.259s-4.252,4.252-5.315,7.043s-4.784,8.77-4.784,8.77S151.131,331.946,151.663,331.016z
		 M192.989,387.225c0,0-9.966,1.595-12.491,1.329c-2.524-0.266-3.056,0-4.119-2.924c-1.063-2.923-6.378-10.896-7.309-13.288
		c-0.93-2.392-16.344-32.822-16.344-32.822s0.531-1.595,1.727-2.923c1.196-1.329,9.169-12.225,9.169-12.225s1.329-0.532,3.189-0.532
		s15.148-0.93,18.072-0.797c2.923,0.133,7.176-0.664,7.176-0.664s13.421,7.707,15.547,8.77s4.385,2.525,4.917,3.721
		c0.531,1.196,1.86,5.714,3.188,7.309c1.329,1.595,2.525,2.791,2.525,2.791l17.938,40.928
		C236.176,385.897,196.444,386.827,192.989,387.225z M189.136,503.631c0.398-1.062,8.105-26.443,8.638-28.039
		c0.531-1.594,2.259-6.377,3.854-6.777c1.595-0.398,2.524-0.266,3.588-0.93c1.062-0.664,1.86-1.195,3.588-1.062
		c1.727,0.133,14.483,0.266,18.471,0.398c3.986,0.133,7.707,1.994,10.231,1.727c0,0-2.524,9.436-3.455,12.227
		c-0.93,2.791-7.574,23.652-7.574,24.449c0,0.799-0.266,1.729-0.266,1.729s-34.151-0.797-34.683-0.797
		C190.996,506.555,188.737,504.693,189.136,503.631z M97.845,514.926c1.462,0.133,2.525-1.461,2.525-1.461l41.991-0.666
		c0,0-2.658,1.861-4.119,2.791c-1.462,0.93-3.189,2.791-3.189,2.791l-39.067-0.797C95.985,517.584,96.542,514.807,97.845,514.926z
		 M91.999,520.373c1.86-1.328,4.385-1.328,5.714-1.328c1.329,0,30.563,0.266,30.563,0.266s3.189,0.266,3.056,2.525
		c-0.133,2.258-1.594,3.986-2.392,4.119c-0.523,0.088-2.593,0.002-4.479-0.104c1.186-1.406,1.577-2.576,1.194-3.559
		c-0.631-1.619-3.092-1.814-3.387-1.832c-0.964-0.027-23.661-0.701-26.003-0.162c-1.493,0.344-2.458,1.018-2.867,2.002
		c-0.357,0.859-0.192,1.744,0.025,2.373c-0.895-0.029-1.423-0.047-1.423-0.047S90.138,521.703,91.999,520.373z M94.579,524.713
		c-0.194-0.414-0.506-1.268-0.2-2.004c0.27-0.65,0.984-1.111,2.124-1.375c0.288-0.066,0.958-0.111,1.908-0.141
		c-0.086,0.031-0.168,0.07-0.238,0.121c-1.098,0.801-1.179,1.811-0.704,3.43c0,0,0.022,0.025,0.064,0.066
		C96.415,524.773,95.412,524.74,94.579,524.713z M100.418,522.268c-0.182-0.617-0.668-0.971-1.169-1.094
		c4.499-0.084,13.261,0.092,19.23,0.246c-0.143,0.145-0.289,0.299-0.439,0.475c0,0-0.522,2.053,0.329,2.568
		c1.053,0.637,2.524-0.479,3.351-1.436c0.402-0.465,0.451-1.035,0.308-1.51c0.062,0.002,0.13,0.004,0.19,0.006
		c0.57,0.035,2.119,0.314,2.446,1.156c0.261,0.674-0.291,1.77-1.557,3.084l0.008,0.008c-0.464-0.031-0.883-0.059-1.22-0.082
		c-1.183-0.084-12.944-0.492-21.356-0.777C100.783,524.121,100.651,523.062,100.418,522.268z M86.019,528.213
		c1.196-1.859,3.987-2.125,7.708-2.125s29.633,0.797,29.633,0.797s3.455,0.797,3.056,2.924c-0.398,2.127-1.728,4.65-3.056,4.65
		c-0.498,0-1.367-0.186-2.352-0.412c1.035-1.293,1.398-2.438,1.058-3.41c-0.647-1.844-3.531-2.186-3.695-2.203
		c-0.209-0.008-20.967-0.707-25.531-0.707c-1.382,0-2.389,0.438-2.993,1.303c-0.904,1.295-0.591,3.174-0.344,4.127
		c-1.738-0.016-2.82-0.025-2.82-0.025S84.823,530.074,86.019,528.213z M117.622,530.816c-1.269-0.488-2.162-0.008-3.262,1.27
		c0,0-0.145,0.586-0.154,1.211c-3.972,0.018-12.562-0.041-19.104-0.094c0.146-0.592-0.025-1.373-0.263-1.971
		c-0.348-0.873-1.564-1.152-2.098-0.838c-0.97,0.57-0.997,1.35-0.489,2.623c0,0,0.077,0.068,0.193,0.164
		c-0.654-0.006-1.268-0.01-1.835-0.016c-0.187-0.615-0.648-2.447,0.109-3.529c0.393-0.562,1.106-0.848,2.12-0.848
		c4.546,0,25.286,0.701,25.455,0.705c0.649,0.074,2.417,0.486,2.769,1.496c0.239,0.684-0.181,1.643-1.212,2.791
		c-0.672-0.154-1.349-0.299-1.964-0.396c0.052-0.057,0.108-0.111,0.155-0.168C118.797,532.342,118.32,531.086,117.622,530.816z
		 M78.312,537.516c1.329-2.127,2.923-3.057,6.644-2.924s31.626,0.398,31.626,0.398s5.847,0.666,4.385,4.119
		c-1.461,3.455-3.986,5.184-3.986,5.184l-4.054-0.088c1.197-1.473,3.083-4.096,2.945-5.889c-0.155-2.018-5.083-2.244-14.733-1.975
		c-1.202,0.035-2.24,0.064-2.983,0.064c-0.75,0-1.612-0.012-2.542-0.023c-4.283-0.061-9.616-0.135-12.163,0.764
		c-0.795,0.281-1.368,0.803-1.703,1.549c-0.782,1.738,0.023,4.191,0.264,4.84l-1.839-0.039
		C80.172,543.496,76.983,539.643,78.312,537.516z M82.716,539.131c0.215-0.477,0.57-0.799,1.087-0.98
		c2.368-0.838,7.816-0.76,11.795-0.705c0.935,0.012,1.802,0.025,2.556,0.025c0.75,0,1.799-0.031,3.014-0.064
		c8.986-0.256,13.574,0.078,13.643,0.99c0.119,1.541-2.063,4.41-3.248,5.779l-29.12-0.631l0.613-0.25
		C82.763,542.576,82.132,540.43,82.716,539.131z M72.066,546.951c1.462-2.791,4.784-2.26,5.448-2.26
		c0.665,0,33.486,0.797,33.486,0.797s4.784-0.266,3.987,2.791s-2.525,6.91-2.525,6.91l-5.044-0.172
		c0.624-1.084,1.584-2.703,2.335-3.775c0.623-0.889,0.514-1.613,0.313-2.064c-0.458-1.031-1.829-1.637-2.986-1.781
		c-1.382-0.174-12.692-0.713-15.657-0.713c-6.678,0-13.938,0.09-15.533,1.152c-2.052,1.369-1.019,4.492-0.302,6.1l-2.193-0.076
		C73.395,553.859,70.604,549.74,72.066,546.951z M105.705,550.488c-1.529-0.623-2.102-0.113-3.407,1.455
		c0,0-0.805,1.932-0.377,2.887l-25.133-0.855c-0.55-1.125-1.866-4.215-0.307-5.254c1.46-0.973,10.909-0.973,14.943-0.973
		c2.945,0,14.158,0.531,15.525,0.703c0.838,0.104,1.874,0.545,2.146,1.158c0.049,0.109,0.196,0.439-0.212,1.021
		c-0.912,1.301-2.079,3.311-2.668,4.346l-1.76-0.059c0.518-0.373,1.005-0.881,1.417-1.377
		C106.769,552.463,106.545,550.83,105.705,550.488z M61.967,561.301c1.196-3.854,3.986-5.314,5.979-5.58s19.268,0.133,21.793,0.266
		c2.524,0.133,15.148,0.266,15.148,0.266s5.847,0.664,4.252,5.316c-1.594,4.65-3.056,7.307-3.056,7.307s-2.338,0-5.344,0
		c1.121-1.352,3.88-4.988,3.05-7.146c-1.318-3.426-9.215-3.375-16.164-3.334c-1.517,0.008-2.941,0.018-4.161-0.016
		c-7.496-0.211-14.433-0.297-16.907,0.939c-2.529,1.266-0.767,7.432-0.073,9.557c-1.858,0-3.056,0-3.056,0
		S60.771,565.154,61.967,561.301z M67.607,568.875c-1.093-3.199-1.977-7.904-0.574-8.605c2.439-1.219,10.841-0.984,16.403-0.828
		c1.233,0.033,2.672,0.025,4.196,0.016c5.96-0.037,14.112-0.088,15.166,2.654c0.561,1.457-1.707,4.787-3.267,6.545l0.248,0.219
		c-4.62,0-10.322,0-11.766,0C86.185,568.875,74.13,568.875,67.607,568.875z M53.197,575.52c1.196-4.385,5.714-5.182,9.567-5.182
		c3.854,0,18.604,0,22.059,0s11.428-0.133,11.428-0.133s5.315-0.398,5.979,3.322s-0.532,5.713-1.595,7.973
		c-1.063,2.258-2.392,4.252-2.392,4.252s-2.382-0.207-4.852-0.395c1.496-1.295,4.062-3.834,5.088-6.785
		c0.347-0.998,0.279-1.879-0.201-2.613c-1.333-2.033-5.575-2.355-8.983-2.615l-1.018-0.08c-4.221-0.354-22.98-0.697-23.787-0.713
		l-0.505-0.004c-2.186-0.023-5.819-0.068-7.085,3.734c-1.16,3.48,3.014,6.91,4.39,7.926c-1.03,0.01-1.893,0.037-2.513,0.084
		C58.778,584.291,52.001,579.904,53.197,575.52z M89.341,585.088c-2.4-0.115-19.343-0.916-27.419-0.885l0.385-0.578
		c-0.055-0.035-5.494-3.715-4.396-7.006c1.021-3.07,3.938-3.031,6.062-3.01l0.51,0.004c0.194,0.004,19.521,0.359,23.708,0.709
		l1.025,0.08c3.008,0.229,7.129,0.543,8.174,2.139c0.295,0.451,0.324,1.002,0.086,1.682c-1.173,3.375-4.707,6.307-5.617,7.021
		C90.913,585.178,90.026,585.119,89.341,585.088z M46.154,591.998c1.329-4.785,4.12-5.98,6.645-5.98
		c2.524,0,13.82-0.266,19.667-0.266s17.142,0.664,20.729,1.727c3.588,1.064,2.923,2.658,2.126,4.387
		c-0.797,1.727-4.651,8.504-4.651,8.504s-2.029-0.061-4.815-0.141c0.71-1.061,1.989-3.086,3.212-5.656
		c0.556-1.168,0.566-2.193,0.028-3.045c-1.246-1.973-5.336-2.852-13.264-2.852c-7.711,0-21.237,0.193-24.706,0.715
		c-0.655,0.096-1.153,0.447-1.438,1.014c-1.089,2.154,1.257,7.268,2.162,9.086c-1.45-0.031-2.372-0.051-2.372-0.051
		S44.825,596.781,46.154,591.998z M53.055,599.518c-1.352-2.58-3.176-7.139-2.42-8.635c0.131-0.258,0.33-0.395,0.647-0.443
		c3.411-0.51,16.867-0.701,24.548-0.701c7.218,0,11.378,0.793,12.365,2.357c0.335,0.529,0.306,1.191-0.088,2.02
		c-1.449,3.043-3.03,5.383-3.516,6.076c-5.394-0.154-12.677-0.354-14.386-0.354C68.208,599.838,58.438,599.633,53.055,599.518z
		 M25.557,628.408c2.126-2.791,7.309-2.393,12.757-2.525s29.101-0.531,30.297-0.531c1.196,0,6.112-0.133,6.511,1.859
		c0.398,1.994-1.86,8.371-1.86,9.17c0,0.797-1.86,3.057-1.86,3.057s-2.049-0.293-4.359-0.49c0.774-1.059,2.062-3.043,3.428-6.117
		c0.821-1.848,0.923-3.352,0.303-4.473c-0.745-1.348-2.244-1.576-2.396-1.59c-0.217,0.004-21.682,0.523-26.761,0.709
		c-0.648,0.025-1.311,0.043-1.979,0.061c-4.409,0.115-8.969,0.234-10.956,2.223c-1.963,1.961,1.514,6.988,3.442,9.459
		c-1.679,0.033-2.89,0.062-3.377,0.084C28.747,639.303,23.431,631.197,25.557,628.408z M35.087,621.203
		c0.35-0.564,0.895-0.998,1.601-1.318c-0.272,0.193-0.549,0.461-0.847,0.818c0,0-0.501,1.973,0.158,2.611
		c0.816,0.787,2.237,0.469,2.936-0.369c0.64-0.768,0.112-2.674-0.435-3.043c-0.347-0.234-0.662-0.336-0.965-0.33
		c0.403-0.111,0.841-0.195,1.324-0.248c4.312-0.465,16.488-0.703,24.546-0.859c4.774-0.092,7.286-0.145,7.718-0.205
		c0.583-0.086,2.402,0.189,3.014,1.303c0.522,0.951,0.066,2.389-1.309,4.184c-1.052-0.002-2.205-0.002-3.446-0.004
		c0.081-0.07,0.165-0.131,0.245-0.211c1.557-1.557,1.698-2.262,0.283-3.113c-1.415-0.85-1.981-0.709-3.68,0.426
		c0,0-1.545,1.896-1.12,2.898c-9.428,0.006-20.816,0.043-23.296,0.193c-2.414,0.146-5.172,0.131-7.168,0.088
		C34.527,623.248,34.506,622.141,35.087,621.203z M33.463,639.193c-2.499-3.076-5.208-7.504-4.03-8.684
		c1.688-1.688,6.227-1.805,10.232-1.91c0.673-0.018,1.34-0.035,1.991-0.059c5.072-0.188,26.531-0.705,26.656-0.717
		c0.011,0.002,1.054,0.172,1.537,1.057c0.438,0.803,0.316,2.018-0.35,3.518c-1.629,3.666-3.147,5.732-3.724,6.455
		c-0.764-0.049-1.524-0.082-2.213-0.082C61.036,638.771,42.513,639.021,33.463,639.193z M30.544,646.545
		c0.04-0.309,0.208-0.533,0.534-0.705c2.899-1.535,17.409-2.412,22.213-2.064c0.973,0.068,2.005,0.117,3.056,0.168
		c4.092,0.195,8.729,0.416,10.441,1.996c1.617,1.492,1.009,4.244,0.607,6.064c-0.03,0.137-0.054,0.258-0.082,0.385l-2.767-0.023
		c-0.026-0.643-0.217-1.4-0.583-2.08c-0.99-1.84-0.567-2.547-2.123-2.406c0,0,0.002,2.713,0.576,4.469l-21.568-0.188
		c0.072-0.617-0.06-1.451-0.382-2.016c-0.567-0.99-1.416-2.125-3.256-2.266c-0.799-0.061-0.567,1.699,0.141,3.115
		c0.239,0.477,0.577,0.85,0.943,1.145l-4.067-0.035C32.651,650.625,30.367,647.934,30.544,646.545z M68.399,652.398
		c0.013-0.059,0.023-0.107,0.035-0.166c0.455-2.057,1.141-5.168-0.925-7.074c-1.997-1.842-6.63-2.062-11.111-2.275
		c-1.042-0.051-2.067-0.1-3.03-0.168c-5.028-0.361-19.69,0.547-22.789,2.186c-0.629,0.334-1.007,0.855-1.09,1.51
		c-0.23,1.803,1.899,4.316,3.215,5.682l-3.56-0.031c0,0-5.448-4.65-6.246-7.574s1.329-2.924,1.329-2.924s31.36-0.93,37.605-1.195
		c6.246-0.266,7.575,1.594,9.568,3.721c1.993,2.125,4.119,8.371,4.119,8.371L68.399,652.398z M80.969,618.176
		c-0.665,2.258-2.525,5.58-2.525,5.58s-1.684-0.004-4.318-0.008c1.285-1.893,1.614-3.473,0.942-4.697
		c-0.931-1.697-3.366-1.945-4.095-1.844c-0.389,0.055-3.725,0.121-7.589,0.195c-8.077,0.158-20.281,0.395-24.64,0.865
		c-2.202,0.238-3.737,1.039-4.565,2.383c-0.701,1.139-0.729,2.406-0.611,3.346c-1.022-0.029-1.676-0.061-1.676-0.061
		s-1.684-3.635-0.621-5.361c1.063-1.729,2.791-2.658,4.784-2.525c1.993,0.133,43.187-0.133,43.187-0.133
		S81.634,615.916,80.969,618.176z M45.054,614.371c-0.738-0.764-4.237-4.617-2.29-7.121c2.243-2.885,3.551-2.816,6.729-2.643
		l0.265,0.014c3.344,0.174,28.18,0.188,29.248,0.176c0.818,0.023,3.11,0.301,3.887,1.291c0.241,0.307,0.308,0.648,0.216,1.078
		c-0.734,3.373-3.685,6.693-4.455,7.516L45.054,614.371z M86.152,609.139c-1.196,1.994-3.322,5.582-3.322,5.582l-2.757-0.025
		c1.229-1.424,3.417-4.285,4.074-7.303c0.159-0.73,0.015-1.41-0.417-1.961c-1.219-1.557-4.342-1.686-4.709-1.697
		c-0.258,0-25.892-0.002-29.206-0.176l-0.264-0.014c-3.25-0.176-5.039-0.27-7.625,3.053c-2.068,2.66,0.3,6.127,1.682,7.76
		l-3.831-0.035c0,0-2.658-5.051-1.196-8.105c1.462-3.057,3.189-4.918,6.378-4.918c3.189,0,28.968,0,33.486,0
		s9.568,0.266,9.701,2.393C88.278,605.816,87.348,607.146,86.152,609.139z M95.675,642.891c0,0-2.304-5.314-0.709-9.213
		c1.595-3.898,3.366-4.961,2.658-5.67s-4.075-0.885-5.669-0.885c-1.595,0-3.012-1.771-1.595-2.303
		c1.417-0.533,6.201-0.887,9.39-0.887c3.189,0,3.898-0.887,3.367,0.531c0,0-4.076,6.73-4.43,10.1
		c-0.354,3.365,1.418,8.148,1.418,8.148L95.675,642.891z M104.71,642.182c-5.493,0.887-3.757-9.246-3.543-9.92
		c1.063-3.367,4.252-7.975,6.378-8.152c2.126-0.176,3.011,4.607,3.189,8.328C110.912,636.158,110.204,641.297,104.71,642.182z
		 M109.317,612.594c-0.253-11.869,7.087-19.312,7.087-19.312h-7.795v-3.367l11.87,0.178l-0.354,2.125c0,0-5.146,6.584-6.378,13.113
		c-1.772,9.391,2.835,17.717,2.835,17.717S109.494,620.92,109.317,612.594z M128.098,607.279
		c-0.532,3.721-3.721,16.123-8.151,15.414c-4.429-0.711-4.447-13.441-4.075-16.301c0.532-4.076,4.961-15.238,9.214-14.883
		C129.338,591.863,128.629,603.559,128.098,607.279z M134.654,609.229c-1.063-2.658-2.303-6.201-2.303-6.201l-1.418-0.355
		c0,0-0.178-4.252-0.355-5.848c-0.177-1.594-2.48-5.137-2.658-6.555c-0.176-1.418-3.061-19.328,2.126-33.486
		c3.044-8.305,7.494-16.951,12.049-23.387c5.259-7.43,10.453-12.049,10.453-12.049h13.112c0,0-2.835,4.076-7.441,10.277
		c-6.126,8.246-13.74,19.146-16.124,33.131c-5.315,31.184,4.429,48.547,4.429,48.547S135.717,611.887,134.654,609.229z
		 M145.64,577.689c3.012-21.793,4.605-25.514,7.44-30.119c2.835-4.607,4.784-6.377,4.784-6.377l0.531-4.432
		c0,0,6.378-8.326,9.036-10.807c2.658-2.479,6.732-5.67,7.973-7.617c1.24-1.951,2.659-4.074,4.607-5.492
		c1.949-1.418,5.315-3.545,5.315-3.545s39.687-0.531,41.813-0.355c2.127,0.18,5.492,1.064,4.606,1.951c0,0-4.783,4.783-6.378,8.504
		s-2.658,6.379-2.658,6.379s-16.123,8.326-22.855,27.283c-6.732,18.959-7.086,35.969-7.086,35.969s-11.692-2.305-16.832,3.188
		c-5.139,5.492-2.836,5.846-4.076,7.795c-1.239,1.949-3.898,6.379-3.721,9.215c0.178,2.834,0,5.137,0,5.137l-15.768-0.176
		C152.372,614.189,142.627,599.482,145.64,577.689z M255.223,514.262c4.253,0,24.273,0.176,27.551,1.15
		c3.277,0.973,1.86,4.961,0.089,6.822c-1.165,1.223-4.513,1.258-7.753,1.037c0.314-0.312,0.689-0.66,1.135-1.025
		c1.021-0.834,2.052-2.326,1.906-3.633c-0.075-0.67-0.446-1.191-1.074-1.506c-1.777-0.889-12.272-1.916-17.778-1.916
		c-3.631,0-10.912-0.215-16.229-0.371c-3.024-0.09-5.412-0.16-6.096-0.16c-0.382,0-0.726,0.16-0.993,0.463
		c-1.042,1.184-0.788,4.637-0.645,5.979c-1.169-0.102-2.104-0.223-2.615-0.375c-2.392-0.707,0.111-5.541,0.267-5.758
		c1.328-1.859,3.366-1.418,4.34-1.504C238.301,513.375,250.971,514.262,255.223,514.262z M183.362,643.547
		c-0.38-1.189-1.079-4.232-0.187-5.518c0.26-0.375,0.652-0.566,1.195-0.586c1.54-0.064,3.929,0.229,6.699,0.559
		c3.886,0.461,8.722,1.035,13.878,1.035c2.025,0,4.203-0.047,6.367-0.094c5.979-0.135,14.171-0.314,14.659,1.068
		c0.555,1.574-1.419,4.836-2.349,6.141c-4.887-0.156-10.241-0.338-11.9-0.426c-3.277-0.178-19.489-1.596-21.705-1.771
		C189.339,643.9,186.229,643.715,183.362,643.547z M226.978,639.658c-0.708-2.008-6.417-1.982-15.686-1.779
		c-2.156,0.049-4.325,0.096-6.344,0.096c-5.093,0-9.895-0.57-13.753-1.029c-2.93-0.348-5.257-0.619-6.862-0.564
		c-0.877,0.031-1.579,0.393-2.031,1.043c-1.153,1.662-0.431,4.797-0.071,6.059c-2.239-0.131-4.08-0.236-4.08-0.236
		s-1.157-5.355,0-7.441c1.329-2.393,4.341-2.66,6.289-2.57c1.419,0.066,13.466,1.062,17.187,1.242
		c3.721,0.176,18.515,1.506,22.59,1.594c4.074,0.088,7.973,0.619,8.771,1.682c0.797,1.064,1.771,4.785,0.885,6.559
		c-0.885,1.77-1.151,2.125-1.151,2.125s-3.59-0.107-7.834-0.242C225.842,644.748,227.666,641.611,226.978,639.658z M174.519,617.023
		c0,0,0.001,1.949-0.708,1.418s-3.897-5.316-1.595-13.82c2.303-8.504,2.125-8.504,3.897-9.566c1.772-1.064,3.721-1.064,5.315-2.127
		c1.594-1.062,2.302-1.418,4.252-1.418s5.847-0.176,6.024,1.062c0.178,1.242-1.064,1.242-1.241,2.305
		c-0.176,1.062,0.177,2.479-1.063,2.658c-1.239,0.176-10.275-1.418-12.401,1.771C174.874,602.496,173.101,611,174.519,617.023z
		 M187.412,626.074c1.435-0.842,3.192-0.463,5.225-0.025c0.857,0.186,1.744,0.377,2.677,0.494
		c3.232,0.404,20.251,1.732,24.384,1.732l1.146-0.006c2.948-0.016,9.066-0.045,9.808,1.09c0.026,0.041,0.071,0.109-0.011,0.293
		c-0.849,1.91-2.506,4.293-3.068,5.08c-7.342-0.648-20.356-1.764-22.934-1.764c-2.513,0-11.804-0.678-17.296-1.096
		C186.805,630.242,186.032,626.887,187.412,626.074z M232.633,635.184c0,0-1.512-0.137-3.836-0.344
		c0.749-1.076,2.062-3.059,2.815-4.756c0.262-0.588,0.106-1.035-0.071-1.307c-0.98-1.496-5.431-1.598-10.702-1.57l-1.141,0.004
		c-4.106,0-21.034-1.32-24.251-1.723c-0.887-0.111-1.751-0.297-2.586-0.479c-2.159-0.465-4.198-0.904-5.989,0.148
		c-2.039,1.199-1.219,4.855-0.675,6.627c-1.812-0.141-2.997-0.234-2.997-0.234s-0.845-5.467,0.176-7.352
		c1.151-2.127,2.835-2.568,5.936-2.303c2.39,0.203,17.009,1.238,20.199,1.506c3.188,0.266,12.845,0.975,17.097,1.328
		c4.252,0.355,10.453,0.621,10.984,1.859c0.532,1.24,0.444,5.051-0.708,5.938C235.732,633.412,232.633,635.184,232.633,635.184z
		 M193.205,614.311c0.455-0.617,1.057-0.963,1.84-1.057c3.53-0.412,9.706-0.236,18.361,0.535c5.981,0.531,15.151,1.328,16.745,1.461
		c0.572,0.047,1.746,0.398,2.098,1.381c0.301,0.848,0.179,2.846-3.798,6.793c-6.982-0.555-16.063-1.27-18.586-1.441
		c-3.438-0.232-12.011-0.924-17.477-1.371C192.229,619.473,191.895,616.088,193.205,614.311z M237.062,624.109
		c0,0-3.103-0.248-7.233-0.578c2.896-3.031,4.058-5.475,3.422-7.256c-0.532-1.492-2.143-2.014-3.009-2.084
		c-1.595-0.133-10.763-0.93-16.741-1.463c-8.726-0.775-14.979-0.955-18.58-0.529c-1.076,0.127-1.941,0.625-2.572,1.48
		c-1.465,1.988-1.227,5.4-1.045,6.844c-2.251-0.186-3.762-0.311-3.762-0.311s-0.533-6.113,0.974-8.15
		c1.506-2.039,2.216-2.125,7.088-1.859s17.186,0.973,20.552,1.238c3.367,0.266,16.034,1.33,19.047,1.596s6.289,1.328,6.467,3.455
		c0.178,2.125,0.532,3.809-1.239,5.049C238.656,622.781,237.062,624.109,237.062,624.109z M213.514,562.859
		c1.558-0.605,3.262-0.199,5.235,0.273c0.822,0.197,1.671,0.4,2.59,0.553c1.771,0.295,6.438,0.389,10.952,0.479
		c3.766,0.074,7.322,0.145,8.873,0.324c0.944,0.107,2.281,0.139,3.697,0.172c2.543,0.061,6.802,0.16,7.325,0.986
		c0.017,0.025,0.048,0.074-0.019,0.223c-0.81,1.824-3.713,5.021-4.865,6.25c-0.652-0.057-1.175-0.1-1.471-0.1
		c-1.684,0-22.856-1.506-24.185-1.594c-0.872-0.059-5.703-0.27-9.002-0.457C212.216,567.514,212.07,563.42,213.514,562.859z
		 M220.318,571.666c1.86,0.088,18.427,1.33,23.565,1.771c5.138,0.445,7.707,1.24,8.77,2.658c1.063,1.418,1.063,2.834,0.089,5.67
		c-0.976,2.834-3.81,3.809-4.962,3.721c-0.286-0.021-1.579-0.084-3.374-0.162c1.085-1.248,2.606-3.145,3.285-4.672
		c0.366-0.824,0.288-1.699-0.225-2.533c-1.062-1.729-3.777-2.902-5.683-2.996c-2.594-0.131-19.891-1.193-23.082-1.592
		c-3.305-0.416-8.048-0.402-10.557,0.992c-2.41,1.34-0.555,7.062,0.221,9.154c-1.015-0.096-1.844-0.201-2.222-0.318
		c-1.151-0.354-1.86-1.684-2.481-4.961c-0.62-3.279,0.362-4.668,0.533-4.871c0.886-1.064,2.215-2.248,3.365-2.305
		C209.334,571.135,218.458,571.578,220.318,571.666z M201.083,597.465c-0.625-3.139-0.887-7.824,0.494-8.436
		c1.738-0.777,9.793-0.141,15.121,0.281c1.595,0.125,3.003,0.234,4.033,0.295c1.055,0.059,2.499,0.119,4.128,0.188
		c5.247,0.219,13.174,0.551,14.835,1.234c0.9,0.369,1.397,0.85,1.566,1.508c0.363,1.416-0.731,3.764-3.223,6.963
		c-6.876-0.422-16.39-1.23-20.377-1.344C213.571,598.037,205.86,597.688,201.083,597.465z M242.291,592.271
		c-0.257-0.998-0.973-1.725-2.191-2.227c-1.696-0.699-7.885-1.008-15.195-1.312c-1.623-0.07-3.062-0.129-4.112-0.189
		c-1.024-0.059-2.425-0.168-4.011-0.293c-7.47-0.588-13.8-1.008-15.637-0.193c-2.51,1.115-1.504,7.504-1.154,9.357
		c-1.855-0.088-3.06-0.146-3.06-0.146s-0.708-5.404,0.71-7.885c1.417-2.48,3.454-4.338,4.252-4.428
		c0.797-0.09,5.759,0.09,7.264,0.266s28.348,1.506,31.183,1.594s9.834,0.354,9.834,0.354s1.594,2.834,1.062,5.139
		c-0.531,2.303-3.366,6.82-5.581,7.352c-0.699,0.17-3.136,0.098-6.334-0.084C241.739,596.346,242.721,593.943,242.291,592.271z
		 M228.203,584.6c-0.975-0.09-11.34-0.441-13.466-0.531c-1.173-0.049-3.315-0.152-5.196-0.295c-1.188-3.02-2.237-7.564-0.879-8.32
		c2.138-1.188,6.515-1.293,9.907-0.867c3.214,0.402,20.562,1.467,23.161,1.598c1.645,0.082,3.977,1.104,4.83,2.492
		c0.331,0.535,0.383,1.041,0.159,1.545c-0.744,1.676-2.69,3.945-3.682,5.043C237.444,585.02,228.878,584.662,228.203,584.6z
		 M196.489,581.234c-0.887,1.242-0.682-2.168-0.178-4.783c0.887-4.607,3.543-10.631,5.847-17.365
		c2.304-6.73,12.226-22.678,12.226-22.678c1.062-0.887,2.677-2.977,3.013-2.305c0.354,0.711-4.076,9.924-5.671,13.289
		S197.375,579.994,196.489,581.234z M200.298,599.127c3.277,0.266,18.868,0.887,25.158,1.152s16.922,0.797,18.161,2.217
		c1.24,1.416,2.924,4.428,1.329,6.377c-1.595,1.947-2.657,2.746-4.43,3.012c-0.46,0.068-2.533-0.029-5.265-0.209
		c0.54-0.717,1.282-1.791,2.181-3.332c1.033-1.773,0.759-3.004,0.345-3.723c-0.595-1.035-1.816-1.594-2.664-1.594
		c-0.437,0-3.194-0.27-6.115-0.555c-4.053-0.396-9.096-0.889-11.66-1.039c-2.447-0.145-14.851-0.836-18.696-0.396
		c-0.789,0.092-1.435,0.465-1.918,1.113c-1.365,1.826-1.004,5.385-0.854,6.482c-2.198-0.127-3.635-0.203-3.635-0.203
		s-0.265-5.316,0.887-7.441C194.273,598.861,197.021,598.861,200.298,599.127z M196.956,608.695
		c-0.202-1.234-0.454-4.475,0.619-5.908c0.306-0.41,0.695-0.637,1.189-0.693c3.756-0.436,16.078,0.258,18.511,0.4
		c2.544,0.15,7.576,0.643,11.62,1.035c3.659,0.357,5.752,0.561,6.218,0.561c0.396,0,1.312,0.311,1.742,1.061
		c0.398,0.693,0.283,1.588-0.341,2.658c-1.158,1.984-2.051,3.176-2.545,3.781c-6.139-0.426-14.576-1.156-16.397-1.387
		C213.729,609.713,203.162,609.057,196.956,608.695z M243.617,618.264c0.329-3.295-1.062-4.605-1.062-4.605s4.074-2.836,4.429-6.023
		c0.365-3.291-1.24-5.139-1.24-5.139s6.201-4.254,7.087-9.393c0.543-3.146-1.063-6.73-1.063-6.73s1.475-1.451,1.95-2.48
		c1.062-2.303,1.595-4.785,1.595-4.785l11.338,18.248c0,0-11.693,18.783-12.047,20.023c-0.354,1.24-2.304,2.656-4.075,3.012
		c-1.771,0.354-10.276,6.379-10.276,6.379l-1.595-0.887l-0.178-1.062C238.479,624.82,243.086,623.58,243.617,618.264z
		 M257.438,571.578c-0.825,1.27-5.557,0.945-8.795,0.66c1.387-1.516,3.73-4.213,4.497-5.938c0.245-0.551,0.104-0.971-0.056-1.223
		c-0.77-1.217-3.745-1.377-8.198-1.48c-1.391-0.031-2.704-0.062-3.599-0.166c-1.604-0.186-5.184-0.256-8.974-0.33
		c-4.477-0.09-9.104-0.182-10.8-0.463c-0.882-0.148-1.713-0.346-2.518-0.539c-2.054-0.492-3.993-0.959-5.869-0.23
		c-2.52,0.98-1.794,6.621-1.569,8.035c-1.163-0.074-1.976-0.141-2.046-0.188c-0.267-0.178-0.654-1.258-1.329-3.012
		c-0.443-1.15-0.09-3.543-0.09-3.543c1.595-3.455,4.707-3.041,6.291-2.836c2.036,0.266,16.389,0.975,19.666,1.062
		c3.277,0.09,18.338,0.887,18.958,0.977c0.619,0.088,4.341,1.859,5.139,3.275C258.943,567.059,258.589,569.807,257.438,571.578z
		 M251.906,560.533c-6.431-0.25-31.011-1.232-34.816-1.852c-0.375-2.082-0.65-5.34,0.066-6.326c0.131-0.18,0.253-0.215,0.346-0.227
		c1.594-0.186,5.742,0.193,9.075,0.5c1.28,0.117,2.479,0.229,3.447,0.301c2.141,0.156,7.448,0.221,12.132,0.275
		c3.132,0.037,5.836,0.07,6.745,0.123c0.385,0.021,0.895,0.021,1.47,0.021c1.858,0,4.972,0,5.653,1.01
		c0.062,0.092,0.252,0.371-0.011,1.031C254.92,558.123,252.41,560.145,251.906,560.533z M253.484,560.594
		c1.061-0.963,2.657-2.662,3.516-4.809c0.314-0.785,0.281-1.465-0.096-2.023c-0.998-1.475-4.198-1.475-6.533-1.475
		c-0.571-0.01-1.038,0.002-1.407-0.02c-0.935-0.057-3.65-0.088-6.796-0.125c-4.437-0.053-9.958-0.117-12.065-0.275
		c-0.962-0.07-2.154-0.18-3.428-0.297c-3.558-0.328-7.591-0.699-9.298-0.496c-0.432,0.049-0.806,0.277-1.081,0.656
		c-1.04,1.434-0.586,5.115-0.313,6.771c-1.272-0.207-2.942-0.684-2.662-3.137c0.354-3.1,1.595-5.936,3.898-6.379
		s11.605,0,16.743,0.355c5.138,0.354,25.247,1.33,25.247,1.33s4.695,0.086,4.695,3.541s-1.859,6.113-3.897,6.469
		C258.051,561.021,253.822,560.627,253.484,560.594z M223.524,539.852c2.001-1.004,5.095-0.123,7.352,0.52l0.64,0.182
		c1.834,0.51,7.83,0.564,13.12,0.615c1.857,0.016,3.623,0.033,5.082,0.068c1.106,0.025,2.312-0.002,3.478-0.029
		c3.263-0.076,6.961-0.162,7.898,1.09c0.278,0.371,0.308,0.885,0.089,1.568c-0.653,2.057-2.3,4.219-3.122,5.217
		c-7.245-0.502-17.608-1.191-20.733-1.248c-3.166-0.055-10.156-0.328-14.8-0.518C222.165,544.561,222.143,540.543,223.524,539.852z
		 M259.354,549.172c0.923-1.186,2.24-3.094,2.843-4.984c0.325-1.02,0.239-1.871-0.252-2.529c-1.266-1.688-4.915-1.604-8.773-1.514
		c-1.152,0.027-2.344,0.055-3.429,0.029c-1.461-0.035-3.233-0.051-5.097-0.068c-4.966-0.047-11.146-0.105-12.845-0.576l-0.634-0.18
		c-2.425-0.691-5.748-1.635-8.118-0.449c-2.239,1.119-1.854,6.275-1.598,8.371c-2.054-0.084-3.436-0.145-3.436-0.145
		s-0.443-4.871,1.683-8.15c2.127-3.277,4.341-4.074,7.176-4.074c2.836,0,13.021,1.152,18.692,1.418
		c5.67,0.266,19.845,0.797,21.351,1.416c1.505,0.621,3.986,4.254,2.923,6.291c-1.062,2.037-4.342,5.58-4.342,5.58
		S262.942,549.424,259.354,549.172z M233.7,525.789c2.122-0.771,4.311-0.498,7.082-0.152c0.867,0.107,1.79,0.223,2.785,0.316
		c2.293,0.215,7.476,0.471,12.05,0.695c3.935,0.193,7.651,0.377,8.807,0.5c0.303,0.031,0.627,0.059,0.962,0.088
		c1.448,0.125,3.637,0.314,4.002,1.016c0.104,0.199,0.041,0.5-0.186,0.891c-0.938,1.621-2.809,3.727-4.046,5.121
		c-0.597,0.672-0.947,1.068-1.137,1.326c-8.469-0.377-31.074-1.59-32.624-1.662l0.525-0.055
		C231.712,531.881,231.625,526.545,233.7,525.789z M267.183,535.699c-0.114,0.012-0.775-0.008-1.829-0.053
		c0.184-0.209,0.389-0.441,0.598-0.676c1.266-1.426,3.179-3.58,4.171-5.295c0.421-0.727,0.491-1.371,0.208-1.914
		c-0.635-1.221-2.779-1.404-4.854-1.584c-0.328-0.029-0.646-0.057-0.94-0.086c-1.186-0.125-4.745-0.303-8.867-0.504
		c-4.562-0.227-9.733-0.48-12.002-0.693c-0.983-0.094-1.896-0.207-2.754-0.312c-2.912-0.363-5.213-0.65-7.576,0.209
		c-3.154,1.146-2.586,8.059-2.48,9.117c-1.897-0.059-4.689-0.115-5.577-2.373c-0.975-2.48,2.304-5.846,2.304-5.846
		c1.418-1.418,2.924-2.748,4.429-3.102c1.506-0.355,11.96,0.354,16.655,0.443c4.695,0.088,24.45,1.596,27.64,2.658
		c3.303,1.1,1.329,3.631-0.354,6.111C274.27,534.281,268.068,535.609,267.183,535.699z M236.778,515.826
		c0.084-0.096,0.146-0.104,0.195-0.104c0.667,0,3.049,0.07,6.064,0.158c5.322,0.158,12.613,0.373,16.26,0.373
		c6.044,0,15.932,1.119,17.303,1.805c0.302,0.152,0.46,0.365,0.494,0.672c0.082,0.744-0.587,1.926-1.523,2.693
		c-0.826,0.678-1.438,1.303-1.833,1.742c-1.196-0.104-2.331-0.225-3.278-0.312c-3.81-0.355-16.034-0.975-20.021-1.15
		c-1.943-0.088-5.636-0.154-9.185-0.281c0.063-0.383,0.12-0.887,0.07-1.287c-0.094-0.746-0.652-2.701-2.142-2.701
		c-1.228,0-1.317,2.838-1.312,3.842c-0.506-0.029-0.991-0.059-1.454-0.09C236.198,519.312,236.167,516.521,236.778,515.826z
		 M174.519,631.551c-0.355,1.242,0.532,2.658,0.532,2.658s-7.796-2.303-8.505,2.305c-0.708,4.605,1.063,9.035,0.708,9.566
		c-0.709,1.062-5.315-5.314-3.012-11.871c2.629-7.486,11.693-4.605,11.693-4.605S174.874,630.311,174.519,631.551z M189.085,653.346
		c-0.538-0.613-1.739-1.861-2.516-1.719c-0.754,0.135-0.8,1.176-0.772,1.719h-2.526c-0.03-0.104-0.064-0.217-0.104-0.348
		c-0.309-1-0.883-2.867-0.396-3.646c0.077-0.125,0.223-0.295,0.601-0.354c1.348-0.215,7.282,0.201,13.021,0.602
		c4.757,0.332,9.677,0.674,12.794,0.732c0.413,0.012,10.165,0.268,13.608-0.002c3.171-0.234,4.301,0.508,4.581,3.016h-5.566
		c-0.098-0.801-0.387-2.035-1.253-2.281c-1.077-0.311-1.264,1.605-1.297,2.281H189.085z M228.447,653.346
		c-0.32-3.172-1.982-4.365-5.732-4.074c-3.389,0.26-13.398,0.002-13.504-0.002c-3.095-0.059-8-0.4-12.744-0.732
		c-6.326-0.439-11.79-0.82-13.261-0.59c-0.589,0.094-1.051,0.385-1.336,0.842c-0.744,1.191-0.127,3.197,0.28,4.521
		c0.003,0.012,0.007,0.023,0.01,0.035h-3.212c0,0-2.834-3.365-2.48-5.139c0,0-0.886-3.279,2.48-3.1
		c3.366,0.176,18.249,1.328,23.563,1.594c5.315,0.266,16.125,1.24,20.022,1.062c3.896-0.178,9.036,1.15,10.364,2.127
		c1.329,0.975,2.393,3.455,2.393,3.455H228.447z M237.416,653.521c-0.178-2.656-3.012-5.314-3.012-5.314s1.417-1.947,1.771-3.543
		c0.355-1.594,0.354-2.48-0.177-4.783c-0.532-2.303-1.241-2.836-1.241-2.836s1.757-2.045,3.013-3.014
		c1.151-0.883,1.949-2.736,1.949-3.455c5.281-2.086,15.592-10.361,15.592-10.361l3.188,0.531l12.934-23.387
		c0,0,6.024,9.92,7.087,11.869c1.063,1.947,1.418,3.365,0.71,5.492c-0.708,2.125-7.619,18.604-8.328,20.377
		c-0.709,1.771-0.354,4.959,0.354,5.137s26.045,1.594,26.045,1.594l6.91,11.693H237.416z M305.984,653.17l-5.493-9.746l12.579-6.732
		l8.505,16.479H305.984z M336.458,632.615c1.062,3.898,1.595,7.975,0.354,12.227c-1.239,4.252-7.796,8.148-7.796,8.148h-4.961
		l-9.213-17.008l18.249-11.516C333.092,624.467,335.395,628.719,336.458,632.615z M318.741,582.828c0,0-7.265,5.139-8.15,5.139
		c-0.887,0-1.595-0.709-1.595-0.709s-15.591-35.789-15.769-36.498s0.886-1.594,0.886-1.594l11.871-6.025L318.741,582.828z
		 M294.998,515.148c0,0,11.34,26.221,10.809,26.221s-12.226,5.314-13.466,6.201c-1.24,0.885-0.708,4.254-0.708,4.254
		s15.237,36.143,16.122,37.561c0.886,1.418,3.367,0.354,3.367,0.354l8.327-4.605c0,0,13.11,34.727,13.288,35.967
		s-1.063,1.77-1.063,1.77s-1.417,1.064-2.479,1.773c-1.063,0.709-28.172,16.83-29.059,16.83c-0.886,0-1.948-1.416-1.948-1.416
		l-38.447-69.277c1.771-4.252-0.708-6.91-0.708-7.793c2.126-0.711,4.961-2.305,5.669-3.721c1.583-3.172,0.886-5.672,0.531-6.734
		c-0.354-1.062,2.48-2.658,3.544-3.896c1.504-1.756,3.366-4.785,2.835-6.734c-0.513-1.879-1.061-3.738-0.886-4.607
		c0.178-0.885,3.897-2.125,6.91-4.959c3.901-3.67,2.126-6.379,2.126-6.379s4.429-2.303,5.847-3.896
		c1.418-1.596,0.531-5.494,0.531-5.494s1.063-1.24,1.771-1.24s1.595-1.949,3.544-2.303
		C293.405,512.666,294.998,515.148,294.998,515.148z M292.454,507.746c1.483,0.229,0,2.398-0.686,3.08
		c-0.685,0.686-2.853,2.17-3.424,2.057c-0.57-0.115-6.62,0-9.016,0c-0.305,0-1.131-0.014-2.34-0.035l5.05-5.158
		C287.566,507.654,291.885,507.658,292.454,507.746z M256.501,507.975c4.387-0.066,15.352-0.211,24.041-0.275l-5.012,5.119
		c-8.786-0.172-29.623-0.648-34.008-0.725l0.276-4.045C245.706,507.979,251.563,508.049,256.501,507.975z M240.731,508.072
		l-0.274,4.01c-1.796-0.025-5.863-0.271-5.755-1.027c0.114-0.799,2.967-2.738,2.967-2.738
		C238.118,508.189,239.227,508.115,240.731,508.072z M246.674,470.012c-1.462,0.93-2.79,7.574-3.854,11.561
		s-2.924,13.154-3.588,15.812s-3.721,10.365-4.651,10.631c-0.93,0.266-3.188,0-4.252-0.133c-1.062-0.133-2.259-0.133-2.126-1.594
		c0.133-1.463,9.302-27.375,10.365-31.627c1.062-4.252,2.259-6.777,0.797-11.295s-11.826-9.168-20.995-10.365
		c-9.169-1.195-18.471,4.385-18.471,4.385s1.993-5.846,4.916-13.686c2.924-7.84,12.358-31.76,12.358-31.76
		c2.524-4.518,6.245-5.58,14.617-5.58c10.764,0,17.009,2.922,21.66,6.244c5.419,3.871,7.973,8.639,7.973,8.639l0.266,2.391
		c0,0-1.86,0.266-3.986,0.133s-3.588,0.531-3.588,0.531s-7.441,20.996-7.574,22.059c-0.133,1.064,1.86,3.588,3.189,3.986
		c1.328,0.4,4.252,0.799,4.252,0.799l-0.133,1.062c0,0-0.798,0-2.126,0c-1.329,0-2.791-0.93-3.721-0.664
		c-0.931,0.266-3.057,4.916-3.721,6.777c-0.665,1.859-0.665,4.518-0.398,5.846c0.266,1.33,5.049,4.252,5.049,4.252
		S248.136,469.082,246.674,470.012z M254.565,404.807c-0.988,1.086-2.18,2.707-2.965,3.816c-1.92-0.93-3.584-1.648-4.13-2.262
		c-0.44-0.496,0.798-1.33,1.993-1.729c0.657-0.219,1.028-0.715,1.233-1.121C251.822,404.047,253.178,404.562,254.565,404.807z
		 M248.788,378.275c-0.419-0.08-1.079-0.296-1.583-0.883c-0.797-0.93,0.931-3.588,1.728-4.65c0.798-1.063,2.393-4.386,2.658-5.448
		c0.266-1.063,1.195-0.798,1.328,0c0.133,0.797,0.931,2.524,0.931,2.524c0.075,0.076,0.141,0.123,0.212,0.185
		C253.727,371.403,252.57,374.687,248.788,378.275z M256.64,456.324c1.462,1.461-2.392,7.973-2.79,8.371s-0.665,0.531-1.728-0.398
		c-1.063-0.93-3.189-1.859-3.189-2.391c0-0.533,2.924-7.441,2.924-7.441C253.451,453.799,255.179,454.863,256.64,456.324z
		 M265.145,431.342c-0.398,1.861-3.986,12.094-4.784,14.219c-0.797,2.127-2.126,3.721-4.119,3.455s-1.595-2.658-1.329-4.119
		c0.267-1.461,6.379-17.939,6.379-17.939c0.398-1.062,1.196-0.531,2.657,0.398C265.41,428.287,265.543,429.482,265.145,431.342z
		 M267.138,412.207c0.398,1.861-1.728,6.777-2.524,7.973c-0.798,1.197-1.329,0.133-1.86-0.531c-0.532-0.664-3.451-5.729-5.714-7.707
		c-1.285-1.125-2.914-2.053-4.473-2.84c1.141-1.598,2.557-3.449,3.338-4.154c0.467,0.014,0.931-0.01,1.381-0.09
		c2.671-0.486,4.886,0.393,5.879,0.896c-0.071,0.574,0.001,1.084,0.386,1.404C264.348,407.822,266.739,410.348,267.138,412.207z
		 M263.683,403.836c-0.091,0.273-0.188,0.561-0.275,0.848c-1.213-0.578-3.526-1.379-6.312-0.873
		c-0.404,0.074-0.824,0.092-1.25,0.076l-0.072-0.146c-0.064,0.031-0.137,0.08-0.21,0.133c-1.697-0.129-3.47-0.84-4.812-1.518
		c-0.081-0.389-0.092-0.9,0.275-1.27c0.665-0.664,1.627-0.307,1.76-1.768c0.072-0.793,0.454-1.305,0.791-1.613
		c0.406,0.215,0.818,0.377,1.167,0.434c0.875,0.146,3.394,0.326,5.615,0.484c1.033,0.072,2.016,0.143,2.546,0.191
		c0.316,0.768,1.631,1.703,1.796,3.027C264.878,403.26,263.683,403.836,263.683,403.836z M264.613,392.009
		c0.62,1.152-0.443,3.721-1.151,4.342c-0.441,0.386-0.624,0.877-0.67,1.385c-0.552-0.047-1.383-0.105-2.356-0.174
		c-2.09-0.148-4.69-0.334-5.517-0.471c-0.278-0.047-0.577-0.182-0.867-0.34c-0.018-0.161-0.04-0.358-0.069-0.623
		c-0.016-0.14-0.019-0.256-0.015-0.359c3.522-0.596,7.533-2.771,7.719-2.872l-0.511-0.933c-0.043,0.023-3.631,1.973-6.859,2.659
		c-0.226-0.697-0.557-1.854-0.467-2.481c0.006-0.04,0.015-0.066,0.021-0.103c0.112,0.003,0.233,0.005,0.369,0.005
		c1.304,0,3.645-0.18,5.62-1.297c1.116-0.63,1.943-1.137,2.55-1.523C262.884,389.762,264.09,391.04,264.613,392.009z
		 M263.727,383.86c0.354,1.15-0.442,2.568-1.151,3.189c-0.277,0.241-0.416,0.551-0.476,0.854c-0.592,0.39-1.521,0.973-2.867,1.733
		c-1.821,1.028-4.084,1.143-5.209,1.126c-0.041-0.132-0.094-0.282-0.174-0.481c-0.05-0.127-0.092-0.236-0.127-0.335
		c2.536-1.59,6.314-5.582,7.962-7.386C262.319,382.927,263.42,382.863,263.727,383.86z M260.803,377.658
		c0.089,0.887,0.266,2.039,0.178,2.747c-0.046,0.364-0.063,0.706-0.002,1.036c-1.489,1.637-5.595,6.029-8.055,7.491
		c-0.542-0.218-1.231-0.542-1.599-0.909c-0.665-0.665,0-1.462,0-2.259c0-0.081-0.004-0.153-0.007-0.225
		c1.165-1.122,6.339-6.177,8.286-9.268C260.278,376.634,260.723,376.859,260.803,377.658z M256.816,370.748
		c1.329,0.444,1.418,1.419,1.24,2.571c-0.116,0.754,0.151,1.542,0.571,2.124c-1.443,2.397-5.807,6.858-7.966,8.956
		c-0.146-0.11-0.316-0.227-0.533-0.362c-1.063-0.665-0.798-3.057-0.931-3.987c-0.019-0.126-0.031-0.25-0.039-0.37
		c4.222-3.802,5.621-7.348,6.082-9.12C255.681,370.594,256.13,370.52,256.816,370.748z M266.074,360.383
		c-4.252,0.133-7.175,0.531-9.7,0.664c-2.524,0.133-5.448-2.126-5.448-2.126s12.226-0.133,13.688-0.398
		c1.461-0.266,1.195-3.854-0.532-6.112c-1.728-2.26-2.392-7.575-3.188-13.555c-0.798-5.979,2.392-9.833,2.392-9.833l-20.065-0.266
		c1.196-1.86,3.455-4.385,5.183-4.917c1.728-0.531,21.66-0.797,21.66-0.797s-4.253,12.491-3.854,19.401
		c0.398,6.91,5.847,15.813,6.776,16.876C273.915,360.383,270.327,360.25,266.074,360.383z M279.363,356.264
		c-0.798,1.461-1.595,3.854-4.253,2.657c-2.657-1.196-5.847-12.491-5.847-12.491c-0.133-2.126,3.841,4.221,5.847,5.448
		c2.393,1.462,5.581,0.398,5.581,0.398S280.16,354.802,279.363,356.264z M279.496,345.102c-2.525,0-3.854-3.986-3.854-3.986
		c-0.133-1.728,0-3.322,0.664-4.518s2.79,0.133,2.79,0.93s2.393,4.252,2.791,5.315S282.021,345.102,279.496,345.102z
		 M295.841,347.095c-1.86,0.133-7.309-0.266-7.309-0.266s-2.924-1.063-4.12-3.455c-1.195-2.392-15.547-32.955-16.078-34.151
		c-0.532-1.196,0.266-2.126,1.728-1.727c1.461,0.398,3.455,3.189,5.714,3.322s9.169,0,9.169,0s7.441,18.604,8.504,22.059
		c1.063,3.455,3.721,10.365,3.721,10.365S297.701,346.962,295.841,347.095z M306.471,327.428c0.532,1.728,0.133,3.056-0.531,3.854
		s-4.917,10.232-5.979,10.764c-1.063,0.531-3.455-6.644-4.519-9.966c-1.062-3.322-8.105-21.926-8.105-21.926
		s6.378-3.721,8.238-3.721s2.658,0,3.854,3.189C300.624,312.811,306.471,327.428,306.471,327.428z M325.074,270.422
		c1.196,0,3.545,1.813,4.386,6.378c0.93,5.05-1.462,9.302-3.057,8.903c-1.595-0.398-3.588-3.322-3.854-8.637
		C322.284,271.75,323.879,270.422,325.074,270.422z M308.729,277.996c-0.266-2.392,1.196-5.05,1.196-5.05l9.169-1.063
		c0,0,0.266,1.86,0.398,5.581s5.448,9.966,5.448,9.966s-12.757,7.574-16.078,9.435c-3.322,1.86-10.631,5.315-11.827,4.917
		c-1.195-0.398-1.86-2.126-2.524-4.651c-0.665-2.524,1.329-4.651,1.329-4.651l13.022-10.63
		C308.863,281.85,308.996,280.388,308.729,277.996z M329.327,209.827c-1.196,1.462-11.694,18.205-13.022,20.065
		c-1.329,1.86-13.422,24.716-15.415,28.703c-1.993,3.986-5.183,11.295-5.183,11.295s-8.504,1.196-12.225-1.728
		c-1.595-1.253-1.329-3.189-0.266-5.183c1.062-1.993,17.673-34.15,17.673-34.15l-5.049-4.917c0,0,13.022-18.338,14.616-21.128
		c1.595-2.791,2.127-5.847,2.127-5.847c1.86-0.665,1.657,2.766,8.77,5.315c7.043,2.525,11.029,1.196,11.694,1.86
		C333.712,204.778,330.522,208.366,329.327,209.827z M337.433,193.749c-0.664-0.133-2.791-6.113-6.378-5.98
		c-3.588,0.133-7.176,6.91-7.575,7.575c-0.398,0.664-0.93,3.455-2.126,3.056c-1.195-0.399-0.133-3.056-0.133-3.056
		c1.196-4.252,7.176-12.757,12.491-12.226C338.348,183.582,338.097,193.881,337.433,193.749z M328.928,145.512
		c1.567,7.049,4.784,34.948,4.784,34.948s-3.721-0.398-6.777,2.126c-2.291,1.893-7.574,7.973-7.574,7.973
		s-1.595-43.984-1.728-49.698c-0.133-5.714-1.195-14.352-1.195-14.352l7.176-3.189C323.613,123.321,327.067,137.141,328.928,145.512
		z M329.194,115.48c1.993-0.93,1.727,1.462,1.461,3.189s-0.664,1.86-2.126,1.86s-7.309,0.266-9.966,1.063
		c-2.658,0.797-7.309,4.917-8.239,5.049c-0.93,0.133-3.588-0.133-3.986-2.259s6.379-3.588,10.365-4.252
		C320.689,119.467,329.194,115.48,329.194,115.48z M334.509,81.596c-1.842,3.395-8.504,13.687-9.302,13.687
		c-0.797,0-1.993-1.461-3.721-1.594s-3.854,1.196-4.385,1.196s-0.398-1.595,0.931-4.252c1.328-2.657,11.162-21.128,11.162-21.128
		c2.259-3.721,5.793-2.99,6.776-0.532C337.034,71.629,337.034,76.945,334.509,81.596z M351.252,57.145
		c-0.531,0.93-8.77,8.372-9.435,9.169c-0.664,0.797-1.594,3.189-2.259,3.056c-0.664-0.133-0.266-1.594-1.329-3.189
		c-1.062-1.595-3.321-1.86-3.321-1.86s4.119-3.189,6.112-4.651s8.371-7.84,8.371-7.84c1.196-0.531,1.86,1.329,1.994,2.259
		C351.519,55.019,351.784,56.215,351.252,57.145z M352.448,37.346c-0.797,0.266-2.259,0.133-3.854-0.797s-0.93-5.847-0.93-5.847
		c1.727-3.721,4.518-5.714,6.511-4.385c1.504,1.002,1.462,3.721,1.196,4.917C355.106,32.429,353.246,37.08,352.448,37.346z
		 M359.093,50.634c-0.133,2.658-0.399,4.518-2.924,5.05c-2.524,0.531-2.79-2.791-2.657-5.183s3.721-3.322,3.721-3.322
		C358.693,47.046,359.219,48.098,359.093,50.634z M358.693,41.066c-1.062,1.461-5.182,5.714-5.714,5.049
		c-0.531-0.664,0.399-2.658,1.063-4.385c0.664-1.728,2.524-8.106,2.524-8.106c1.329-0.93,1.993,0.133,3.057,1.595
		C360.688,36.681,359.757,39.604,358.693,41.066z M365.072,29.505c-0.664,1.196-3.322,4.12-3.322,4.12s-2.392-0.532-2.79-3.721
		c-0.399-3.189,2.79-5.183,2.79-5.183c1.86-0.398,3.189,0.266,3.721,0.665S365.736,28.31,365.072,29.505z"/>
	<path d="M128.674,173.285c4.252,1.594,9.966,1.461,12.624,0.531s6.91-5.315,6.777-9.833c-0.16-5.448-2.216-11.344-7.043-12.757
		c-5.448-1.595-8.239-1.196-12.358,1.728c-1.152,0.817-4.12,5.182-4.518,9.435C123.757,166.64,124.178,171.599,128.674,173.285z
		 M131.199,154.681c1.196-0.665,2.525-1.329,4.651-0.532c2.126,0.797,2.126,3.986,1.462,5.049c-0.38,0.607-1.595,0.399-2.259-0.398
		c-0.664-0.797-1.993-1.86-1.993-1.86s0,3.455-0.266,3.986c-0.266,0.532-2.525,0.93-3.588-1.329
		C128.143,157.338,130.003,155.345,131.199,154.681z"/>
	<path d="M196.312,171.956c4.65-1.329,9.173-6.209,8.238-13.953c-0.93-7.707-6.511-9.435-10.63-9.302
		c-4.119,0.133-6.644,2.525-7.574,3.189c0,0-5.315,3.986-3.854,11.693C183.953,171.292,191.661,173.285,196.312,171.956z
		 M188.87,152.688c1.196-0.93,2.657-2.126,4.385-1.993s2.525,4.252,0.532,5.581c-0.864,0.576-4.12-0.664-4.12-0.664
		s0.133,1.594,0.266,2.392c0.201,1.208-1.86,1.993-3.189,0.133C185.415,156.275,187.674,153.618,188.87,152.688z"/>
	<path d="M154.613,179.256c0,0,3.1,0.138,5.581,0.138c2.481,0,21.154-0.138,21.706-0.138s0.688-1.447,0-1.584
		c-0.688-0.138-25.564-0.208-25.564-0.208L154.613,179.256z"/>
	<path d="M38.314,154.814c-0.266-3.455-1.329-7.309-2.923-6.644c-1.595,0.664-1.063,6.777-0.93,9.435c0,0,1.86,9.036,3.721,8.77
		S38.58,158.269,38.314,154.814z"/>
	<path d="M20.551,85.139c0,0-0.53,1.594-0.353,2.835c0.177,1.24,1.594,2.126,1.948,1.151c0.355-0.974,0.355-2.834-0.087-3.366
		C21.614,85.228,21.26,84.342,20.551,85.139z"/>
	<path d="M35.258,143.652c0.93,0,0.797-4.518,0.133-7.441c-0.665-2.924-1.329-5.315-1.993-5.315c-0.665,0-1.196,4.385-0.532,7.309
		C33.603,141.446,34.328,143.652,35.258,143.652z"/>
	<path d="M38.846,172.088c-0.93-0.133-1.329,5.05-0.665,9.169c0.665,4.12,1.728,6.246,2.525,6.246c0.797,0,1.993-3.721,1.063-8.372
		S39.387,172.166,38.846,172.088z"/>
	<path d="M40.662,83.811c0,0-0.178,3.809,0.708,3.277c0.887-0.532,1.241-1.505,1.152-2.48c-0.089-0.975-0.531-1.063-1.063-1.152
		C40.928,83.367,40.662,83.279,40.662,83.811z"/>
	<path d="M25.07,92.226c-1.595-0.885-1.241-1.24-2.126-0.708c0,0-1.151,1.506,0,2.569s3.367,2.746,3.632,2.126
		C26.842,95.593,26.665,93.112,25.07,92.226z"/>
	<path d="M41.459,81.418c0.532-0.443-0.089-2.038-0.71-2.569c-0.619-0.532-0.266-0.443-0.974-0.443c0,0-0.532,1.152-0.266,1.684
		C39.776,80.621,40.928,81.862,41.459,81.418z"/>
	<polygon points="156.389,184.377 156.629,185.584 161.939,185.584 161.819,184.136 	"/>
	<polygon points="163.508,185.222 167.369,185.463 167.369,184.136 163.266,184.015 	"/>
	<polygon points="174.006,183.653 169.662,184.015 169.662,185.343 174.127,185.101 	"/>
	<polygon points="179.678,184.86 179.557,183.291 175.333,183.653 175.696,184.98 	"/>
	<path d="M219.167,411.5l-11.871,32.068c0,0,3.365,3.721,3.721,4.252s10.1,0.176,10.1,0.176l11.339-32.955l-3.721-5.137
		L219.167,411.5z M215.978,441.973l-7.087,0.887l10.808-29.59l7.974-1.238L215.978,441.973z"/>
	<path d="M224.313,378.878c-0.007-0.038-0.655-3.818-0.655-5.34c0-1.123-2.146-6.534-4.738-12.961
		c-0.831-2.06-1.549-3.84-1.667-4.231c-0.398-1.33-5.763-16.146-5.99-16.777l-0.157-0.433l-9.576,0.266l-3.584-9.336
		c-0.045-0.088-1.109-2.18-2.905-2.343c-0.173-0.016-0.443-0.024-0.787-0.024c-2.557,0-9.711,0.425-10.778,0.558
		c-0.265,0.03-0.464-0.015-0.656-0.061c-0.367-0.086-0.778-0.07-1.02,0.199c-0.276,0.305-0.258,0.734-0.209,1.222l0.042,0.172
		c0.044,0.11,4.399,11.075,6.231,16.833c1.838,5.777,9.254,24.884,10.255,27.17c0.214,0.49,0.441,1.079,0.682,1.696
		c1.152,2.977,1.94,4.794,3.154,4.929c0.079,0.008,0.19,0.014,0.329,0.014c0.825,0,2.771-0.178,5.025-0.385
		c3.183-0.292,6.853-0.635,8.372-0.556c2.773,0.132,7.951,0.133,8.004,0.133h0.757L224.313,378.878z M215.742,378.216
		c-1.597-0.073-5.312,0.264-8.549,0.561c-2.131,0.195-4.143,0.38-4.909,0.38c-0.079,0-0.143-0.002-0.184-0.006
		c-0.572-0.15-1.611-2.832-2.111-4.122c-0.246-0.635-0.481-1.242-0.701-1.746c-0.997-2.277-8.379-21.296-10.209-27.045
		c-1.71-5.376-5.589-15.222-6.183-16.725c0.206,0.031,0.456,0.046,0.738,0.011c0.891-0.112,8.031-0.548,10.621-0.548
		c0.293,0,0.523,0.005,0.67,0.019c0.901,0.082,1.664,1.215,1.854,1.586l3.883,10.122l9.559-0.266
		c0.909,2.513,5.46,15.104,5.812,16.277c0.127,0.427,0.701,1.855,1.704,4.342c1.624,4.024,4.647,11.517,4.647,12.483
		c0,1.208,0.354,3.592,0.55,4.809C221.394,378.341,217.854,378.317,215.742,378.216z"/>
	<path d="M177.629,368.64l0.316-0.054c0.217-0.036,1.163-0.107,2.166-0.184c5.825-0.44,6.497-0.604,6.817-0.925
		c0.996-0.995-0.084-5.731-0.096-5.779c-0.539-2.291-7.25-22.133-7.866-23.736c-0.715-1.859-1.528-3.373-5.166-3.063
		c-1.663,0.138-3.729,0.243-5.388,0.326c-1.574,0.08-2.815,0.143-3.287,0.21c-0.885,0.126-2.779,0.126-4.162,0.126h-0.498
		l-0.121,0.483c-0.031,0.126-0.281,1.325,0.673,4.46c0.366,1.202,1.332,3.388,2.554,6.157c1.918,4.344,4.306,9.752,5.279,13.484
		c1.532,5.872,3.349,8.849,5.401,8.849C175.588,368.994,176.816,368.782,177.629,368.64z M174.031,367.684
		c-0.096-0.912-0.101-2.179,0.231-2.71c0.247-0.396,1.751-0.562,2.948-0.641l-0.069,0.253c0.434,0.118,0.438,1.525,0.171,2.813
		c-0.807,0.14-1.879,0.318-3.059,0.318C174.196,367.718,174.12,367.709,174.031,367.684z M168.478,336.499
		c1.668-0.084,3.746-0.189,5.43-0.329c2.731-0.222,3.245,0.624,3.87,2.252c0.612,1.592,7.28,21.301,7.814,23.57
		c0.509,2.161,0.551,4.101,0.452,4.53c-0.801,0.215-4.301,0.479-6.028,0.609c-0.567,0.042-1.011,0.076-1.371,0.105
		c0.146-0.865,0.248-2.109-0.142-2.97c0.406-0.017,0.763-0.034,1.004-0.061c0.361-0.04,0.66-0.21,0.864-0.489
		c0.515-0.708,0.265-1.934-0.025-3.353c-0.104-0.512-0.212-1.036-0.277-1.527c-0.146-1.1-0.419-3.145,0.121-3.505
		c0.97-0.646,0.482-2.511-0.371-5.281c-0.119-0.384-0.224-0.729-0.298-0.998c-0.137-0.5-0.468-0.828-0.935-0.925
		c-1.395-0.274-3.516,1.842-3.768,2.156c-0.607,0.762-2.747,2.379-3.293,2.318c-0.3-0.186-0.652-1.612-0.884-2.557
		c-0.206-0.831-0.417-1.689-0.703-2.498l-3.846-10.919C166.697,336.589,167.546,336.545,168.478,336.499z M178.808,355.176
		c-0.406,0.085-1.654-0.049-2.168-0.235c-0.219-0.494-0.502-2.374-0.662-4.041c0.644-0.691,1.957-1.621,2.31-1.511
		c0.077,0.28,0.187,0.639,0.311,1.038c0.288,0.934,1.053,3.416,0.881,3.845C179.155,354.489,178.947,354.8,178.808,355.176z
		 M170.087,359.824c-1-3.832-3.411-9.292-5.348-13.679c-1.158-2.62-2.156-4.884-2.5-6.013c-0.519-1.706-0.646-2.75-0.668-3.296
		c1.121-0.002,2.34-0.014,3.211-0.084l3.953,11.219c0.265,0.75,0.469,1.579,0.667,2.38c0.458,1.854,0.788,3.193,1.752,3.47
		c1.007,0.283,2.615-0.878,3.658-1.781c0.41,3.616,0.9,3.873,1.149,3.998c0.392,0.195,1.513,0.443,2.442,0.443
		c0.07,0,0.131-0.011,0.198-0.014c-0.015,0.736,0.077,1.592,0.203,2.538c0.069,0.52,0.182,1.073,0.292,1.613
		c0.159,0.777,0.424,2.077,0.27,2.319c-0.253,0.029-0.631,0.044-1.074,0.062c-2.416,0.1-4.467,0.267-5.11,1.297
		c-0.362,0.579-0.468,1.441-0.478,2.224C171.961,365.463,171.043,363.49,170.087,359.824z"/>
	<path d="M211.273,348.844c-0.443-1.53-0.687-2.373-1.028-2.799l-0.124-0.16c-0.465-0.601-1.329-1.719-2.798-1.719
		c-0.363,0-0.743,0.07-1.128,0.208c-0.761,0.272-1.229,0.648-1.43,1.15c-0.293,0.733,0.065,1.446,0.412,2.136
		c0.085,0.166,0.171,0.337,0.247,0.509c0.051,0.117,0.419,1.059,0.953,2.467c-1.494,0.734-6.798,2.846-8.059,3.146
		c-0.374-0.67-0.962-3.107-1.357-5.32c0.613-0.205,1.183-0.383,1.562-0.458c0.931-0.186,1.85-0.458,2.267-1.179
		c0.248-0.428,0.276-0.938,0.083-1.517c-0.414-1.242-1.759-2.973-3.009-2.973c-0.366,0-1.218,0.245-2.186,0.571
		c-0.215-0.919-0.626-2.667-0.859-3.549c0.561-0.288,0.993-0.653,1.195-1.007c0.421-0.735,0.486-2.004,0.158-3.085
		c-0.293-0.971-0.857-1.688-1.627-2.073c-1.582-0.79-2.117-0.75-3.397-0.234l-0.302,0.133c-0.068,0.043-1.681,1.087-1.993,2.717
		c-0.161,0.847,0.046,1.676,0.618,2.468c0.967,1.339,2.253,1.619,3.162,1.619c0.336,0,0.665-0.043,0.979-0.111
		c0.242,0.93,0.661,2.717,0.855,3.55c-1.392,0.51-2.728,1.055-3.029,1.206l-0.478,0.24l0.151,0.513
		c1.172,3.953,1.771,4.103,2.06,4.175l0.246,0.027c0.428,0,1.189-0.237,2.32-0.618c1.104,6.197,1.939,6.217,2.393,6.217
		c0.391,0,1.734-0.45,3.285-1.033l2.25,6.999l0.018-0.006c-0.214,0.738-0.297,1.393-0.299,1.441
		c-0.062,0.07-0.346,0.237-1.676,0.237l-0.577-0.003c-0.308,0-0.562,0.013-0.752,0.051c-0.068,0.017-0.676,0.186-1.02,0.789
		c-0.255,0.451-0.291,0.995-0.104,1.616c0.151,0.506,0.481,1.223,0.898,2.13c0.713,1.546,1.688,3.662,2.021,5.416
		c0.383,2.009,1.101,2.827,2.477,2.827c0.16,0,0.326-0.009,0.496-0.021c0.336-0.021,0.663-0.018,1.236,0.004
		c0.474,0.02,1.046,0.041,1.629,0.041c1.751,0,3.56-0.17,3.701-1.433c0.179-1.614-2.675-9.814-2.704-9.896
		c-0.02-0.053-2.072-5.366-3.629-5.366l-0.167,0.016c-0.289,0.057-0.535,0.24-0.746,0.492l-1.862-5.794
		c1.651-0.648,3.322-1.351,4.22-1.773c1.581,4.208,4.03,10.95,4.835,14.259c0.287,1.178,0.527,2.239,0.74,3.181
		c0.793,3.502,1.156,5.1,2.167,5.533c0.229,0.098,0.494,0.147,0.791,0.147c1.136,0,2.896-0.8,3.256-1.699
		c0.459-1.15-4.835-16.97-5.604-19.017C212.207,352.078,211.668,350.209,211.273,348.844z M190.506,337.525
		c-0.361-0.5-0.492-0.982-0.399-1.475c0.183-0.97,1.166-1.705,1.385-1.857l0.135-0.055c0.516-0.208,0.773-0.307,0.999-0.307
		c0.258,0,0.611,0.131,1.352,0.501c0.568,0.283,0.845,0.864,0.977,1.302c0.245,0.809,0.167,1.71-0.045,2.082
		c-0.182,0.317-1.184,0.901-2.274,0.901C191.746,338.616,191.029,338.25,190.506,337.525z M192.5,345.46
		c1.423-0.6,4.802-1.84,5.365-1.851c0.361,0,1.423,0.973,1.798,2.101c0.073,0.217,0.08,0.376,0.024,0.474
		c-0.124,0.214-0.601,0.405-1.413,0.568c-0.624,0.125-1.588,0.453-2.521,0.77c-0.754,0.257-1.751,0.597-2.186,0.678
		C193.309,347.787,192.861,346.601,192.5,345.46z M205.403,360.251c0.57,0.556,1.789,2.695,2.407,4.429
		c0.963,2.692,2.739,8.421,2.659,9.268c-0.03,0.036-0.36,0.355-2.454,0.355c-0.563,0-1.12-0.021-1.579-0.039
		c-0.337-0.014-0.623-0.023-0.827-0.023c-0.184,0-0.364,0.01-0.54,0.021c-0.142,0.009-0.28,0.019-0.415,0.019
		c-0.414,0-0.882,0-1.223-1.792c-0.363-1.906-1.376-4.105-2.116-5.711c-0.381-0.827-0.71-1.541-0.837-1.963
		c-0.134-0.446-0.058-0.716,0.182-0.793c0.104-0.021,0.282-0.02,0.473-0.02l0.577,0.002c0.896,0,2.764,0,2.93-1.329
		C204.762,361.683,205.133,360.622,205.403,360.251z M215.361,373.669c-0.162,0-0.251-0.028-0.289-0.044
		c-0.42-0.21-0.931-2.463-1.424-4.643c-0.215-0.947-0.457-2.017-0.745-3.2c-1.215-4.989-6.13-17.72-6.312-18.131
		c-0.085-0.192-0.181-0.381-0.272-0.566c-0.21-0.416-0.448-0.889-0.369-1.087c0.021-0.05,0.128-0.229,0.675-0.423
		c0.247-0.088,0.482-0.133,0.699-0.133c0.843,0,1.389,0.707,1.788,1.223l0.138,0.177c0.183,0.228,0.481,1.262,0.798,2.356
		c0.401,1.386,0.949,3.282,1.773,5.479c1.643,4.379,5.424,16.543,5.573,18.147C217.152,373.106,216.146,373.669,215.361,373.669z"/>
	<path d="M192.93,377.37l-0.276-1.246c-0.449,0.1-0.998,0.221-1.584,0.35c-0.078-0.236-0.148-0.451-0.23-0.699
		c-0.354-1.07-0.721-2.176-0.759-2.356c-0.089-0.448-0.489-0.674-1.188-0.674c-1.115,0-3.404,0.471-5.244,0.849
		c-0.906,0.188-1.69,0.349-2.009,0.384c-0.38,0.043-1.126-0.051-1.929-0.146c-0.926-0.109-1.975-0.234-2.935-0.234
		c-0.826,0-1.47,0.094-1.968,0.285l-0.627,0.241l0.273,0.614c0.021,0.048,2.119,4.771,2.501,6.303
		c0.139,0.556,0.247,1.328,0.353,2.076c0.294,2.084,0.454,3.015,1.179,3.194c0.1,0.024,0.234,0.04,0.592,0.04
		c1.021,0,3.504-0.131,5.694-0.245c1.731-0.091,3.367-0.178,3.88-0.178c0.836,0,4.265-0.357,4.502-2.015
		c0.084-0.582-0.478-2.519-1.687-6.222C192.271,377.516,192.855,377.386,192.93,377.37z M183.907,374.842
		c1.708-0.352,4.076-0.799,5.019-0.823c0.12,0.395,0.347,1.082,0.702,2.155c0.058,0.176,0.122,0.37,0.189,0.572
		c-1.791,0.389-3.601,0.771-4.057,0.837c-0.507,0.073-0.95,0.155-1.35,0.329c-0.001-0.001-0.001-0.003-0.002-0.004
		c-0.523-0.96-0.931-2.236-1.133-2.937C183.475,374.932,183.683,374.888,183.907,374.842z M175.927,374.919
		c0.932-0.119,2.422,0.034,3.634,0.179c0.944,0.11,1.741,0.199,2.222,0.146c0.062-0.008,0.15-0.022,0.232-0.035
		c0.206,0.724,0.659,2.185,1.272,3.31c0.037,0.068,0.065,0.124,0.101,0.189c-0.28,0.172-1.791,0.452-5.712,0.469
		C177.137,377.732,176.358,375.908,175.927,374.919z M184.706,384.832c-2.174,0.113-4.64,0.243-5.627,0.243c-0.044,0-0.085,0-0.12,0
		c-0.145-0.41-0.289-1.432-0.388-2.137c-0.11-0.779-0.224-1.586-0.379-2.208c-0.02-0.08-0.055-0.188-0.082-0.28
		c3.937-0.036,5.315-0.333,5.859-0.604c0.398,0.831,0.684,1.608,0.852,2.613c0.162,0.969,0.222,1.841,0.245,2.354
		C184.946,384.819,184.829,384.826,184.706,384.832z M191.895,383.725c-0.119,0.34-1.766,0.928-3.241,0.928
		c-0.374,0-1.231,0.038-2.314,0.094c-0.025-0.552-0.089-1.467-0.26-2.497c-0.208-1.25-0.569-2.188-1.072-3.196
		c0.23-0.088,0.515-0.147,0.933-0.208c0.527-0.074,2.543-0.504,4.278-0.881C190.979,380.292,191.906,383.212,191.895,383.725z"/>
	<path d="M195.574,502.537c0.209,0,0.586,0.039,1.063,0.086c0.883,0.088,2.094,0.209,3.26,0.209c2.061,0,3.279-0.373,3.834-1.176
		c0.894-1.291,3.287-8.91,5.664-16.602c0.334-1.086,0.622-2.02,0.84-2.711c0.568-1.809,1.221-3.521,1.796-5.031
		c0.802-2.111,1.383-3.635,1.383-4.486c0-1.67-1.678-1.732-3.802-1.812l-0.924-0.037c-1.104-0.051-4.764,0-4.765,0l-0.173,0.025
		c-0.157,0.049-1.557,0.539-2.482,3.318c-0.592,1.775-3.334,11.152-3.178,12.389c0.072,1.037-2.169,10.369-2.694,11.219
		c-0.473,0.758-1.375,2.998-0.796,4.043C194.8,502.33,195.155,502.537,195.574,502.537z M203.72,498.475l-6.884-0.754
		c0.141-0.418,0.302-0.951,0.473-1.557l6.959,0.748C204.075,497.473,203.891,498,203.72,498.475z M199.357,486.564
		c-0.056-0.871,2.127-8.857,3.121-11.842c0.608-1.824,1.39-2.359,1.59-2.473c0.645-0.008,3.592-0.047,4.56,0.002l0.938,0.037
		c1.789,0.066,2.573,0.137,2.573,0.537c0,0.516-0.445,1.766-0.981,3.191l-6.42-2.104l-0.396,1.213l6.363,2.084
		c-0.024,0.066-0.051,0.135-0.076,0.201l-6.607,0.348l0.066,1.275l6.054-0.318c-0.132,0.355-0.263,0.719-0.395,1.09l-6.639-0.229
		l-0.044,1.275l6.248,0.215c-0.098,0.297-0.198,0.592-0.293,0.895c-0.083,0.264-0.179,0.572-0.281,0.9l-6.75-1.217l-0.227,1.256
		l6.596,1.189c-0.059,0.191-0.118,0.383-0.18,0.586c-0.035,0.109-0.073,0.236-0.109,0.352h-7.042v1.275h6.647
		c-0.102,0.33-0.208,0.672-0.317,1.023l-7.046-0.119l-0.021,1.275l6.673,0.111c-0.169,0.539-0.34,1.086-0.517,1.643l-6.036,0.121
		l0.024,1.273l5.606-0.109c-0.11,0.344-0.221,0.686-0.33,1.029l-6.644,0.229l0.044,1.275l6.182-0.213
		c-0.204,0.629-0.406,1.24-0.604,1.83l-7.04-0.756C198.51,491.637,199.45,487.307,199.357,486.564z M196.289,498.945l6.962,0.762
		c-0.235,0.588-0.433,1.025-0.568,1.223c-0.131,0.189-0.662,0.627-2.785,0.627c-1.103,0-2.277-0.117-3.134-0.203
		c-0.454-0.045-0.828-0.08-1.074-0.09C195.62,500.865,195.89,499.756,196.289,498.945z"/>
	<path d="M212.723,488.461c0.593,0.168,1.425,0.164,2.229,0.121c-0.065,0.139-0.095,0.18-0.072,0.166
		c-0.21,0.119-0.666,0.311-1.147,0.512c-1.977,0.826-3.402,1.479-3.732,2.361c-0.199,0.533-0.265,1.438-0.339,2.484
		c-0.071,0.98-0.158,2.201-0.374,2.688c-0.495,1.113-1.79,5.348-1.845,5.527l1.221,0.371c0.013-0.043,1.326-4.336,1.789-5.379
		c0.308-0.691,0.396-1.924,0.481-3.117c0.06-0.828,0.127-1.766,0.261-2.125c0.2-0.449,2.183-1.279,3.03-1.633
		c0.567-0.238,1.016-0.426,1.292-0.584c0.28-0.16,0.538-0.484,0.954-1.602c0.61-1.646,1.368-4.525,1.978-6.838
		c0.357-1.359,0.667-2.535,0.873-3.188c0.214-0.68,0.537-1.494,0.85-2.281c1.039-2.621,1.587-4.137,0.769-4.82
		c-0.842-0.701-3.744-0.506-4.952-0.389l-0.494,0.047l-0.075,0.492c-0.003,0.016-0.241,1.564-0.478,2.623
		c-0.104,0.465-0.561,2.027-1.044,3.682c-0.631,2.158-1.346,4.602-1.618,5.76C211.615,486.148,211.439,488.096,212.723,488.461z
		 M213.519,483.633c0.265-1.125,0.975-3.553,1.601-5.693c0.512-1.748,0.953-3.258,1.066-3.764c0.162-0.729,0.321-1.652,0.413-2.211
		c1.555-0.115,3.056-0.068,3.465,0.107c0.061,0.529-0.648,2.316-1.079,3.402c-0.32,0.809-0.652,1.645-0.88,2.367
		c-0.215,0.684-0.529,1.871-0.892,3.248c-0.538,2.045-1.195,4.541-1.749,6.178c-0.809,0.061-1.848,0.125-2.319,0.01
		C213.084,487.195,212.812,486.635,213.519,483.633z"/>
	<path d="M226.595,485.375c0.812,0,1.44-0.188,1.865-0.562c0.864-0.756,1.887-3.826,2.946-7.178
		c0.153-0.484,0.285-0.904,0.389-1.217l0.119-0.352c0.569-1.684,1.349-3.986,0.571-5.299c-0.277-0.469-0.729-0.77-1.306-0.871
		c-0.69-0.121-1.382-0.186-2.001-0.186c-2.59,0-3.273,1.088-3.468,1.828c-0.004,0.029-0.367,2.971-1.407,5.396
		c-0.107,0.254-0.254,0.566-0.419,0.918c-1.302,2.793-2.285,5.191-1.114,6.23C223.612,484.832,225.221,485.375,226.595,485.375z
		 M225.041,478.395c0.17-0.367,0.323-0.693,0.436-0.957c1.113-2.598,1.485-5.619,1.482-5.654c0.137-0.5,0.966-0.797,2.22-0.797
		c0.545,0,1.161,0.057,1.778,0.166c0.271,0.047,0.373,0.168,0.431,0.266c0.479,0.809-0.276,3.039-0.682,4.238l-0.121,0.359
		c-0.105,0.316-0.24,0.742-0.396,1.234c-0.569,1.801-1.902,6.02-2.569,6.604c-0.179,0.156-0.553,0.246-1.025,0.246
		c-1.04,0-2.376-0.436-2.978-0.969C223.249,482.803,223.728,481.209,225.041,478.395z"/>
	<path d="M219.636,487.98c-0.021,0.029-2.018,3.137-1.38,4.609c0.173,0.398,0.513,0.658,0.957,0.732
		c0.379,0.062,0.87,0.094,1.503,0.094c0.644,0,1.353-0.031,2.019-0.061c0.854-0.039,1.642-0.08,2.087-0.029
		c0.384,0.043,0.812,0.072,1.225,0.072c1.191,0,1.91-0.219,2.261-0.686c0.292-0.389,0.584-1.562,1.116-4.488l0.092-0.494
		c0.052-0.264-0.017-0.535-0.192-0.77c-0.593-0.785-2.63-1.229-3.772-1.324c-1.48-0.123-3.074-0.123-3.931-0.123h-0.342
		L219.636,487.98z M221.961,486.789c0.878,0,2.23,0.014,3.481,0.119c1.225,0.102,2.434,0.5,2.787,0.754l-0.062,0.336
		c-0.428,2.348-0.728,3.682-0.867,3.934c-0.062,0.053-0.408,0.189-1.255,0.189c-0.365,0-0.744-0.023-1.084-0.062
		c-0.492-0.053-1.337-0.021-2.285,0.021c-1.228,0.055-2.607,0.07-3.248,0.006c-0.221-0.391,0.556-2.33,1.269-3.4L221.961,486.789z"
		/>
	<path d="M214.956,497.143c-1.158,0-3.75,0.729-3.906,2.895c-0.061,0.84,0.224,1.621,0.82,2.262
		c0.773,0.832,2.018,1.328,3.329,1.328c2.565,0,2.834-2.438,2.936-3.355c0.064-0.588-0.185-1.217-0.722-1.816
		C216.847,497.822,215.836,497.143,214.956,497.143z M215.199,502.352c-0.963,0-1.859-0.344-2.396-0.92
		c-0.354-0.383-0.517-0.82-0.481-1.305c0.093-1.289,1.99-1.709,2.634-1.709c0.343,0,1.03,0.355,1.507,0.889
		c0.276,0.309,0.428,0.617,0.403,0.826C216.708,501.572,216.396,502.352,215.199,502.352z"/>
	<path d="M219.181,503.607l0.612,0.129c0.077,0.016,1.896,0.396,2.949,0.396c0.159,0,0.301-0.01,0.422-0.027
		c1.006-0.145,1.445-1.711,2.05-4.271c0.109-0.461,0.205-0.869,0.287-1.145c0.379-1.26,0.505-2.732,0.51-2.795l0.053-0.631
		l-5.204-0.473L219.181,503.607z M224.667,496.418c-0.068,0.512-0.191,1.252-0.387,1.904c-0.089,0.295-0.191,0.727-0.308,1.217
		c-0.209,0.883-0.688,2.914-1.065,3.312c-0.05,0.004-0.105,0.004-0.164,0.004h-0.001c-0.575,0-1.475-0.141-2.073-0.25l1.227-6.439
		L224.667,496.418z"/>
	<path d="M315.907,619.256c1.913,0,4.032-0.904,4.933-2.105l0.202-0.268c1.306-1.729,1.29-1.988,0.671-4.869l-0.053-0.25
		c-0.724-3.379-3.737-3.379-4.728-3.379c-0.306,0-0.601,0.012-0.873,0.021c-0.216,0.008-0.418,0.018-0.599,0.018
		c-0.858,0-1.776,0.535-2.516,1.469c-1.291,1.631-1.738,3.98-1.196,6.285C312.21,618.135,313.725,619.256,315.907,619.256z
		 M314.194,610.883c0.507-0.639,0.999-0.865,1.267-0.865c0.2,0,0.422-0.008,0.661-0.018c0.253-0.01,0.527-0.021,0.811-0.021
		c1.63,0,2.792,0.361,3.168,2.119l0.054,0.25c0.513,2.387,0.513,2.387-0.385,3.574l-0.204,0.271
		c-0.532,0.709-2.129,1.469-3.658,1.469c-1.44-0.002-2.316-0.623-2.605-1.85C312.661,613.094,313.824,611.352,314.194,610.883z"/>
	<path d="M33.247,631.742c0,0-1.698,1.275-0.849,2.832c0.849,1.555,2.69,2.404,3.115,1.414c0.424-0.99,0.565-2.266-0.143-3.115
		S34.803,631.883,33.247,631.742z"/>
	<path d="M65.521,632.168c-1.416-0.852-1.981-0.709-3.68,0.424c0,0-1.793,2.197-0.991,3.113c0.991,1.133,2.832,1.133,4.389-0.426
		C66.796,633.723,66.938,633.018,65.521,632.168z"/>
	<path d="M75.289,609.377c0,0-1.792,2.195-0.99,3.111c0.99,1.133,2.689,0.285,3.963-0.564c1.166-0.777,1.416-2.406,0.708-2.973
		C77.681,607.918,76.987,608.242,75.289,609.377z"/>
	<path d="M83.944,596.971c1.042-0.936,1.058-2.584,0.276-3.045c-1.423-0.836-2.063-0.416-3.582,0.947c0,0-1.462,2.43-0.538,3.223
		C81.243,599.076,82.805,597.994,83.944,596.971z"/>
	<path d="M91.833,577.809c-1.53-0.623-2.101-0.115-3.407,1.455c0,0-1.092,2.615-0.064,3.266c1.273,0.805,2.66-0.492,3.64-1.67
		C92.896,579.783,92.673,578.15,91.833,577.809z"/>
	<path d="M94.872,567.383c1.273,0.805,2.661-0.492,3.64-1.67c0.897-1.076,0.673-2.709-0.168-3.051
		c-1.529-0.623-2.101-0.115-3.407,1.455C94.937,564.117,93.844,566.732,94.872,567.383z"/>
	<path d="M107.611,543.287c1.054,0.641,2.526-0.475,3.352-1.434c0.756-0.877,0.279-2.133-0.418-2.402
		c-1.27-0.488-2.161-0.006-3.263,1.27C107.282,540.721,106.76,542.773,107.611,543.287z"/>
	<path d="M86.089,543.332c0.99-0.369,0.781-1.799,0.399-2.756c-0.348-0.875-1.563-1.152-2.097-0.84
		c-0.97,0.572-0.997,1.35-0.49,2.625C83.901,542.361,85.29,543.629,86.089,543.332z"/>
	<path d="M78.785,549.453c-1.117,0.125-1.459,0.826-1.514,2.195c0,0,0.756,1.725,1.606,1.777c1.054,0.066,1.444-1.326,1.483-2.355
		C80.398,550.131,79.399,549.381,78.785,549.453z"/>
	<path d="M70.168,561.951c-1.324,0.15-1.728,0.98-1.793,2.602c0,0,0.894,2.041,1.901,2.105c1.248,0.076,2.278-1.221,2.325-2.439
		C72.646,563.105,70.896,561.869,70.168,561.951z"/>
	<path d="M61.792,576.26c-1.199,0.109-1.551,0.852-1.58,2.312c0,0,0.85,1.857,1.765,1.934c1.135,0.094,2.047-1.059,2.067-2.158
		C64.064,577.346,62.453,576.199,61.792,576.26z"/>
	<path d="M53.34,593.238c0,0-1.085,1.73-0.646,2.537c0.546,1,2.01,1.129,2.938,0.543c0.849-0.535,0.922-2.512,0.509-3.031
		C55.392,592.346,54.578,592.461,53.34,593.238z"/>
	<path d="M45.696,608.668c0,0-1.085,1.732-0.646,2.537c0.545,0.998,2.009,1.129,2.938,0.543c0.849-0.535,0.922-2.512,0.51-3.029
		C47.747,607.777,46.933,607.889,45.696,608.668z"/>
	<path d="M286.772,529.49c-3.1,1.551-1.993,5.605-1.63,6.938c0.551,2.02,2.501,5.221,5.388,5.221c0,0,0,0,0.001,0
		c0.97,0,1.944-0.369,2.898-1.098c4.101-3.137,2.033-6.006,0.921-7.549l-0.133-0.186c-1.053-1.471-3.692-3.65-6.016-3.65
		C287.683,529.166,287.202,529.275,286.772,529.49z M293.352,533.436l0.138,0.189c1.146,1.592,2.574,3.572-0.705,6.08
		c-0.765,0.584-1.522,0.881-2.253,0.881c-0.001,0-0.001,0-0.001,0c-2.174,0-3.859-2.596-4.362-4.438
		c-0.846-3.102-0.504-4.914,1.08-5.707c0.281-0.141,0.602-0.211,0.954-0.211C290.042,530.23,292.415,532.125,293.352,533.436z"/>
	<path d="M219.812,644.172c0.932-0.465,1.77-1.303,1.862-2.049c0.094-0.746-0.839-1.77-1.955-1.303c0,0-1.677,1.115-1.584,2.326
		C218.229,644.359,218.881,644.637,219.812,644.172z"/>
	<path d="M225.119,632.162c0.466-1.211-0.278-2.889-1.396-3.168s-0.559-0.184-0.932,0.188c0,0-0.839,4.188-0.093,4.654
		C223.443,634.303,224.652,633.371,225.119,632.162z"/>
	<path d="M225.585,621.639c0.745-0.467,2.141-2.514,2.048-3.631c-0.092-1.119-1.21-1.584-2.7-0.652c0,0-1.489,2.795-1.21,3.443
		C224.002,621.451,224.84,622.104,225.585,621.639z"/>
	<path d="M232.477,608.414c0.651-1.209,0.93-2.326,0.186-2.791c-0.744-0.469-1.861-0.281-2.793,0.742c0,0-1.397,1.678-0.745,2.514
		C229.776,609.719,231.824,609.627,232.477,608.414z"/>
	<path d="M234.99,597.611c1.211-0.094,2.327-1.768,2.234-2.701c-0.093-0.93-0.279-1.211-1.117-1.211c0,0-2.7,1.582-2.794,2.422
		C233.221,596.959,233.78,597.705,234.99,597.611z"/>
	<path d="M241.695,579.453c0,0-2.793,2.049-2.979,2.607c-0.188,0.559,1.583,2.141,2.979,0.838c1.396-1.303,1.582-2.699,1.116-3.166
		C242.347,579.268,242.812,579.08,241.695,579.453z"/>
	<path d="M242.161,569.676c0.931,0.371,3.54-0.559,3.911-2.049c0.372-1.49-0.558-1.676-1.955-1.49
		C244.117,566.137,241.229,569.303,242.161,569.676z"/>
	<path d="M250.356,555.242c-1.49,0-1.677,0.467-2.421,1.117c0,0-2.142,2.234-0.838,2.516c1.304,0.277,3.352-1.023,3.91-2.051
		C251.566,555.801,251.846,555.242,250.356,555.242z"/>
	<path d="M253.43,547.979c1.584-0.652,3.632-2.514,3.353-3.633c-0.279-1.115-0.652-1.209-1.769-0.744c0,0-3.166,2.422-3.538,3.166
		C251.103,547.514,251.847,548.631,253.43,547.979z"/>
	<path d="M259.204,533.918c1.77,0.559,3.817-1.117,4.47-2.143c0.651-1.023,1.024-2.889-0.466-2.701
		c-1.489,0.186-1.957,1.025-2.98,1.77C260.228,530.844,257.436,533.359,259.204,533.918z"/>
	<path d="M271.402,521.717c1.862-1.396,3.074-2.236,2.608-2.701c-0.467-0.465-1.77-0.93-3.073,0.094c0,0-2.422,2.049-2.422,2.795
		C268.516,522.648,269.54,523.115,271.402,521.717z"/>
	<path d="M236.762,530.658c1.024-1.398-0.932-3.354-1.583-2.236c0,0-1.396,0.744-1.396,2.143
		C233.782,531.961,235.737,532.053,236.762,530.658z"/>
	<path d="M225.216,542.391c0,0-0.653,0.373-0.56,2.143c0.093,1.77,2.142,2.141,2.514,0.465c0.373-1.676,0.093-1.117,0-1.676
		C227.078,542.762,226.054,541.926,225.216,542.391z"/>
	<path d="M221.024,554.217c-0.744,0.188-1.768,2.143-1.396,3.074c0.372,0.932,3.073,1.023,3.259-1.117
		C223.072,554.031,221.769,554.033,221.024,554.217z"/>
	<path d="M215.624,564.742c0,0-1.677,0.652-1.583,2.141c0.093,1.49,2.048,2.607,3.072,1.305
		C218.139,566.883,217.486,564.648,215.624,564.742z"/>
	<path d="M212.178,577.221c0,0-1.491,0.371-1.584,2.141c-0.092,1.77,0.839,2.514,1.771,2.514c0.931,0,1.582-1.49,1.676-2.795
		C214.133,577.779,213.108,577.033,212.178,577.221z"/>
	<path d="M204.729,591.559c0,0-1.678,0.188-1.77,2.236c-0.093,2.049,1.024,1.955,1.955,2.049c0.932,0.092,1.304-1.117,1.396-2.328
		C206.404,592.305,205.753,591.559,204.729,591.559z"/>
	<path d="M201.469,603.572c0,0-1.49,0.094-1.677,1.584c-0.186,1.49,0.747,1.77,1.491,1.863s1.21-0.746,1.489-1.955
		C203.052,603.854,202.121,603.572,201.469,603.572z"/>
	<path d="M197.371,615.215c0,0-1.676,0.561-1.769,2.236c-0.094,1.676,0.838,2.141,1.769,2.141c0.932,0,1.49-1.305,1.49-2.234
		C198.861,616.426,198.303,615.215,197.371,615.215z"/>
	<path d="M191.784,627.412c0,0-1.862,0.561-1.955,2.051s0.559,2.326,1.676,2.514c1.117,0.188,1.303-1.211,1.49-2.143
		C193.181,628.904,193.274,627.693,191.784,627.412z"/>
	<path d="M188.246,638.496c-1.21,0.188-1.862,1.025-2.235,2.143c-0.373,1.117-0.372,2.512,1.025,2.887
		c1.396,0.371,2.514-1.117,2.793-2.234C190.108,640.172,189.457,638.311,188.246,638.496z"/>
	<path d="M342.178,619.938c-0.202,0.393-0.049,0.873,0.343,1.074c0.116,0.061,0.242,0.09,0.364,0.09c0.29,0,0.568-0.158,0.709-0.432
		c1.274-2.469,6.215-3.752,8.012-4.039c0.388-0.061,0.674-0.398,0.672-0.791c-0.002-0.395-0.291-0.727-0.681-0.785l-4.057-0.602
		l2.805-2.229c0.292-0.232,0.385-0.637,0.223-0.971c-0.162-0.336-0.531-0.52-0.899-0.432c-1.262,0.295-4.819,1.023-6.139,0.855
		c-1.268-0.158-1.856-1.246-1.889-1.309c-0.2-0.391-0.674-0.551-1.068-0.354c-0.394,0.197-0.554,0.678-0.356,1.07
		c0.039,0.078,0.978,1.906,3.116,2.176c0.827,0.105,2.181-0.045,3.458-0.25l-1.681,1.336c-0.248,0.197-0.355,0.523-0.273,0.83
		s0.339,0.537,0.652,0.582l2.058,0.307C345.481,616.812,343.157,618.039,342.178,619.938z"/>
	<path d="M354.657,621.814c-0.154,0.037-0.633,0.162-1.483-0.832c-0.887-1.037-2.305-0.855-3.243-0.732l-0.183,0.021
		c-0.372,0.047-0.663,0.254-0.803,0.568c-0.255,0.578,0.116,1.107,0.546,1.719c0.18,0.258,0.579,0.824,0.64,1.098
		c-0.543,0.229-2.509,0.135-4.375-0.219c-0.437-0.09-0.851,0.199-0.933,0.633c-0.083,0.432,0.201,0.85,0.633,0.932
		c1.099,0.209,2.333,0.383,3.412,0.383c1.202,0,2.21-0.215,2.622-0.834c0.627-0.938-0.082-2.033-0.617-2.797
		c0.459-0.025,0.878,0.016,1.089,0.264c0.99,1.156,2.025,1.607,3.084,1.344c0.427-0.107,0.687-0.541,0.579-0.969
		C355.52,621.967,355.086,621.707,354.657,621.814z"/>
	<path d="M344.408,622.297c0.058,0,0.116-0.006,0.174-0.02l0.979-0.217c0.43-0.098,0.7-0.523,0.605-0.953
		c-0.097-0.43-0.53-0.697-0.952-0.605l-0.979,0.219c-0.43,0.098-0.7,0.521-0.605,0.953
		C343.714,622.045,344.042,622.297,344.408,622.297z"/>
</g>
</svg>
