<?xml version="1.0" encoding="utf-8"?>
<!-- Generator: Adobe Illustrator 15.0.0, SVG Export Plug-In . SVG Version: 6.00 Build 0)  -->
<!DOCTYPE svg PUBLIC "-//W3C//DTD SVG 1.1//EN" "http://www.w3.org/Graphics/SVG/1.1/DTD/svg11.dtd">
<svg version="1.1" id="sgier-johnny-five_xA0_Image_1_"
	 xmlns="http://www.w3.org/2000/svg" xmlns:xlink="http://www.w3.org/1999/xlink" x="0px" y="0px" width="216px" height="216px"
	 viewBox="0 0 216 216" enable-background="new 0 0 216 216" xml:space="preserve">
<g>
	<path fill-rule="evenodd" clip-rule="evenodd" d="M57.044,32.424c0.027-0.092,0.482-0.534,0.678-0.339
		C58.533,32.896,56.529,34.23,57.044,32.424z"/>
	<path fill-rule="evenodd" clip-rule="evenodd" d="M58.74,34.457c0.069,0.073,0.452,1.241,0.339,1.354
		C58.015,36.875,56.967,32.603,58.74,34.457z"/>
	<path fill-rule="evenodd" clip-rule="evenodd" d="M150.865,50.714c1.662-1.662,1.709,4.31,0.679,4.403
		C150.265,55.232,150.074,51.504,150.865,50.714z"/>
	<path fill-rule="evenodd" clip-rule="evenodd" d="M110.56,52.069c2.296-0.361,3.961,0.91,4.065,2.709
		c0.11,1.894-1.317,4.115-2.031,4.403c-1.718,0.693-4.874-0.197-5.419-2.033c-0.292-0.973,0.113-2.947,0.339-3.388
		C107.938,52.929,109.33,52.262,110.56,52.069z M108.867,54.778c0.366,0.367,0.904-0.642,1.017-0.678
		c0.824-0.256,1.58-0.255,1.015-1.353c-0.124-0.247-0.741,0.361-0.675,0.337C109.752,53.254,108.106,54.019,108.867,54.778z"/>
	<path fill-rule="evenodd" clip-rule="evenodd" d="M89.561,59.182c-1.135-1.54-0.264-4.817,0.678-5.758
		c1.069-1.071,4.016-1.429,5.08-0.676c2.004,1.417,1.739,6.127-0.339,7.111C94.751,59.967,90.71,60.74,89.561,59.182z
		 M91.932,55.457c0.273-0.177-0.132-0.615,0.339-0.678c0.226-0.03,1.062,0.229,1.018,0.339c0.59-1.391-0.747-1.392-1.695-1.017
		C90.236,54.638,91.113,55.986,91.932,55.457z"/>
	<path fill-rule="evenodd" clip-rule="evenodd" d="M151.204,56.472c1.739-1.744,2.25,5.112,1.018,5.419
		C151.467,62.08,149.89,57.791,151.204,56.472z"/>
	<path fill-rule="evenodd" clip-rule="evenodd" d="M94.641,93.729c1-0.033,6.006-0.623,6.097,2.033
		c0.025,0.781-0.455,0.616-0.678,1.016c-0.063,0.115,0.1,0.606,0,0.678c-0.501,0.365-3.178,0.616-4.062,0.677
		c-4.284,0.295-10.857,0.408-10.502-2.371c0.253-1.956,2.941-1.534,4.065-1.694C91.375,93.81,92.971,93.785,94.641,93.729z
		 M90.915,97.455c0.358-0.251-0.24-0.892-0.336-1.694c-0.063-0.51,0.582-1.798-0.339-1.016
		C89.073,95.734,89.817,98.223,90.915,97.455z M94.302,97.455c0.579,0.466,4.57-0.566,4.744-0.678
		c2.922-1.897-3.564-3.261-4.744-2.031C94.187,94.866,93.768,97.022,94.302,97.455z M92.949,95.422c0-3.137,0.405,3.758,0.339,1.016
		c-0.022-0.823-0.345-2.694-0.678-1.354C92.637,94.966,92.949,95.239,92.949,95.422z"/>
	<path fill-rule="evenodd" clip-rule="evenodd" d="M108.528,107.615c0.551-0.266,2.775-0.67,3.727,0
		c0.328,0.233,0.46,3.092,1.014,3.388c0.576,0.306,2.359-0.593,3.049,0c0.888,0.764,1.48,4.949,2.034,6.437
		c0.056,0.15,0.835,0.875,1.015,1.354c0.256,0.683,1.516,4.504,1.017,5.08c0.204-0.235-6.957,0.271-7.45,0
		c-0.13-0.071-1.017-2.342-1.695-4.064c-1.204-3.065-1.656-5.06-2.709-8.128c-0.317-0.927-1.748-3.289-1.354-4.066
		C107.249,107.466,108.352,107.701,108.528,107.615z M116.656,114.052c-0.278-0.783-0.3-2.045-0.675-2.37
		c-0.502-0.434-2.09,0.481-3.049,0c-0.259-0.13-0.469-0.771-0.678-1.355c-0.706-1.963,0.146-2.372-2.371-2.372
		c-3.42,0-1.596,1.407-0.678,4.064c0.386,1.123,0.355,1.99,0.678,3.049c0.039,0.128,0.615,0.502,0.676,0.678
		c0.239,0.676,0.08,1.256,0.339,2.032c0.185,0.544,0.777,1.083,1.018,1.693c0.449,1.15,0.744,3.401,1.353,3.726
		c0.615,0.326,4.113-0.331,4.744-0.338c0.73-0.01,1.494,0.577,1.692,0.338c0.402-0.48-0.342-2.463-0.678-3.387
		c-0.588-1.632-1.302-2.702-1.692-3.727C116.99,115.179,116.921,114.786,116.656,114.052z"/>
	<path fill-rule="evenodd" clip-rule="evenodd" d="M116.317,113.373c0.047,0.046-0.021,0.276,0,0.34
		c0.372,0.969,0.844,2.357,1.356,4.064c0.188,0.629,0.554,1.634,0.678,2.032c0.218,0.708,0.386,1.935,0.339,2.031
		c-0.151,0.294-1.695,0.339-1.695,0.339c-0.41-0.236-0.587-2.354-1.014-3.725c-0.389-1.238-0.568-2.747-1.356-3.049
		c-0.989-0.379-0.567,1.539,0,2.033c0.502,0.433,2.373,3.851,1.692,4.74c0.061-0.078-2.293,0.371-2.37,0.34
		c-0.543-0.229-1.34-3.106-1.354-3.388c-0.072-1.302,1.053-0.171,1.354-1.016c-0.012,0.037-0.736-2.439-0.679-2.371
		c-0.25-0.293-0.953,0.548-1.353,0.338c-0.478-0.248-0.039-0.915-0.34-1.354c-0.267-0.389-1.7-0.586-1.692-1.692
		c0.003-0.426,1.095-0.718,1.015-1.018c-0.231-0.879-1.67-0.632-1.692-1.692c-0.033-1.584,1.31-1.753,2.031-1.354
		c0.733,0.402-0.449,0.804,0.339,2.71c0.558,1.345,1.349-0.286,1.692,1.354c0.257,1.21-1.198,0.41-1.353,1.354
		c0.019-0.124,0.377,1.036,0.339,1.016c0.124,0.067,2.161-0.378,2.37-0.678c0.493-0.704-1.033-1.367,0-2.031
		C115.121,112.379,115.86,112.934,116.317,113.373z M110.898,110.664c0.609-0.606-0.818-1.713-1.015-0.677
		C109.846,110.191,110.584,110.979,110.898,110.664z M111.576,113.373c2.173-0.122-1.16-0.481-0.678,0
		C110.962,113.436,111.48,113.379,111.576,113.373z M116.656,118.116c0.022,0.072,0.94,3.804,1.356,3.388
		c0.212-0.214-1.056-4.19-1.018-4.064c-0.645-2.03-0.989-3.197-1.692-3.727c-0.102-0.077,0.364,0.918,0.34,0.678
		C115.78,115.67,116.152,116.469,116.656,118.116z M113.269,118.794c-0.578,0.841,1.426,3.067,1.356,3.047
		c-0.425-0.124,1.092-0.464,1.018-0.337c0.265-0.451-0.141-1.118-0.34-1.694c-0.531-1.536-0.413-1.152-1.017-1.016
		C114.153,118.823,113.338,118.696,113.269,118.794z"/>
	<path fill-rule="evenodd" clip-rule="evenodd" d="M100.399,109.987c0.036-0.054,1.585-0.212,3.048-0.339
		c-0.019,0.001,2.349-0.214,2.709,0c0.333,0.196,0.397,1.937,0.678,2.709c0.474,1.302,1.26,2.958,1.693,4.743
		c0.265,1.086,0.548,2.427,0.339,2.709c-0.121,0.163-2.219,0.287-2.71,0.339c-2.536,0.264-2.021,0.238-3.048-2.709
		c-0.714-2.047-2.178-4.986-2.709-6.775C100.372,110.571,100.35,110.064,100.399,109.987z M107.174,118.794
		c-0.044,0.11-1.276-0.077-1.017,0.338c0.229,0.365,1.604,0.64,2.031,0c0.271-0.401-0.309-0.922-0.339-1.016
		c-0.325-1.077-0.129-1.442-0.336-2.371c-0.031-0.129-0.623-0.836-0.678-1.017c-0.535-1.682-0.711-4.045-1.356-4.402
		c-0.551-0.308-2.707-0.004-2.709,0c-0.366,0.366,0.574,3.122,0.678,3.387c0.937,2.373,2.31-0.756,3.048,0
		C107.205,114.438,106.838,119.658,107.174,118.794z M102.092,113.713c0.366,0.91,1.025,1.875,1.356,2.709
		c0.678,1.715,0.221,2.445,1.692,2.033c1.419-0.397,1.218-0.353,1.017-1.354c-0.207-1.03-0.479-0.143-1.017-0.679
		c-0.107-0.107,0.129-0.959,0-1.016c-0.364-0.158-1.378,0.312-1.354,0.339c-0.659-0.747-0.995-3.244-1.695-4.403
		c1.292,2.141-0.573-1.779-1.015-0.339C101.119,110.868,101.675,112.674,102.092,113.713z M106.157,115.067
		c-0.077-0.233-0.722-0.492-0.678,0C105.479,115.073,106.309,115.525,106.157,115.067z M105.479,119.132
		c-0.093-0.094-0.838,0.179-0.678,0.339C104.895,119.564,105.639,119.291,105.479,119.132z"/>
	<path fill-rule="evenodd" clip-rule="evenodd" d="M123.432,169.937c0.86-1.147,1.351,0.597,0.678,1.018
		C123.288,171.467,123.043,170.455,123.432,169.937z"/>
	<path fill-rule="evenodd" clip-rule="evenodd" d="M131.899,170.275c1.91-0.62-0.587,2.392-1.018,1.017
		C130.469,169.966,131.172,170.512,131.899,170.275z"/>
	<path fill-rule="evenodd" clip-rule="evenodd" d="M139.688,170.275c0.02-0.014-0.014-0.339,0-0.339
		c1.152-0.011,3.211,0.946,3.049,2.372c-0.08,0.693-1.243,1.769-2.031,1.692C139.236,173.86,138.101,171.451,139.688,170.275z
		 M140.367,173.324c0.454,0.228,1.678-0.426,1.692-1.354c0.016-1.041-1.491-1.558-2.032-1.016
		C139.399,171.582,139.917,173.1,140.367,173.324z"/>
	<path fill-rule="evenodd" clip-rule="evenodd" d="M85.496,174.001c-0.025,0.103-1.067,0.593-1.354,0.339
		C83.078,173.398,85.793,172.787,85.496,174.001z"/>
	<path fill-rule="evenodd" clip-rule="evenodd" d="M120.722,174.34c0.378-0.377,1.5,0.193,0.679,1.016
		C120.788,175.969,119.846,175.215,120.722,174.34z"/>
	<path fill-rule="evenodd" clip-rule="evenodd" d="M127.834,178.404c1.989-1.326,0.278,1.971-0.676,1.018
		C126.764,179.027,127.74,178.468,127.834,178.404z"/>
	<path fill-rule="evenodd" clip-rule="evenodd" d="M72.626,180.438c1.538-0.746-0.049,2.454-0.678,1.016
		C71.717,180.924,72.375,180.559,72.626,180.438z"/>
	<path fill-rule="evenodd" clip-rule="evenodd" d="M80.416,180.776c0.052-0.054,0.711-0.644,1.017-0.339
		C82.704,181.709,78.668,182.523,80.416,180.776z"/>
	<path fill-rule="evenodd" clip-rule="evenodd" d="M69.917,184.841c1.117-1.116,0.278,1.89-0.339,1.016
		C69.25,185.394,69.812,184.945,69.917,184.841z"/>
	<path fill-rule="evenodd" clip-rule="evenodd" d="M116.317,185.18c1.219-1.261,1.136,1.495,0,1.016
		C115.935,186.032,116.11,185.394,116.317,185.18z"/>
	<path fill-rule="evenodd" clip-rule="evenodd" d="M78.384,185.518c0.052-0.053,0.711-0.643,1.014-0.338
		C80.832,186.611,76.637,187.266,78.384,185.518z"/>
	<path fill-rule="evenodd" clip-rule="evenodd" d="M125.463,185.856c1.58-0.851,0.196,1.89-0.678,1.016
		C124.399,186.486,125.355,185.915,125.463,185.856z"/>
	<path fill-rule="evenodd" clip-rule="evenodd" d="M113.608,189.921c0.531-1.252,1.921,0.698,1.017,1.016
		C113.938,191.178,113.407,190.4,113.608,189.921z"/>
	<path fill-rule="evenodd" clip-rule="evenodd" d="M76.353,190.26c1.161-0.426,0.317,1.699-0.678,1.354
		C74.925,191.355,75.63,190.524,76.353,190.26z"/>
	<path fill-rule="evenodd" clip-rule="evenodd" d="M123.093,190.599c0.052-0.135,1.025-0.667,1.356-0.339
		C125.02,190.833,122.517,192.036,123.093,190.599z"/>
	<path fill-rule="evenodd" clip-rule="evenodd" d="M122.414,193.984c1.456-0.909-0.33,1.889-0.678,0.679
		C121.651,194.355,122.238,194.095,122.414,193.984z"/>
	<path fill-rule="evenodd" clip-rule="evenodd" d="M148.834,194.663c3.454-0.927,1.364,5.78-1.355,3.048
		C146.604,196.833,147.765,194.949,148.834,194.663z M149.852,196.356c0.27-0.829-0.602-1.512-1.356-0.678
		C147.279,197.02,149.17,198.435,149.852,196.356z"/>
	<path fill-rule="evenodd" clip-rule="evenodd" d="M64.837,195.002c0.044-0.109,0.736-0.619,1.014-0.339
		C66.584,195.395,64.34,196.206,64.837,195.002z"/>
	<path fill-rule="evenodd" clip-rule="evenodd" d="M74.318,195.002c2.079-1.323-0.129,2.322-0.675,0.677
		C73.541,195.38,74.153,195.106,74.318,195.002z"/>
	<path fill-rule="evenodd" clip-rule="evenodd" d="M111.576,197.033c0.384-1.33,1.406,0.627,1.018,1.016
		C112.34,198.301,111.186,198.394,111.576,197.033z"/>
	<path fill-rule="evenodd" clip-rule="evenodd" d="M158.994,198.727c0.027-0.014,1.885-0.711,2.034,0
		c0.115,0.562-1.069,0.133-1.356,0.34c-0.188,0.135,0.213,0.399,0.339,0.337c-0.898,0.436-1.951,0.779-2.031,0.679
		c-0.912-1.136,0.929-0.225,1.354-0.679C159.386,199.349,158.854,198.799,158.994,198.727z"/>
	<path fill-rule="evenodd" clip-rule="evenodd" d="M61.11,203.47c-0.606-0.171-0.452-1.604,0-1.694
		C62.262,201.544,61.929,203.698,61.11,203.47z"/>
	<path fill-rule="evenodd" clip-rule="evenodd" d="M69.917,202.452c0.066-0.057,0.993-0.701,1.354-0.338
		C72.298,203.142,68.276,203.846,69.917,202.452z"/>
	<path fill-rule="evenodd" clip-rule="evenodd" d="M157.641,198.388c-0.033-0.025-0.656-0.025-0.678,0
		c0.278-0.344,1.59-1.491,0.678-2.37c-0.05-0.047-1.668-0.093-1.018-0.678c0.271-0.241,0.312,0.329,0.34,0.339
		c-0.422-0.16,2.547-0.039,2.031-0.339c0.728,0.424-0.234,0.584,0,1.017c0.008,0.013,0.973,0.629,1.017,0.338
		c-0.234,1.505-1.397,0.729-2.37,1.354C157.731,197.991,158.804,199.309,157.641,198.388z"/>
	<path fill-rule="evenodd" clip-rule="evenodd" d="M158.994,6.005c0.681-0.229,1.152-0.097,1.695,1.016
		c0.399,0.818,0.278,0.766,1.692,1.016c1.199,0.212,1.392,1.715,2.031,3.387c0.901,2.356,0.968,2.455,0.339,5.081
		c-0.402,1.681-0.923,4.429-1.692,6.097c-0.209,0.454-0.915,2.019-1.695,2.37c-0.157,0.072-0.543-0.106-0.675,0
		c-0.287,0.232-0.395,0.794-0.679,1.017c-0.234,0.183-0.771,0.127-1.017,0.338c-0.449,0.389-0.865,1.207-1.354,1.694
		c-0.567,0.566-1.381,0.857-1.695,1.354c-0.192,0.306,0.107,1.003,0,1.355c-0.08,0.27-0.694,1.138-1.015,1.694
		c-0.366,0.631-1.103,1.54-1.694,2.37c-0.378,0.532-1.004,1.309-1.015,1.355c-0.381,1.401-0.083,4.616,0,4.742
		c0.336,0.527,1.579-0.481,1.692,0.339c0.127,0.9-0.05,1.959-0.339,2.37c-0.458,0.651-1.219,0.236-1.354,1.016
		c-0.094,0.533,0.626,2.068,1.015,3.725c0.576,2.452,0.979,5.303,1.355,8.13c0.21,1.578,0.091,3.281,0.339,4.403
		c0.271,1.229,1.181,2.306,1.354,3.386c0.113,0.685-0.345,1.637-0.339,2.709c0.009,1.594,0.367,1.269-0.675,3.048
		c-1.199,2.047-2.594,4.216-4.066,6.435c-2.042,3.079-3.043,5.902-5.079,9.484c-0.552,0.97-0.99,1.295-1.695,2.371
		c3.978-6.072-0.91,1.02-0.676,1.354c0.513,0.737,3.678-0.23,4.402-0.337c0.694-0.105,3.931-0.875,4.404-0.678
		c0.251,0.105,0.502,0.784,0.676,1.016c0.675,0.9,1.513,3.807,0.339,5.419c-0.72,0.991-3.181,1.838-4.741,2.709
		c-0.73,0.41-1.571,0.885-2.37,1.355c-0.659,0.387-2.235,0.932-2.37,1.356c-0.243,0.747,1.962,4.49,2.37,5.757
		c0.73,2.274,0.201,2.988-1.018,5.082c-0.477,0.82-1,2.343-1.692,2.71c-1.259,0.667-2.883-0.399-4.065,0.339
		c-0.973,0.609-0.976,3.459-2.37,4.064c-0.835,0.361-2.627-0.043-3.727,0c-1.105,0.043-2.53-0.178-3.049,0.339
		c-0.673,0.668,0.808,1.274,1.356,2.37c0.068,0.141-0.107,0.569,0,0.677c0.077,0.079,0.634-0.092,0.678,0
		c0.218,0.466-0.195,1.216,0,1.694c0.113,0.282,0.573,0.236,0.676,0.678c0.138,0.583-0.37,1.162-0.337,1.693
		c0.03,0.514,0.662,0.997,0.676,1.355c0.033,0.814-0.637,1.057-0.676,1.692c-0.027,0.392,0.602,0.593,0.676,1.017
		c0.124,0.686-0.433,0.968-0.339,1.355c0.272,1.098,1.358,1.724,1.355,2.37c-0.003,1.072-1.227,2.096-1.355,3.049
		c-0.08,0.59,0.669,1.925,0.678,2.37c0.014,0.834-0.7,1.673-1.015,2.709c-0.499,1.625-0.038,2.91-1.355,3.728
		c0.011-0.007-1.039,0.402-1.018,0.337c-0.239,0.716,0.601,0.69,0.678,1.694c0.03,0.394-0.187,1.528-0.339,2.032
		c-0.146,0.492-0.89,1.125-1.354,1.694c-0.681,0.831-1.565,2.111-2.034,3.725c-0.484,1.677-0.945,3.702-1.692,5.759
		c-0.061,0.169-0.358,0.986-0.339,1.016c0.229,0.318,3.522,0.606,5.08,0.678c5.119,0.231,10.582-0.714,12.872,0.677
		c1.896,1.15,2.668,5.123,4.063,9.146c0.862,2.479,2.02,4.639,2.709,7.113c0.328,1.177,0.43,1.961,1.017,3.386
		c1.025,2.494,2.065,6.682,3.049,9.483c1.004,2.862,2.456,5.805,3.388,9.146c0.353,1.266,0.691,4.758,0,6.097
		c0.003-0.005-2.878,2.175-3.727,2.371c-1.8,0.416-4.622,0-7.45,0c-7.15,0-14.885,0-22.354,0c-18.517,0-36.93-0.339-55.888-0.339
		c-3.719,0-7.194,0.49-9.143-1.016c-0.278-0.216-0.328-0.464-0.678-0.679c-0.951-0.586-1.993-1.84-1.692-4.401
		c0.237-2.039,1.461-4.041,2.371-5.759c0.94-1.779,1.894-3.504,2.709-5.081c1.588-3.076,3.217-6.104,5.08-9.145
		c0.198-0.323,0.516-0.744,0.678-1.017c0.937-1.568,1.651-3.489,2.709-5.419c0.195-0.357,0.783-0.609,1.014-1.016
		c0.593-1.042,1.199-2.584,2.034-3.726c0.496-0.68,1.417-1.224,2.031-2.033c0.32-0.423,0.411-0.989,0.678-1.354
		c0.744-1.016,1.841-2.03,3.049-3.048c0.716-0.605,1.557-1.55,2.031-1.694c1.199-0.362,7.483-0.175,9.821-0.338
		c0.717-0.051,0.907,0.368,1.356,0.338c0.695-0.045,2.001-0.653,3.049-0.338c1.706,0.515,1.882,2.252,3.048,2.71
		c0.488,0.19,1.271-0.094,2.032,0c0.518,0.063,1.028,0.479,1.692,0.338c1.491-0.314,2.946-2.783,4.744-3.726
		c0.692-0.364,1.315-0.145,1.693-0.677c0.333-0.47,0.686-2.824,1.017-4.065c0.364-1.368,0.907-2.855,1.015-3.726
		c0.174-1.36-0.237-2.259,0-3.725c0.284-1.734,1.097-4.001,1.695-5.759c1.312-3.851,2.597-6.945,4.401-10.5
		c0.392-0.767,0.995-1.562,1.356-2.37c0.358-0.808,1.37-2.453,0.678-3.388c-1.014-1.362-0.667-1.273-3.048-1.692
		c-0.813-0.144-1.607-0.339-2.034-0.339c-1.762,0.001-3.465,0.927-6.095,0.677c-1.097-0.104-3.151-0.487-3.388-0.677
		c-0.417-0.335-0.243-1.759-0.678-2.71c-0.444-0.968-1.185-1.668-1.356-2.033c-0.303-0.661-0.64-1.533-1.015-2.37
		c-0.366-0.821-0.504-2-1.017-2.37c-0.584-0.425-2.199-0.177-2.709-0.339c-0.771-0.247-1.629-0.608-2.031-1.018
		c-1.326-1.345-1.662-4.685-1.356-6.096c0.044-0.2,0.604-1.139,1.018-1.694c0.138-0.185,1.367-1.243,1.353-1.354
		c-0.176-1.766-1.706-1.54-1.353-1.355c-0.466-0.244-1.108-0.027-1.692-0.678c-1.136-1.254-0.234-2.652-1.356-3.386
		c-1.993-1.305-6.389,0.344-8.467-0.678c-0.504-0.248-0.463-0.96-1.017-1.016c-0.987-0.098-2.01,0.774-2.371,0.678
		c-0.618-0.167-1.789-1.09-2.709-1.693c-1.737-1.143-2.836-2.112-4.741-3.727c-1.695-1.437-2.48-1.657-2.031-5.08
		c0.116-0.889,0.764-1.738,0.675-2.372c-0.171-1.268-2.833-4.22-3.724-5.758c-0.838-1.444-1.756-3.509-2.709-5.419
		c-0.21-0.418-1.147-1.613-1.356-2.371c-0.226-0.826,0.127-1.883,0-2.709c-0.146-0.948-0.838-1.814-1.017-2.709
		c-0.226-1.155,0.132-2.387,0-3.388c-0.146-1.124-0.761-2.431-1.014-3.725c-0.246-1.251-0.433-2.411-0.678-3.726
		c-0.262-1.419-0.496-2.792-0.678-4.065c-0.234-1.651,0.036-3.499-0.339-4.063C59.335,49.06,59.42,49.39,58.4,49.02
		c-2.285-0.827-0.3-2.999,0-5.08c0.107-0.739-0.061-1.985,0-3.049c0.063-1.14,0.427-2.361,0.339-2.71
		c-0.372-1.438-2.489-2.193-3.049-3.725c-0.446-1.22,0.047-2.568-0.339-3.726c-0.432-1.299-1.391-2.017-2.032-3.048
		c-0.307-0.494-0.382-1.161-0.678-1.693c-0.275-0.497-0.893-0.939-1.016-1.355c-0.32-1.091-0.121-3.128-0.339-4.742
		c-0.299-2.219-1.005-3.688,0.339-5.419c0.511-0.659,5.983-6.52,6.097-1.354c0.017,0.744-0.166,1.027-0.339,1.693
		c-0.617,2.382-1.609,1.907-1.014,4.403c0.438,1.85,1.329,3.289,2.031,5.081c0.287,0.732,0.333,2.044,1.017,0.677
		c0.532-1.066-0.579-1.697,0-3.387c0.276-0.808,1.53-1.112,1.692-2.032c0.314-1.777-1.091-3.433,0.339-4.742
		c0.207-0.19,0.957-0.152,1.353-0.677c0.29-0.38,0.113-0.914,0.339-1.355c0.091-0.177,1.083-2.432,1.695-2.37
		c1.813,0.18,0.964,3.299,1.014,5.081c0.022,0.746,0.463,1.081,0.339,1.693c-0.265,1.296-1.243,1.408-1.353,2.709
		c-0.061,0.695,1.05,1.696,1.014,2.71c-0.025,0.745-0.59,0.917-1.014,1.693c-0.237,0.434-0.582,1.263-0.678,1.694
		c-0.364,1.609-0.223,2.271,0.339,3.725c0.488,1.268,0.684,1.629,0.339,3.387c-0.069,0.346-0.364,1.295-0.339,1.355
		c0.075,0.178,1.208,1.44,2.032,1.693c1.058,0.324,2.558-0.345,4.065,0c1.75,0.401,4.832,3.53,1.354,4.403
		c-0.841,0.211-6.186-0.653-7.111,0c-0.447,0.313,0.75,0.736,1.014,1.016c1.24,1.305,1.345,2.143,0.339,3.725
		c-0.237,0.375-0.91,0.747-1.014,1.356c-0.088,0.501,0.405,2.245,0.675,4.064c0.416,2.791,1.158,9.646,2.034,11.515
		c0.477,1.024,2.108,1.902,2.709,3.048c0.389,0.747,0.027,1.772,0.336,2.709c0.138,0.411,0.659,0.786,1.017,1.356
		c0.659,1.046,1.006,1.896,1.695,3.049c0.703,1.177,1.737,2.737,2.709,4.063c0.637,0.868,1.453,1.574,2.032,2.372
		c0.229,0.318,0.085,0.746,0.339,1.016c0.124,0.135,0.579,0.199,0.675,0.339c0.339,0.49,0.394,1.287,0.678,1.692
		c0.62,0.887,1.428,1.519,2.034,2.372c0.617,0.87,1.097,1.91,1.692,2.709c0.725,0.976,1.745,2.263,2.031,2.372
		c1.577,0.595,6.025-0.338,7.114-0.339c1.706-0.003,2.914,0.339,5.419,0.339c1.037,0,2.61,0.438,3.049,0
		c1.094-1.097-1.392-1.037-2.371-1.695c-0.786-0.526-0.612-0.841-1.695-1.354c-1.003-0.475-0.151-0.799-0.678-2.37
		c-0.265-0.79-1.155-0.382-1.354-1.695c-0.221-1.461,0.339-4.119,1.354-4.402c0.179-0.05,1.654,0.116,1.695,0
		c0.408-1.191-0.771-1.568-1.017-2.033c-0.201-0.382-0.11-0.835-0.339-1.355c-0.085-0.198-1.017-1.315-1.014-2.031
		c0.002-0.83,0.523-1.125-0.339-2.372c-0.085-0.121-0.631-0.231-0.678-0.337c-0.108-0.239-1.031-2.902-1.356-3.049
		c0.499,0.225-5.452,0.003-5.419,0c0.047-0.005-1.739,0.31-2.031-0.339c-0.221-0.491,0.816-1.822,1.356-2.709
		c0.471-0.78,1.695-1.771,1.692-2.371c0-0.427-0.499-0.445-0.678-0.678c-0.929-1.219-1.916-3.203-1.353-5.419
		c0.27-1.073,0.496-1.236,1.353-2.37c0.819-1.086,1.558-1.712,3.727-2.372c-0.212,0.065,1.05-0.61,1.018-0.339
		c0.069-0.539-2.401-0.357-3.049-1.355c-0.231-0.353-0.469-4.873,0-5.419c0.576-0.672,3.506-0.634,4.741-0.678
		c0.857-0.03,4.534-0.128,5.08,0.339c1.715,1.468-0.088,3.357,0.678,4.065c0.077,0.072,4.562,1.139,5.758,0.338
		c0.678-0.454,0.273-3.659,1.018-4.403c0.824-0.827,4.019-0.65,5.755-0.677c1.439-0.022,4.601-0.82,5.759,0.337
		c0.747,0.747-0.935,5.554-1.692,6.097c-1.21,0.868-3.3,0.306-5.419,0.339c-2.026,0.031-4.993-0.26-5.081,1.016
		c-0.052,0.759,2.1,0.379,2.371,0.339c-2.315,0.352,1.8-0.746,2.71-0.677c0.611,0.044,3.249,1.07,3.727,1.692
		c1.207,1.58,2.317,3.468,3.724,5.419c1.521,2.11,3.837,4.914,4.065,6.097c0.386,2.012-0.171,3.305-0.678,4.403
		c-0.075,0.164-0.188,0.831-0.34,1.016c-1.083,1.341-2.723,0.885-3.048,3.049c-0.24,1.608,0.852,2.784,1.355,4.064
		c1.423,3.626,1.437,7.703,0.34,12.532c-0.196,0.857-0.615,1.351-0.34,1.694c0.759,0.947,3.758,0.106,5.08,0
		c0.257-0.021,1.55,0.172,1.692,0c0.37-0.438-1.163-3.939-1.692-5.419c-1.573-4.395-2.844-5.693-1.692-10.5
		c-0.027,0.116,0.692-3.401,0.676-3.386c-0.21,0.202,5.51-1.013,6.775-0.339c0.477,0.253,1.912,4.586,2.37,5.758
		c0.193,0.496,1.213,2.891,1.695,4.403c0.493,1.552,0.003,2.366,1.014,1.354c0.08-0.079,0.643-0.26,0.679-0.339
		c0.074-0.167-0.104-0.531,0-0.677c0.085-0.116,0.631-0.236,0.678-0.339c0.317-0.706,0.753-1.875,1.354-2.71
		c0.086-0.117,0.631-0.234,0.678-0.339c0.075-0.163-0.107-0.539,0-0.678c0.224-0.29,0.794-0.392,1.018-0.677
		c0.201-0.259,0.115-0.728,0.339-1.016c0.552-0.72,1.279-1.125,1.692-1.694c0.477-0.658,0.606-1.432,1.018-2.033
		c0.082-0.123,0.628-0.229,0.675-0.339c0.08-0.172-0.102-0.521,0-0.677c0.086-0.125,0.629-0.229,0.678-0.337
		c0.08-0.177-0.102-0.519,0-0.678c0.083-0.129,0.626-0.226,0.679-0.339c0.251-0.56,0.35-1.367,1.014-2.032
		c0.271-0.269,1.133-0.628,1.356-1.356c0.658-2.147-0.188-11.078-0.339-14.226c-0.069-1.435,0.396-3.654,0-4.402
		c-0.584-1.103-3.481-0.906-3.727-1.694c-0.397-1.28,1.78-1.351,2.373-2.709c-0.154,0.35,0.7-5.395,0.676-5.42
		c-0.411-0.412-2.671,0.311-3.049,0.339c-0.979,0.074-2.479,0.2-3.385,0c-1.348-0.296-1.85-1.6-3.388-2.709
		c-0.888-0.641-4.052-1.084-3.727-2.71c0.333-1.658,2.759-1.53,4.741-1.016c2.098,0.543,2.706,2.221,3.727,2.371
		c1.154,0.169,2.971-1.244,4.404-1.355c1.472-0.114,0.907,1.067,2.37,0.339c0.599-0.297,1.464-2.07,2.371-3.726
		c0.719-1.312,1.461-2.635,2.031-3.726c0.691-1.322,1.485-2.621,2.031-3.725c0.519-1.042,0.891-2.115,1.356-3.048
		C158.054,15.677,155.612,7.144,158.994,6.005z M158.655,12.779c0.017,0-0.017-0.949,0-1.016c0.127-0.464,1.414-4.152,0.339-3.048
		C158.737,8.98,157.597,12.788,158.655,12.779z M161.364,11.763c0.224,1.456,0.493,1.167,1.356,1.016
		c1.596-0.278,1.166-0.315,0.678-2.032c-0.402-1.412-0.788-2.6-1.695-1.693C161.348,9.409,161.205,10.72,161.364,11.763z
		 M64.159,13.457c0.849,0.849,1.646-1.714,0.678-1.355C64.495,12.229,63.897,13.195,64.159,13.457z M55.691,13.457
		c1.136,1.237,0.904-3.101,0-1.016C55.655,12.521,55.639,13.399,55.691,13.457z M53.659,16.166c0.763-0.212,0.795-2.572,0.676-3.048
		c0.006,0.021,0.003,0.338,0,0.338C52.949,13.685,52.771,16.413,53.659,16.166z M162.382,15.828
		c1.304,1.303,2.768-3.373,0.678-2.032C162.657,14.053,161.806,15.25,162.382,15.828z M159.672,17.521
		c0.816-0.049,2.743-4.513,0-3.048C158.398,15.153,158.426,17.595,159.672,17.521z M51.965,17.521c0.359-0.116,1.187-2.565,0-1.693
		C51.436,16.217,51.021,17.825,51.965,17.521z M160.351,19.553c1.201,1.201,3.048-4.432,1.014-2.709
		C161.075,17.089,160.369,19.574,160.351,19.553z M64.159,19.214c0.408-0.228,0.568-2.213,0.678-2.032
		c-0.078-0.123-1.183,0.031-1.356,0c-0.538-0.094-0.593-0.509-1.017,0C61.201,18.702,62.651,20.059,64.159,19.214z M55.352,18.537
		c0.361-0.289-0.519-1.016-0.677-1.016c-0.281,0-0.305,0.334-0.339,0.339C51.757,18.244,54.862,18.93,55.352,18.537z M51.965,19.892
		c0.256,0.836,0.107,1.717,1.016,1.355c0.79-0.314-0.36-2.965-0.677-3.387c0.01,0.014,0.004,0.337,0,0.339
		C51.305,18.6,51.632,18.805,51.965,19.892z M156.963,19.553c-0.422,1.057-0.62,1.245-1.018,2.032
		c-0.399,0.793-2.161,4.723-0.339,2.371c0.932-1.2,1.83-2.514,2.034-3.726c0.224-1.34,0.036-1.489-0.339-1.355
		C157.296,18.878,156.974,19.525,156.963,19.553z M55.352,19.214c-0.304-0.304-0.963,0.286-1.017,0.339
		C53.528,20.36,55.779,19.642,55.352,19.214z M160.689,22.94c1.066,1.262,2.447-4.142,0.339-2.032
		C160.425,21.51,160.13,22.279,160.689,22.94z M157.641,23.957c-0.13,0.107-0.582,0.275-0.678,0.338
		c-0.535,0.355-2.018,0.92-2.032,1.694c0.006-0.245,0.759,0.406,0.676,0.338c0.852,0.702,0.366,0.652,1.017,0
		c0.56-0.559,4.011-3.102,3.049-4.064c-0.209-0.21-0.705,0.34-0.678,0.339C157.892,22.65,157.665,23.935,157.641,23.957z
		 M55.352,24.295c1.987,2.643,2.45-1.133,1.017-1.693c-0.493-0.193-0.833,0.242-1.017,0.338
		C54.483,23.388,54.801,23.562,55.352,24.295z M61.11,23.618c-0.471,1.563-1.105,1.041,0.339,1.354
		c0.744,0.162,1.59,0.894,2.031,0.339c0.218-0.275,0.229-2.482,0-2.709c-0.3-0.302-1.742-0.083-2.371,0.338
		C61.033,22.991,61.141,23.517,61.11,23.618z M53.997,24.633c0.485-0.484-0.918-2.595-1.355-1.354
		C52.396,23.978,53.25,25.381,53.997,24.633z M56.369,30.053c1.433-0.244-0.237-2.141-0.339-2.371
		c-0.681-1.51-1.409-2.399-1.695-2.71c0.013,0.013-0.002,0.339,0,0.339C51.604,25.829,56.317,30.062,56.369,30.053z M151.204,30.73
		c-0.466,0.875-2.99,4.969-1.353,4.403c1.606-0.557,1.788,0.332,2.709-1.017c0.532-0.781,1.293-1.67,1.692-2.371
		c0.725-1.272,1.216-4.446,0.339-5.08c-0.386-0.278-0.935,0.313-1.017,0.338C152.745,27.27,151.455,30.26,151.204,30.73z
		 M58.4,30.053c0.348-0.65,2.588-1.454,2.371-1.694c-0.513-0.566-2.362,0.332-2.371,0.339c-0.118,0.107-0.979,0.572-1.017,0.677
		c-0.43,1.187,0.675,0.579,0.339,2.032c-0.028,0.117-1.042-0.228-1.015-0.338c-0.083,0.352-0.336,1.225-0.339,1.693
		c-0.011,1.004,2.001,4.85,3.048,3.726c0.648-0.698-0.697-2.43-0.678-2.032C58.69,33.452,57.436,31.862,58.4,30.053z M62.802,30.392
		c-0.063-0.001,0.681-0.675,0.678-0.678c-0.174-0.227-1.075-0.203-1.354-0.338c-0.265-0.128-0.948-1.432-0.678-0.339
		c0.008,0.031,0.312-0.027,0.339,0C62.229,29.511,62.408,30.381,62.802,30.392z M59.079,32.085c0.028,3.143,0.764,2.135,2.371,1.693
		c1.987-0.548-0.278-4.755-1.695-4.065c-0.047,0.024,0.047,0.307,0,0.339C58.853,30.708,59.076,31.79,59.079,32.085z M63.819,31.069
		c-0.168-0.168-0.678,0.204-0.678,0.338C63.142,32.134,64.175,31.424,63.819,31.069z M134.947,31.408
		c-0.788,0.844,1.574,0.269,2.032,0.338c0.664,0.102,3.781,1.637,3.727,1.694c0.65-0.651-1.905-1.667-1.018-1.016
		c2.506,1.837-0.859-0.954-1.017-1.017c-1.585-0.638-2.721-0.06-3.046,0C135.507,31.429,135.022,31.328,134.947,31.408z
		 M63.142,33.779c1.185,1.184,0.355-2.449,0-0.678C63.125,33.182,63.092,33.727,63.142,33.779z M143.415,34.794
		c0.676,0.678,5.989-0.593,5.419-1.693c-0.083-0.16-1.177-0.004-1.695,0C146.635,33.106,142.55,33.929,143.415,34.794z
		 M140.706,36.149c1.447,1.447,2.034-3.417,0.339-1.693C140.852,34.652,140.358,35.803,140.706,36.149z M64.498,35.472
		c0.042-0.882-3.142-1.083-3.048-0.678c0.188,0.812,1.971,0.754,2.709,0.678C64.12,35.476,64.47,36.004,64.498,35.472z
		 M61.11,35.472c-0.093-0.093-0.838,0.178-0.678,0.339C60.526,35.904,61.27,35.632,61.11,35.472z M148.156,41.568
		c0.021,0-0.02-1.249,0-1.354c0.097-0.535,0.832-3.117,2.031-2.709c1.367,0.463,0.053,5.369,1.356,4.064
		c-0.18,0.178,0.391-3.152,0-4.402c0.019,0.062-1.252-1.437-1.018-1.355c-0.882-0.308-2.128,1.104-2.37,2.371
		c-0.116,0.604,0.088,1.456,0,2.032C148.288,39.349,147.15,41.603,148.156,41.568z M70.595,37.843
		c0.584,0.486,1.643,3.051,1.692,1.354c0.005-0.227-0.466-1.749-1.692-2.032c-0.485-0.112-1.257,0.01-1.356,0.338
		C69.258,37.439,70.528,37.79,70.595,37.843z M67.885,37.843c0.047,0.081-2.098-0.491-1.017,0
		C66.697,37.766,68.257,38.486,67.885,37.843z M63.819,38.859c1.183,1.184,0.356-2.449,0-0.677
		C63.803,38.263,63.767,38.808,63.819,38.859z M61.11,41.908c1.591,0.376,0.904-3.899-0.339-2.71
		C60.068,39.871,60.719,41.815,61.11,41.908z M59.754,42.923c0.838-0.028-0.405-1.726-0.675-0.677
		C59.106,42.14,59.71,42.926,59.754,42.923z M59.417,45.293c-0.231-0.098,0.673-0.674,0.675-0.676
		c0.965-0.963,1.254-0.76,2.709-1.016c0.631-0.111,1.293-0.54,2.035-0.339c1.08,0.295,0.592-0.449,0-1.016
		c-0.745-0.711-1.88-0.04-2.035,0c-0.322,0.084-0.424-0.39-0.675-0.339c-0.386,0.078-1.146,0.86-1.356,1.016
		c-0.846,0.634-1.227,0.969-1.354,2.033C59.401,45.085,58.913,45.079,59.417,45.293z M151.544,42.923
		c1.157-0.237,1.499,0.402,1.692-0.677c0.118-0.659-0.684,0-0.676,0C150.747,42.278,148.299,43.587,151.544,42.923z M115.981,48.004
		c0.774-0.689,1.458-2.735,1.692-3.387c0.728-2.03-0.342-1.391-1.356-1.355c-1.546,0.055-6.794-0.751-7.789,0
		c-0.08,0.061,0.162,1.582,0,2.371c-0.133,0.65-1.709,2.89-1.015,2.709c0.57-0.147,1.499-2.734,1.015-1.692
		c0.336-0.724,0.127-1.521,1.017-2.033c0.104-0.062,1.753-0.284,2.371-0.338c2.254-0.201,4.023-0.052,4.401,0.677
		c0.56,1.075-1.089,1.956-0.336,2.709C115.717,47.402,115.725,48.229,115.981,48.004z M90.915,43.601
		c-0.783,0.784,0.278,2.675,0.339,2.71c-0.344-0.19,0.361-1.05,0.339-1.018c0.477-0.763,1.987-0.917,3.388-1.014
		c1.584-0.112,3.542-0.077,4.065,0.338c0.764,0.607,0.185,3.176,0.675,3.725c0.433,0.483,3.093,0.679,3.048,0.678
		c1.604,0.053,4.948-0.398,2.032-0.678c-1.943-0.185-4.043,0.188-4.741-0.677c-0.207-0.255-0.135-3.869-0.339-4.064
		c-0.535-0.513-6.993-0.198-7.451,0C91.992,43.723,91.121,43.395,90.915,43.601z M146.125,44.617
		c-0.03,1.249,3.288-1.074,3.387-1.355c0.053-0.153-0.915,0.349-0.678,0.339C147.385,43.662,146.155,43.381,146.125,44.617z
		 M62.463,45.633c0.995,3.944,2.004,10.532,2.712,14.564c0.141,0.802,0.226,1.583,0.336,2.371c0.152,1.059,0.215,2.359,0.339,2.709
		c0.141,0.391,1.99,2.415,2.034,2.372c0.027-0.029-0.967-5.511-1.017-5.758c-0.708-3.557-1.853-7.46-2.371-11.177
		c-0.414-2.967,0.094-7.884-1.695-6.097C62.577,44.844,62.309,45.021,62.463,45.633z M149.173,44.956
		c-0.295,0.684,0.268,1.803,0.339,2.709c0.105,1.369-0.068,2.944,0,4.403c0.103,2.195,0.077,11.742,1.015,12.193
		c-0.46-0.222,0.694-1.031,0.678-1.016c0.954-0.854,2.771-1.29,3.049-2.031c0.066-0.175-0.44-3.057-0.678-4.742
		c-0.094-0.685-0.234-1.523-0.339-2.372c-0.1-0.817-0.254-1.832-0.34-2.37c-0.154-0.991-1.224-6.189-1.692-6.097
		c0.119-0.022,0.34,5.431,0.34,2.033c0,3.931-2.528-0.147-1.356-2.372c0.033-0.061,0.596,0.023,0.678,0
		c0.673-0.179,0.485-1.212-0.339-0.676C150.295,44.767,149.267,44.74,149.173,44.956z M61.788,46.65
		c0.185-0.186-0.606-2.145-0.678-1.017C61.091,45.928,61.543,46.892,61.788,46.65z M61.11,51.73c0.551,2.577-0.234,0.165,0.678,0
		c0.124-0.022,0.678,0.335,0.675,0.339c-0.088,0.213,0.347-1.577,0-2.033c-0.188-0.25-0.965,0.362-1.014,0.339
		c-1.414-0.67,0.141-4.194-1.017-2.709C59.883,48.373,60.881,50.655,61.11,51.73z M62.127,48.681
		c0.053-0.235-0.118-1.971-0.339-1.016C61.49,48.954,61.97,49.362,62.127,48.681z M91.593,48.004c0-0.188-0.339-0.384-0.339,0
		C91.253,48.192,91.593,48.389,91.593,48.004z M95.658,50.036c-0.027-0.092,4.135,1.004,3.724,1.354
		c0.322-0.273-0.309-1.289-0.336-1.354c-0.303-0.671-3.655-0.403-3.727,0C95.319,50.038,95.656,50.029,95.658,50.036z
		 M107.174,53.761c-0.722,1.844-1.183,5.141,0.339,6.436c0.146,0.125,1.395,0.687,1.354,0.678c0.871,0.176,3.214,0.008,4.401-0.678
		c1.376-0.794,2.936-3.82,2.374-6.436c-0.02-0.087-0.618-0.538-0.679-0.677c-0.248-0.563,0.039-0.98-0.339-1.354
		c-0.738-0.736-2.246-1.042-4.065-0.678C108.492,51.466,107.819,52.11,107.174,53.761z M89.9,60.197
		c0.019,0.02,0.716,0.358,0.678,0.339c3.435,1.627,6.731-1.373,7.112-3.727c0.697-4.322-1.508-6.301-5.08-5.758
		c-2.009,0.306-4.592,3.076-4.744,4.405c-0.19,1.688,0.65,2.614,1.695,3.725C89.804,59.439,89.639,59.959,89.9,60.197z
		 M99.382,52.747c0-0.055-1.819-1.697-1.692-0.678C97.819,53.105,99.391,53.181,99.382,52.747z M62.802,52.747
		c0-0.189-0.339-0.386-0.339,0C62.463,52.934,62.802,53.13,62.802,52.747z M104.126,53.761c0.265-0.266-0.764-2.157-1.017-1.014
		C102.968,53.384,103.384,54.502,104.126,53.761z M101.077,54.439c0.259-0.177-1.433-2.012-1.356-1.016
		c0.003,0.021,0.325-0.023,0.339,0C100.658,54.418,100.331,54.949,101.077,54.439z M62.802,57.488
		c-0.193,0.181-1.017-0.29-1.014-0.339c0.003-0.083,0.157,2.075,0.339,2.37c0.097,0.163,1.172,0.116,1.354,0.339
		c0.604,0.737,0.345,4.056,0.339,4.065c-0.176,0.364-1.328-0.333-1.017,0.677c0.237,0.761,1.943,0.456,2.035,0.339
		c0.347-0.451-1.685-9.436-1.695-9.483c-0.188-0.866,0.129-0.764-0.339-0.678C62.703,54.796,62.808,57.484,62.802,57.488z
		 M100.06,57.827c-0.193,0.395-1.541,2.861-1.353,3.049c0.242,0.242,3.514,0.007,4.402,0c1.94-0.017,3.603,0.287,4.065-0.339
		c-0.436,0.587-1.753-3.068-1.695-2.71c-0.132-0.801,0.314-2.787,0-3.048c-0.562-0.471-3.15,0.065-3.724,0.339
		C100.545,55.691,100.49,56.95,100.06,57.827z M118.69,59.182c0.091-0.092-2.238-4.519-1.695-2.709
		C117.128,56.915,118.401,59.471,118.69,59.182z M116.995,57.827c-0.265-0.532-0.639-1.043-0.339-0.339
		C117.023,58.341,117.491,58.816,116.995,57.827z M117.335,60.537c1.741,2.285-1.062-2.663-1.354-2.371
		c-0.414,0.412,0.64,0.951,0.675,1.016C117.577,60.805,116.888,59.949,117.335,60.537z M116.995,61.891
		c0.11,0.087,0.56,0.63,0.679,0c-0.033,0.178-0.865-0.693-1.356-1.354c-0.102-0.141-1.1-2.476-1.015-1.018
		c0.006,0.132,0.588,0.346,1.015,1.018C116.73,61.181,116.544,61.533,116.995,61.891z M119.027,61.891
		c-0.425,0.895-2.978,2.399-2.032,3.386c0.18,0.189,2.944,3.407,2.71,3.388c1.544,0.121,2.026-2.315,2.37-3.726
		c0.1-0.401,0.695-0.641,0.679-1.016c0.011,0.207-0.519-1.078-1.018-2.033c-0.874-1.684-1.419-2.617-2.031-2.372
		C118.997,59.806,119.33,61.258,119.027,61.891z M116.995,63.246c0.066-0.064-1.72-3.699-2.37-3.048
		C114.082,60.74,116.762,63.481,116.995,63.246z M92.61,64.939c-0.876,0.236-3.054,0.214-3.388,0
		c-0.573-0.368,0.218-1.856-0.339-1.694c-0.4,0.116-0.132,0.976-0.339,1.355c-0.634,1.162-1.805,0.448-1.014,1.355
		c0.273,0.314,2.583,0,2.709,0c3.457,0,3.435-0.408,4.402-2.032c0.276-0.466,1.456-2.008,0.678-2.033
		c-0.179-0.005-0.223,0.94-0.339,1.016C94.076,63.502,93.74,64.635,92.61,64.939z M111.237,63.924
		c1.659-0.066,2.743,0.353,2.71-0.678c-0.02-0.659-2.969,0.354-4.741,0c-0.904-0.18-0.361-1.336-1.018-0.678
		C106.562,64.208,109.592,63.987,111.237,63.924z M100.06,63.585c-0.501,0.015-1.1-0.718-1.353-0.678
		c0.126-0.019-0.323,0.666-0.339,0.678c-0.011,0.007-0.937,0.166-0.678,0.339c0.592,0.397,4.481,0.32,5.08,0.338
		c0.799,0.023,1.668-0.346,2.371-0.338c1.315,0.014,1.246,0.821,1.695-0.339c0.375-0.97-1.009,0.083-1.695-0.339
		c-0.27-0.167,0.132-0.623-0.339-0.678c0.179,0.022-0.287,0.659-0.336,0.678c-0.623,0.234-1.428-0.689-1.695-0.678
		c0.116-0.004-0.262,0.645-0.339,0.678c-0.764,0.326-1.433-0.685-1.354-0.678v0.339C100.868,62.926,100.683,63.565,100.06,63.585z
		 M153.575,63.924c0.507,0.008,1.623,1.122,1.695,1.016c0.104-0.158,0.049-1.163,0-1.354c-0.265-1.002-1.4-0.648-2.034-0.339
		c-0.519,0.252-1.323,1.006-1.692,2.032C151.174,66.304,152.748,63.907,153.575,63.924z M113.608,64.601
		c-0.171-0.172-1.186,0.167-1.015,0.339C112.765,65.112,113.779,64.771,113.608,64.601z M95.319,68.326
		c0.485,0.507,1.565,2.507,2.031,2.371c1.009-0.292-2.558-5.717-3.048-4.402C94.203,66.562,95.402,68.414,95.319,68.326z
		 M64.159,67.987c0,1.652,0.504,1.48,1.353,1.017c1.952-1.062-0.204-2.554-1.353-2.709c-0.005-0.001,0.011,0.322,0,0.339
		C64.015,66.815,64.159,67.742,64.159,67.987z M106.496,67.649c-1.251,1.118,1.323,2.251,2.032,1.694
		c0.281-0.22,0.295-1.884,0-2.033c-0.455-0.231-0.869,0.276-1.015,0.339C107.296,67.742,106.667,67.496,106.496,67.649z
		 M147.479,68.326c-0.8,1.311-1.208,1.972-1.692,3.049c-0.05,0.11-0.593,0.213-0.679,0.339c-0.204,0.305-0.176,0.754-0.339,1.016
		c-0.529,0.851-1.022,1.3-1.354,2.033c-0.055,0.118-0.647,0.175-0.678,0.339c-0.234,1.24,1.246,0.766,1.356,2.031
		c-0.03-0.347-0.535,1.064-0.679,1.355c-1.384,2.81-2.473,4.566-3.727,7.113c-0.402,0.818-1.596,2.54-1.354,3.048
		c0.127,0.268,2.731,1.6,4.063,1.016c0.774-0.337,0.452-1.587,1.017-2.709c0.204-0.406,0.885-0.786,1.015-1.016
		c0.336-0.588,0.519-1.039,0.678-1.354c1.938-3.783,2.603-6.228,4.744-9.146c1.022-1.395,1.227-1.989,2.37-3.725
		c-0.014,0.021,1.811-2.158,1.692-2.371c-0.066-0.117-1.853,0.116-3.727-0.678c-1.607-0.682-1.516-1.385-2.37-1.016
		C147.781,67.665,147.511,68.273,147.479,68.326z M112.255,70.02c-0.207,0.46-1.94,1.108-1.356,1.694
		c0.322,0.321,3.046-2.539,3.388-3.048c0.794-1.181-0.097-0.652,0-0.678C112.85,68.362,112.563,69.332,112.255,70.02z M97.69,69.004
		c0.479,1.382,1.171,0.593,2.37,1.355c0.028,0.018,1.326,1.321,1.356,1.354c0.242,0.284,0.11,0.689,0.339,1.016
		c0.852,1.22,0.846,0.277,1.014-0.677c0.05-0.281,0.527-0.645,0.339-1.017c-0.185-0.365-0.689,0.168-1.692-0.339
		c-0.353-0.176-1.081-0.935-1.695-1.354c-0.915-0.628-1.894-1.525-2.031-1.017C97.654,68.459,97.646,68.875,97.69,69.004z
		 M64.498,72.052c-0.104,0.962,0.405,1.32,1.014,2.71c0.854,1.946,1.075,3.051,1.695,4.064c0.846,1.379,1.717,2.685,2.371,3.725
		c0.813,1.297,1.599,2.748,3.048,4.743c0.243,0.334,0.744,0.61,1.017,1.016c0.615,0.92,2.087,3.521,2.709,3.387
		c0.044-0.009-0.024-0.937,0-1.017c0.127-0.419,0.844-1.467,1.015-1.692c0.173-0.227,0.692-0.259,0.678-0.678
		c-0.008-0.229-1.599-1.909-1.692-2.032c-0.226-0.295-0.113-0.69-0.339-1.017c-0.973-1.389-2.621-2.15-2.034-3.387
		c-0.039,0.085,1.375-0.725,1.695-0.677c0.865,0.132,2.133,2.713,2.37,3.048c0.312,0.437,0.946,0.784,1.354,1.355
		c0.67,0.934,0.166,1.67,1.356,1.694c1.006,0.018,1.298-0.965,1.017-2.033c0.024,0.097-0.761-0.659-1.017-1.016
		c-1.07-1.493-1.478-2.168-2.371-3.386c-1.414-1.934-2.938-3.955-4.066-5.758c-0.375-0.603-0.84-1.511-1.014-1.694
		c-0.648-0.677-0.62-1.352-1.017-2.033c-1.317-2.256-2.114-2.572-4.065-2.371C66.604,69.169,64.759,69.62,64.498,72.052z
		 M104.465,72.052c-0.367,0.538-0.11,6.102,1.014,3.726c0.769-1.624,1.478-2.324,2.371-3.386c0.271-0.321,1.105-1.149,1.018-1.356
		c-0.251-0.579-1.541-0.019-1.693,0C106.527,71.124,105.005,71.256,104.465,72.052z M97.351,72.052
		c-0.195,0.877,0.46,2.312,1.017,3.386c1.224,2.375,2.663,3.057,1.354,1.016c-0.433-0.676-1.513-2.313-1.014-3.386
		c0.204-0.438,1.646-0.972,1.692-0.339c-0.132-1.776-1.819-1.512-2.032-1.354C97.996,71.653,97.466,71.544,97.351,72.052z
		 M125.463,71.375c-0.316,0.285,0.022,2.173,0,2.37c-0.201,1.749-2.056,4.148,0.339,3.727c0.712-0.126,3.35-0.237,3.727-0.678
		c0.328-0.38,0.337-4.049,0.34-4.064c0.399-2.464-0.062-1.48-1.695-1.354C127.96,71.391,125.901,70.98,125.463,71.375z
		 M130.543,74.423c-0.396,3.006-0.284,3.308,0.339,5.419c0.557,1.883,1.285,2.762,1.695,4.403c0.251,1.01,0.631,2.576,0,2.709
		c-0.071,0.015-1.02-1.934-1.695-4.064c-0.129-0.411,0.116-0.939,0-1.355c-0.058-0.208-0.59-0.682-0.678-1.016
		c-0.259-0.995-0.358-2.725-0.336-2.709c-0.328-0.239-1.627,0.295-2.374,0.339c-1.736,0.098-2.323-0.543-2.709,0
		c-0.21,0.295,1.229,3.603,2.034,5.758c0.581,1.559,1.326,3.25,1.692,4.402c0.703,2.201,0.319,1.392,1.692,2.031
		c1.056,0.494,0.75,0.783,1.356-0.337c0.466-0.864,1.254-2.361,1.692-3.049c0.967-1.512,2.907-2.981,2.034-4.403
		c-0.571-0.926-1.025-1.875-1.356-2.709c-0.56-1.419-0.894-2.944-1.354-4.064c-0.278-0.674-0.606-1.148-0.678-1.355
		c-0.331-0.948-0.485-3.266-1.018-2.709C131.031,71.558,130.673,73.449,130.543,74.423z M108.528,73.407
		c-0.883,1.123-2.026,2.627-2.71,3.725c-0.254,0.408-2.073,1.992-1.692,2.371c-0.436-0.434,1.361,0.422,2.031,0
		c0.025-0.015,0.455-1.403,0.678-1.692c1.48-1.935,4.413-3.764,4.063-4.742c-0.271-0.762-1.472-0.411-1.692-0.339
		C108.773,72.871,108.773,73.094,108.528,73.407z M109.545,77.811c-0.077,1.822-0.49,1.158,1.354,1.354
		c2.258,0.24,2.489,1.46,3.388,3.727c0.499,1.257,0.868,4.239,1.695,3.727c-0.141,0.085,0.38-1.647,0.336-1.356
		c0.543-3.566-1.144-9.921-2.031-10.499c-0.381-0.249-0.987,0.34-1.018,0.339C111.26,74.944,109.605,76.369,109.545,77.811z
		 M117.674,75.778c0-0.189-0.339-0.385-0.339,0C117.335,75.966,117.674,76.162,117.674,75.778z M141.72,76.793
		c-1.77,2.238-3.299,4.576-4.74,6.775c-2.327,3.546-8.944,11.318-5.08,15.579c1.78,1.964,3.451,1.435,4.401,0
		c0.204-0.307,0.502-0.423,0.679-0.677c0.604-0.861,0.852-2.293,1.355-3.048c0.635-0.953,1.517-1.279,2.032-2.032
		c0.171-0.25,0.399-0.89,0.678-1.354c1.549-2.609,0.132-1.05-2.034-2.033c-2.359-1.072-1.018-2.488,0-4.403
		c0.593-1.114,0.938-2.24,1.356-3.049c0.793-1.531,3.131-4.322,2.709-6.097c-0.165-0.695-1.367-0.276-1.017-0.338
		C142.067,76.115,141.745,76.765,141.72,76.793z M118.013,77.811c0.493,2.467,0.989,4.35,0.678,7.111
		c-0.206,1.811-1.987,4.789-1.695,5.082c0.853,0.852,1.627-1.534,1.695-1.694c0.833-1.953,0.871-4.871,0.676-6.774
		c-0.083-0.823-1.406-5.605-1.692-4.742C117.503,77.306,117.977,77.631,118.013,77.811z M96.673,79.503
		c-0.271,0.91-0.775,2.399,0,3.048c0.479,0.402,1.047-0.209,2.373-0.339c0.292-0.027,1.502,0.19,1.692,0
		c0.571-0.569,0.121-3.589,0-3.725c0.058,0.064-3.95,0.193-4.065,0.339C96.576,78.949,96.72,79.349,96.673,79.503z M101.417,82.212
		c0.074,0.153,1.155,0.248,1.353,0.339c0.924,0.425,0.962,1.09,1.356,0.678c0.058-0.061,0.333-2.293,0-3.048
		c-0.036-0.077-0.926-0.62-1.017-0.678c-1.224-0.764-1.144-0.558-1.354-0.339C101.538,79.39,101.35,82.08,101.417,82.212z
		 M105.14,83.229c0.339,0.28,4.524-0.442,4.744-0.678c-0.413,0.441,0.012-1.069,0-1.016c0.047-0.219,0.16-1.503,0.34-1.354
		c-0.609-0.507-4.775,0.364-4.745,0.339C104.978,80.931,104.677,82.846,105.14,83.229z M112.594,87.97
		c0.322,0.877,1.538,6.548,2.709,6.097c0.022-0.008,0.819-1.681,0.679-3.387c-0.027-0.316-0.609-0.966-1.018-2.032
		c-0.295-0.771-0.399-1.891-0.678-2.709c-0.284-0.841-0.783-1.635-1.018-2.371c-0.675-2.139-0.711-3.427-1.692-3.048
		C109.195,81.438,111.742,85.661,112.594,87.97z M77.028,85.6c0.317,0.43,0.348,1.213,0.678,1.694c0.604,0.88,1.02,0.54,1.017,1.354
		c-0.005,0.73-1.521,1.416-1.695,2.032c-0.752,2.695,1.009,3.794,1.695,4.742c0.325,0.451,0.995,2.39,1.692,2.033
		c0.058-0.03,0-0.925,0-1.017c0-2.034,0.168-1.469,1.017-3.047c0.174-0.324,0.127-0.669,0.339-1.017
		c0.458-0.75,2.718-2.439,2.709-3.047c-0.006-0.265-0.761-1.069-1.017-1.356c-2.131-2.39-1.762,0.951-3.388,0.339
		c-0.083-0.03-1.265-2.229-1.354-2.371c-0.871-1.401-2.897-4.556-3.727-3.727C74.048,83.161,76.513,84.895,77.028,85.6z
		 M105.818,89.664c-0.061-0.009,0.328-0.663,0.339-0.676c0.846-1.155,4.422-0.358,5.08-1.018c0.444-0.442-1.494-0.322-1.692-0.339
		c-0.929-0.072-4.08,0.168-4.405,0.339C104.553,88.279,105.256,89.583,105.818,89.664z M75.675,96.438
		c0.38,0.191,0.03-0.291,0-0.338c-0.469-0.688-2.597-2.398-3.049-3.048c-0.942-1.354,0.215-1.695,0.339-3.388
		c0.022-0.307,0.328-0.095,0-0.676c-1.406-2.486-1.549,3.528-1.356,4.064c0.097,0.262,2.114,1.493,2.371,1.694
		c0.284,0.219,0.38,0.808,0.678,1.016c0.151,0.106,0.51-0.087,0.678,0C75.474,95.832,75.509,96.357,75.675,96.438z M105.818,91.358
		c-0.852,1.184-1.756,2.262-2.032,3.388c-0.069,0.275-0.43,1.022,0,1.354c0.281,0.218,2.704,0.152,3.388,0
		c0.996-0.222,1.872-0.539,1.693-1.354c-0.011-0.055-1.547,0.003-1.693,0c-3.123-0.08-1.488-1.205-0.678-3.049
		c0.717-1.629,0.32-2.266,2.032-2.37c1.392-0.087-0.449-0.514-1.015,0C106.769,90.002,106.348,90.625,105.818,91.358z
		 M152.222,94.407c1.706-0.487,0.443-5.541-1.018-4.066C150.141,91.417,151.706,94.553,152.222,94.407z M81.772,97.455
		c-0.078-0.284,0.532,1.185,0.675,1.355c1.676,1.958,10.436,1.403,14.564,1.354c1.229-0.015,4.909-0.121,4.744,0
		c1.044-0.754,0.808-3.91,1.014-5.081c0.091-0.502,0.998-1.614,1.017-2.032c0.028-0.628-0.777-1.798-0.678-1.694
		c-0.039-0.04-0.323-0.667-0.339-0.678c-1.235-0.877-5.584-0.339-7.789-0.339c-3.674,0-7.553-0.015-8.807,0.339
		C83.473,91.445,80.906,94.218,81.772,97.455z M116.656,91.358c-0.017,1.249-0.281,2.785,0,3.049
		c-0.322-0.301,0.857-0.303,1.018-0.339c1.146-0.258,1.29-0.052,2.031,0c1.323,0.094,5.289-1.088,7.114-0.339
		c0.088,0.037,0.234,0.601,0.339,0.678c0.325,0.245,0.788,0.001,1.015,0.339c0.195,0.288,0.611,1.401,0.339,2.031
		c-0.816,1.878-11.064,1.236-12.53,0.339c-0.907-0.554-0.609-1.139-1.018-1.694c-3.131-4.263-2.004,3.325,0,4.403
		c0.144,0.077,1.464,0.353,1.354,0.339c2.104,0.27,5.107-0.154,8.468,0c2.205,0.101,5.733,1.042,6.436,0.339
		c0.372-0.372-1.02-1.703-1.017-1.693c-1.009-1.654-1.5-3.994-1.015-5.758c0.449-1.64,0.844-1.639-0.678-2.033
		c-1.742-0.449-2.181-0.109-3.727,0c-2.696,0.191-7.845-0.623-8.129-0.339C116.591,90.748,116.659,91.253,116.656,91.358z
		 M146.803,90.68c-0.174,0.437,0.348,1.888,0,2.71c0.027-0.07-0.953,0.678-1.356,1.016c-1.163,0.979-3.527,2.098-3.387,3.725
		c-0.03-0.349,0.862,1.119,0.678,1.016c0.278,0.157,1.957-0.072,2.709-0.337c0.957-0.339,3.338-2.293,4.065-2.71
		c0.293-0.168,1.679-0.641,1.692-0.678c0.375-1.022-0.856-1.876-1.017-2.371c-0.325-1.014-0.041-2.529-0.336-2.711
		c-0.679-0.415-1.795,0.364-1.695,0.339C148.013,90.717,146.842,90.583,146.803,90.68z M118.352,94.746
		c-6.824,0.43,2.178,3.76,3.724,2.371c0.138-0.123-0.014-1.148,0-1.355c0.094-1.292,0.573-0.759,0-1.354
		c-0.253-0.264-1.107,0.312-1.014,0.339C120.405,94.566,119.168,94.693,118.352,94.746z M122.754,96.1
		c0.22,2.959,2.149-1.249,0.678-1.693c0.003,0.001,0.006,0.336,0,0.339C122.943,94.908,122.731,95.812,122.754,96.1z
		 M111.237,102.196c0.022,0,0.265-1.268,0.339-1.354c0.558-0.642-0.463-1.662-1.017-3.386c-0.43-1.349-0.103-2.951-1.015-2.033
		C108.583,96.388,110.782,102.214,111.237,102.196z M103.448,97.116c-0.16,0.107-0.287,1.13-0.339,1.354
		c-0.262,1.108-1.232,4.186-1.017,4.403c0.331,0.331,2.164-0.3,2.709-0.339c1.681-0.119,4.763,0.508,5.422-0.339
		c-0.092,0.116-0.67-0.988-0.679-1.016c-0.485-1.399-0.824-4.102-1.356-4.403c-0.708-0.402-1.7,0.321-2.031,0.339
		C105.945,97.127,103.96,96.771,103.448,97.116z M96.333,102.196c0.201,0.809,0.805,5.59,1.695,5.419
		c0.003,0,0.347-1.232,0.339-1.355c-0.036-0.52-0.54-0.78-0.678-1.354c-0.292-1.206-1.025-4.896-1.692-3.386
		C95.843,101.864,96.309,102.091,96.333,102.196z M126.142,102.874c0.223,0.233,1.475,2.769,1.353,2.709
		c0.177,0.085,3.23-0.211,4.405-0.339c0.951-0.104,2.618-0.529,2.709-0.677c0.014-0.023-1.687-3.268-1.355-3.048
		c-0.866-0.569-3.492,0.044-4.741,0c-0.938-0.035-2.527-0.771-3.049,0C125.507,101.456,126.312,103.053,126.142,102.874z
		 M140.027,102.535c0.014-0.065,0.659,0.638,0.679,0.678c0.54,1.058,0.824,3.175,1.014,3.725c0.092,0.26,1.784,4.769,1.695,4.743
		c0.54,0.166,2.385-2.04,2.371-4.066c-0.009-1.074-1.709-3.541-2.032-4.402c-0.849-2.261-0.014-2.042-2.034-1.694
		C141.718,101.52,140.221,101.58,140.027,102.535z M93.288,102.196C94.195,104.922,92.558,100.005,93.288,102.196L93.288,102.196z
		 M112.594,103.213c0.811,0.468,1.806,1.441,2.37,1.692c0.648,0.289,1.475,0.993,1.692,1.017c1.095,0.117,1.753-0.535,1.695-1.017
		c0.006,0.055-0.477-0.199-1.356-0.677c-1.124-0.613-1.821-1.125-2.709-1.694c-1.089-0.699-1.643-1.416-2.37-0.677
		C111.033,102.751,112.229,103.002,112.594,103.213z M134.608,102.535c1.21,2.998,2.486,5.377,3.727,8.129
		c0.397,0.881,0.974,2.546,1.354,2.709c1.062,0.462,3.256-0.162,3.388-0.337c0.304-0.401-0.562-1.108-1.017-2.372
		c-0.93-2.582-1.004-3.527-1.692-5.419c-0.811-2.226-0.417-2.57-2.371-2.709c-1.488-0.106-3.357-1.22-3.727-0.677
		C134.171,102.003,134.57,102.438,134.608,102.535z M93.963,103.89c-0.353-0.404-0.24-0.079,0,0.339
		C94.233,104.692,94.311,104.285,93.963,103.89z M101.755,104.568c-0.044,0.188,0.248,0.575,0.336,0.677
		c0.708,0.817,1.75-0.008,2.709,0c1.582,0.014,4.408,0.209,5.083-0.339c2.023-1.646-1.334-1.367-2.709-1.355
		c-1.017,0.01-2.723,0.125-3.388,0.339C102.753,104.222,102.067,103.212,101.755,104.568z M110.56,105.245
		c0.141,0.466,6.304,2.98,6.097,3.048c-0.188,0.062,0.77-1.145,0.679-1.354c0.044,0.099-3.391-1.792-3.727-2.033
		c-1.054-0.755-1.362-1.268-2.032-1.016C111.243,104.017,110.526,105.13,110.56,105.245z M98.368,109.31
		c0.127,0.002,0.7-1.402,0.678-1.355c0.419-0.812,1.651-2.282,1.692-2.371c0.479-1.05-0.033-0.876-0.339-0.678
		C100.267,104.994,96.907,109.288,98.368,109.31z M105.14,124.213c0.182,0.227,0.408-0.349,0.339-0.339
		c-0.614,0.084-0.634-2.078-0.678-2.033c0.579-0.628,1.133,0.14,2.712,0c2.63-0.231,2.566-0.551,3.046,1.694
		c0.218,1.014,0.295,1.805,0,2.032c0.068-0.052-3.421,0.04-3.724,0c-0.215-0.028-1.042-0.325-1.017-0.339
		c-0.554,0.297,0.865,0.985,1.017,1.016c1.006,0.203,1.814-0.33,2.032-0.338c1.541-0.055,3.043-0.285,4.065-0.339
		c0.441-0.023,0.918,0.337,1.015,0.339c0.655,0.016,9.961-0.477,9.823-0.339c0.493-0.494-1.637-3.935-1.695-4.063
		c-0.98-2.21-2.21-5.953-3.385-8.131c-0.27-0.496-0.983-1.021-1.355-1.691c-0.389-0.705-0.419-2.093-0.679-2.372
		c-0.077-0.083-1.215-0.408-1.692-0.677c-0.507-0.287-1.03-0.833-1.355-1.018c-3.696-2.11-2.955-1.429-6.773-1.355
		c-3.495,0.07-4.967-0.141-6.097,1.355c-0.794,1.052-1.114,1.443-1.692,2.372c-1.265,2.021-0.154,2.057,1.014,4.403
		c1.384,2.778,1.66,3.971,3.049,6.435c0.375,0.666,1.314,2.802,2.031,3.049C105.176,123.885,105.115,124.18,105.14,124.213z
		 M122.754,116.422c0.477,0.496,0.805,1.21,1.017,1.694c-0.005-0.01,1.331,4.591,2.031,4.742c0.028,0.005,0.37-0.798,0.34-1.018
		c-0.009-0.065-0.59-0.828-0.679-1.016c-1.003-2.162-2.241-4.338-3.049-6.097c-0.917-2.004-2.202-5.732-3.048-7.79
		c-0.904-2.204-0.844,0.434-0.676,1.016c0.089,0.314,0.157,0.677,0.337,1.018c0.98,1.856,1.901,3.033,2.709,4.741
		C122.219,114.729,122.412,116.065,122.754,116.422z M126.819,107.615c1.254,1.256,6.659-1.786,5.419,1.356
		c-0.411,1.039-0.499,3.382,0,5.08c0.309,1.06,0.986,1.502,1.015,2.031c0.021,0.383-0.637,1.384-0.676,1.356
		c0.284,0.208,2.525,0.175,2.71-0.339c-0.16,0.449-1.175-1.822-1.356-2.372c-0.314-0.955-0.573-2.027-0.678-3.047
		c-0.136-1.361,0.967-5.471,1.017-5.421c-0.49-0.489-6.133-0.026-6.436,0c-0.02,0.003,0.024,0.328,0,0.339
		C128.236,106.401,126.031,106.828,126.819,107.615z M118.013,110.664c1.273,2.283,1.943,3.541,3.049,6.097
		c0.852,1.973,2.042,5.56,3.048,7.113c0.091,0.142,0.469,1.1,0.676,1.016c0.402-0.161,0.248-1.338,0-2.37
		c-0.587-2.452-2.437-5.484-3.385-7.113c-0.251-0.427-0.077-0.814-0.339-1.354c-1.004-2.07-2.592-4.912-3.388-6.098
		c-0.183-0.269-0.074-0.266-0.339,0C116.579,108.715,117.657,110.025,118.013,110.664z M137.996,112.697
		c0.508-0.586-0.675-2.724-1.356-2.033C135.455,111.867,137.536,113.225,137.996,112.697z M136.64,117.439
		c0.213-0.053,0.224-0.796,0.34-1.018c0.675-1.278,0.779-0.633-0.679-1.016c-1.025-0.27-1.213-1.944-1.692-1.016
		c0.017-0.034,0.331,0.033,0.339,0C134.62,115.66,136.039,117.584,136.64,117.439z M132.238,117.439c0-0.006-0.83-0.459-0.678,0
		C131.638,117.672,132.282,117.93,132.238,117.439z M130.543,117.439c-0.094-0.094-0.835,0.178-0.675,0.338
		C129.962,117.87,130.703,117.599,130.543,117.439z M128.173,122.858c0.815-0.161,1.532-2.808,0.678-2.372
		C128.316,120.759,127.004,123.087,128.173,122.858z M128.173,124.551c0.504,1.127,2.748-2.204,2.709-2.71
		c-0.021-0.318-0.752-0.496-1.014-0.677c0.008,0.006,0.005,0.337,0,0.34C129.386,121.744,127.958,124.069,128.173,124.551z
		 M109.545,122.18c-0.284-0.282-1.356,0.137-1.356,0.34C108.188,123.211,110.188,122.824,109.545,122.18z M106.157,123.196
		c0.43,0.396,1.287,0.139,1.017-0.338c-0.154-0.271-1.21-0.633-1.356,0C105.882,122.578,106.221,123.255,106.157,123.196z
		 M129.868,124.551c-2.569,3.331,1.637,0.791,1.692-0.677c0.058-1.491-0.273-0.81-0.679-0.678
		C130.59,123.292,129.95,124.44,129.868,124.551z M110.224,124.213c-0.02-0.275-1.285-1.371-1.695-0.339
		C108.111,124.923,110.303,125.383,110.224,124.213z M107.85,124.213c-0.281-0.282-1.354,0.137-1.354,0.338
		C106.496,125.244,108.495,124.855,107.85,124.213z M129.868,126.923c0.667,0.667,4.054-2.372,1.692-1.694
		C131.125,125.354,129.729,126.786,129.868,126.923z M130.204,128.277c-0.071-0.147,0.626-0.664,0.678-0.678
		c2.486-0.592-0.815,1.338-0.678,1.354c1.411,0.169,2.105,0.647,2.373-0.338c0.505-1.878-1.342-1.628-1.017-1.354
		C131.48,127.194,129.598,127.065,130.204,128.277z M130.882,130.986c0.992-0.008,1.695,0.261,1.695-0.678
		c0-0.378-2.059-0.69-2.373-0.677c-0.436,0.02-0.441,0.215-0.676,0.339C128.123,130.713,129.608,130.998,130.882,130.986z
		 M129.189,131.326c-0.303-0.305-0.965,0.285-1.017,0.337C127.101,132.738,130.086,132.223,129.189,131.326z M117.335,136.066
		c-0.284,0.704-0.744,1.307-1.018,2.033c-0.229,0.614-1.588,5.007-1.015,4.742c0.307-0.142,1.001-3.236,1.692-5.081
		c0.659-1.756,1.382-3.944,2.371-4.403c0.342-0.157,0.979,0.057,1.355,0c1.117-0.167,0.888-0.697,1.354,0.339
		c0.03,0.064,0.606,0.275,0.679,0.339c0.523,0.453-0.697,3.67-1.354,5.758c-0.325,1.031-1.393,4.701-2.034,5.08
		c-0.555,0.328-2.15,0.378-3.049,0c-0.446-0.188-1.157-1.874-1.692-1.693c-0.221,0.075-0.226,0.768-0.339,1.017
		c-0.452,1.004-1.718,2.904-1.018,3.387c-0.107-0.074,0.648-0.662,0.679-0.677c0.871-0.445,3.354-0.692,4.065-0.678
		c1.069,0.021,6.679,1.114,7.45,4.063c-0.082-0.318-0.003,0.72,0,0.679c-0.298,3.011-2.53,7.669-3.388,10.838
		c-0.697,2.585,1.544,1.774,2.034,1.016c0.364-0.565,0.557-1.558,0.676-2.031c0.684-2.697,1.422-7.268,2.373-8.807
		c0.741-1.205,0.46-0.976-0.339-1.694c-1.028-0.92-0.513-1.456,0-2.709c0.56-1.366,1.127-1.735,0.675-2.71
		c-0.46-0.998,0-1.606,0.34-2.709c0.501-1.624,1.381-4.698,2.034-5.08c0.41-0.243,0.95,0.338,1.014,0.338
		c1.987-0.005,0.397-1.699-0.678-2.71c-0.821-0.771-2.338-1.816-3.046-2.031c-1.651-0.503-3.655-0.321-4.404-0.339
		c-0.821-0.021-3.471-0.115-4.063,0.339c-0.265,0.199-0.124,1.083-0.339,1.354C118.049,134.413,117.778,134.967,117.335,136.066z
		 M129.868,133.019c0.598,0.774,1.485,1.025,2.031,1.693c0.642,0.787,0.094,1.928,1.017,1.354c-0.058,0.036,0.706-2.069,0.337-3.048
		c-0.438-1.171-1.712-0.712-2.371-0.677c-0.265,0.014-0.576-0.669-1.014,0C129.601,132.744,129.686,132.787,129.868,133.019z
		 M118.69,135.051c-0.265,0.484-3.01,7.492-2.709,7.791c1.414,1.414,2.42-2.222,3.046-3.727c0.808-1.931,3.509-6.474,0.339-4.741
		C118.988,134.581,118.895,134.676,118.69,135.051z M131.221,140.131c-0.404,1.016-1.821,4.735-1.017,5.081
		c0.838,0.358,1.086-1.109,1.695-2.709c0.647-1.709,1.772-4.805,0-3.727C131.916,138.767,131.453,139.554,131.221,140.131z
		 M128.173,149.276c-0.05-0.114,1.449,0.622,1.355,0.677c0.513-0.302,1.315-4.545-0.678-2.709
		C128.716,147.368,128.016,148.908,128.173,149.276z M112.933,151.647c-0.614,0.523-0.389,1.771-0.678,2.709
		c-0.248,0.798-0.726,1.813-1.018,2.71c-0.195,0.601-2.062,4.953-1.692,5.42c0.808,1.019,5.777,0.269,7.111,0.338
		c0.585,0.03,3.521,0.896,4.405,0.339c-0.039,0.024,1.414-4.329,1.353-4.064c0.199-0.876-0.14-1.518,0-2.032
		c0.193-0.692,0.742-1.896,1.018-2.71c0.21-0.617,1.119-2.547,1.018-2.709c-0.458-0.712-5.73-0.702-6.437-0.677
		C116.26,151.031,113.952,150.776,112.933,151.647z M123.771,164.518c0.684,0.686,2.544-1.022,1.015-0.677
		C124.578,163.888,123.471,164.218,123.771,164.518z M125.802,164.518c0.354,0.145,2.528,0.243,4.402,0.339
		c3.013,0.153,6.612,0.286,6.775-1.016c-0.006,0.043-2.382-0.34-2.371-0.339c-0.424-0.027-0.471,0.359-1.017,0.339
		c-2.318-0.091-5.634-0.909-7.111,0C126.538,163.804,125.204,164.271,125.802,164.518z M136.979,164.856
		c-0.154-0.154,3.217,0.442,4.065,0c0.135-0.071,0.507-1.488,0.675-1.354c-0.755-0.598-3.53,0.396-3.385,0.339
		C137.892,164.014,136.624,164.501,136.979,164.856z M107.85,164.518c-0.361,0.18-1.284,0.335-1.692,0.679
		c-0.576,0.483-1.251,2.216-1.692,2.709c-0.259,0.287-0.75,0.386-1.017,0.677c-1.119,1.219-2.674,2.479-3.048,3.049
		c-0.306,0.464-0.438,1.866-0.678,2.37c-0.061,0.13-0.598,0.184-0.675,0.339c-2.445,4.885-3.983,11.714-2.373,18.29
		c0.215,0.87,1.088,3.585,1.356,3.727c0.628,0.334,4.71,0.022,4.741,0c0.268-0.198-0.163-1.636,0-2.372
		c0.088-0.39,0.926-1.484,1.017-1.693c0.502-1.149,0.722-2.283,2.032-3.047c1.009-0.589,4.383-0.578,4.741-1.018
		c0.289-0.352,0.08-2.741,0.339-4.403c0.375-2.382,0.62-3.426,1.018-4.741c0.038-0.124,0.605-0.508,0.678-0.678
		c0.673-1.625,1.251-3.895,2.031-5.08c0.182-0.276,0.791-0.416,1.018-0.678c0.292-0.342,0.396-1.068,0.675-1.354
		c0.491-0.503,1.095-0.874,1.695-1.355c0.645-0.515,1.786-1.05,2.031-1.354c0.121-0.148,0.43-1.612,1.018-2.709
		c0.129-0.244,1.364-1.475,1.353-1.355c0.062-0.651-3.323-0.263-4.74-0.339c-3.873-0.205-8.068-0.318-9.146,0
		C108.164,164.288,108.064,164.413,107.85,164.518z M85.157,165.196c-0.433,0.024-3.242-0.146-3.385,0
		c-0.094,0.092,0.104,0.61,0,0.677c-0.174,0.107-1.216-0.062-1.017,0.339c0.375,0.762,11.508,0.529,12.533,0
		c-2.941,1.519,1.46-0.461,1.014-1.016c-0.37-0.462-4.385-0.015-3.724,0C88.947,165.164,86.711,165.104,85.157,165.196z
		 M123.093,166.212c-0.168,0.57-0.546,0.817,0.339,1.016c0.003,0.001,0.389-1.545,0.678-1.694c0.136-0.068,3.523,0.039,4.063,0
		c2.729-0.194-1.105-0.337-1.692-0.337c-2.031,0,1.904,0-2.71,0c-0.372,0-0.188,0.273-0.339,0.337
		C123.043,165.699,123.222,165.771,123.093,166.212z M139.35,168.244c-0.289,0.484-1.441,0.387-1.692,0.677
		c-0.226,0.262-0.083,1.292-0.339,1.694c-0.295,0.463-0.957,0.645-1.356,1.016c-0.532,0.497-0.75,0.831-1.015,1.354
		c-0.192,0.378,0.529,1.042,0.34,1.694c-0.13,0.443-1.638,1.074-2.034,2.37c-0.37,1.213-0.014,2.032-0.337,2.372
		c-0.091,0.091-0.256,0.606-0.339,0.677c-0.16,0.132-1.323,0.18-1.356,0.339c-0.062,0.303,0.64,2.99,0.679,3.048
		c1.061,1.642,1.83,3.132,2.709,4.741c0.962,1.763,2.081,3.571,3.049,5.421c0.835,1.596,1.646,3.837,2.71,5.756
		c0.229,0.417,0.766,0.606,1.017,1.018c1.033,1.703,1.373,3.81,2.71,4.064c0.51,0.098,3.329-1.453,3.724-1.694
		c0.484-0.297,1.011-0.473,1.355-0.677c0.85-0.506,1.431-1.308,2.031-1.693c0.695-0.446,2.627-1.12,2.71-1.354
		c0.325-0.921-1.872-5.313-2.031-5.759c-0.602-1.674-1.216-6.437-3.049-5.419c-0.939,0.522-2.638,1.845-3.048,0.338
		c-0.372-1.363-0.687-1.672-1.018-2.37c-1.216-2.573-1.243-3.619-2.37-6.435c-0.609-1.526-1.508-2.479-1.354-3.049
		c0.239-0.904,1.221-0.952,2.031-1.354c3.385-1.686,2.37-0.877,1.018-4.403c-0.745-1.934-1.158-3.475-1.695-4.403
		c-0.648-1.122-0.516-0.858-1.354-0.679C139.061,165.962,140.127,166.942,139.35,168.244z M124.449,166.889
		c0.162-0.054,0.466-1.172,0-1.016c-0.039,0.012,0.03,0.309,0,0.339C124.446,166.212,123.854,167.087,124.449,166.889z
		 M137.318,166.551c0.386,0.831-1.483,1.394-0.679,1.693c1.354,0.503,3.179-0.942,2.371-2.032c-0.46-0.623-1.812-0.684-2.71,0
		C136.629,165.962,137.255,166.414,137.318,166.551z M125.802,167.566c1.059,0.353,4.425,0.256,5.08,0.339
		c1.668,0.21,4.611-0.425,4.065-1.354c-0.604-1.027-9.769-0.111-9.823,0C125.221,166.353,125.783,167.56,125.802,167.566z
		 M134.947,167.905c1.028,1.029,2.608-2.427,0.679-1.017C135.562,166.936,134.942,167.901,134.947,167.905z M81.094,167.228
		c2.172-0.123-1.161-0.482-0.678,0C80.476,167.289,80.997,167.232,81.094,167.228z M87.191,166.889
		c-0.414-0.412-2.208,0.478-1.695,0.339C82.8,167.955,87.456,167.154,87.191,166.889z M89.561,167.566
		c0.72,0.361,0.433,1.37,0.339,1.354c3.349,0.54-0.179-3.331-1.356-1.693C88.517,167.269,89.437,167.504,89.561,167.566z
		 M79.398,167.566c-0.306,0.086-0.391,0.775,0,0.678c0.113-0.028,1.169-1.224,0.339-1.017c-0.033,0.008,0.033,0.318,0,0.339
		C79.668,167.613,79.484,167.543,79.398,167.566z M82.111,168.582c0.819,0.278,6.006,0.233,5.419-0.677
		c-0.088-0.137-3.476-0.007-3.388,0c-0.843-0.06-0.689-1.006-1.695,0C82.513,167.841,81.739,168.457,82.111,168.582z
		 M97.351,168.582c-3.343,3.502-6.734,9.252-7.111,15.58c-0.069,1.145-0.132,2.398,0,3.388c0.107,0.807,1.229,2.452,1.354,3.726
		c0.055,0.551-0.532,0.883-0.339,1.354c0.033,0.076,0.601-0.055,0.678,0c0.436,0.309,0.185,1.366,0.339,1.694
		c0.078,0.166,2.55,2.192,3.388,1.354c0.042-0.042-0.074-1.1-0.339-2.031c-0.549-1.922-0.761-2.638-1.017-4.743
		c-0.706-5.829,1.411-13.067,4.065-15.919c0.248-0.266,0.107-0.711,0.339-1.016c0.116-0.153,0.537-0.19,0.675-0.339
		c0.256-0.274,0.113-0.688,0.339-1.016c0.005-0.009,1.56-1.783,1.695-2.033c0.849-1.578-1.662-1.389-3.388-0.677
		C97.59,168.086,97.635,168.284,97.351,168.582z M81.094,168.582c0.687-0.687-1.017-0.992-1.017-0.338
		C80.077,168.417,80.777,168.9,81.094,168.582z M89.222,167.905c-0.226-0.225-0.65,0.32-0.678,0.339
		C86.987,169.315,89.958,168.64,89.222,167.905z M121.062,169.937c-0.163,0.76-0.576,1.87,1.014,1.355
		c0.188-0.06,0.568-2.235,0.679-2.371c0.735-0.897,1.819-0.43,3.048-0.339c2.421,0.182,8.474-0.171,9.146,1.018
		c0.488,0.865-2.723,2.036-1.017,2.37c0.411,0.08,2.459-1.066,2.709-1.354c0.097-0.11,0.405-1.231,0.34-1.355
		c-0.196-0.367-0.868-0.202-1.354-0.339c-1.149-0.321-3.002-0.232-4.744-0.339c-2.638-0.161-6.767-1.159-8.468-0.338
		C122.031,168.429,121.263,168.99,121.062,169.937z M122.754,170.615c0.295,1.271,2.456,0.819,5.419,1.016
		c1.676,0.11,3.429,0.741,4.404,0.339c0.091-0.037,1.8-2.242,1.692-2.37c0.177,0.211-3.067-0.239-4.741-0.34
		c-2.453-0.148-4.848-0.543-5.758,0C122.988,169.726,122.478,169.426,122.754,170.615z M77.706,171.292
		c0.582,0.561,0.642-1.466,0.339-1.017c0.055-0.081,0.587-0.287,0.678-0.339c1.521-0.846,2.977-0.124,5.758,0
		c1.218,0.056,3.464-0.138,3.724,0c0.273,0.146,0.496,1.69,0.339,1.694c0.085-0.002,2.062-1.039,1.356-2.031
		c-0.119-0.166-1.456,0.028-1.695,0c-2.142-0.264-8.807-0.551-10.16,0C77.119,169.974,77.29,170.891,77.706,171.292z
		 M79.737,170.275c-0.264-0.266-0.981,0.207-1.014,0.34C78.552,171.296,80.143,170.681,79.737,170.275z M80.416,171.292
		c0.932,0.366,5.981,0.07,6.097,0c0.755-0.462-0.656-0.904-1.356-1.017c-0.742-0.116-4.421-0.329-5.08,0.34
		C80.223,170.466,80.294,171.245,80.416,171.292z M87.866,170.615c-0.166-0.168-0.675,0.204-0.675,0.339
		C87.191,171.681,88.222,170.969,87.866,170.615z M76.014,172.646c0.827-0.704,3.013,0.085,2.709-0.677
		c0.132,0.332-1.756-0.485-2.371-0.339c-0.744,0.176-1.32,1.094-1.356,1.693c-0.025,0.418,0.471,0.477,0.678,0.677
		C76.314,174.627,75.382,173.184,76.014,172.646z M86.174,174.68c2.624,0.966,2.229-4.999-0.339-2.371
		C87.375,170.733,86.628,174.846,86.174,174.68z M115.643,175.019c-1.459,2.456-2.834,5.748-3.388,8.467
		c-0.673,3.306-0.199,1.335,0,0.677c0.201-0.668,1.097-1.791,1.354-2.37c1.309-2.937,2.797-5.794,3.727-8.129
		c0.438-1.1,0.876-1.553,0.339-1.354C117.169,172.495,116.281,173.94,115.643,175.019z M119.366,175.695
		c0.573-0.043-0.063-0.598,0-1.355c0.206-2.402,3.131-1.119,4.743-1.016c1.483,0.096,3.143,0.268,4.741,0.339
		c0.537,0.023,1.257-0.367,1.692-0.339c1.896,0.123,1.626,0.82,1.356,2.031c-0.097,0.435-0.585,0.392,0.339,0.679
		c0.353,0.11,1.11,0.339,1.692-0.679c0.19-0.332,0.791-1.12,0.339-2.031c-0.413-0.834-1.717-0.302-2.031-0.339
		c-0.921-0.108-1.621-0.219-2.71-0.339c-2.406-0.265-8.586-1.09-9.823-0.338C119.371,172.512,117.149,175.86,119.366,175.695z
		 M86.174,172.985c-0.295-0.485-6.329-0.795-8.129-0.339c-1.265,0.322-1.604,0.418-1.356,1.354
		c-0.102-0.383,0.518-1.116,1.017-0.677c0.129,0.114-0.146,0.94,0,1.016c0.764,0.392,7.092,0.225,7.451,0
		C85.341,174.226,86.595,173.679,86.174,172.985z M120.044,174.34c-0.036,0.161-0.102,1.249,0,1.355
		c-0.071-0.075,7.975,0.387,8.129,0.339c0.477-0.15,0.372-0.711,0.678-1.016c-0.289,0.286,0.981-0.833,1.354-0.679
		c0.854,0.354-0.455,1.735-0.336,1.694c0.529-0.183,2.437-1.158,1.692-2.033c-0.588-0.69-5.995,0.683-9.146,0
		c-0.554-0.12-0.267-0.604-1.014-0.677c-0.422-0.041-0.477,0.197-0.679,0.339C120.201,174.028,120.218,173.562,120.044,174.34z
		 M142.06,176.712c-0.281,0.754,0.697,2.238,1.017,3.047c1.092,2.767,1.323,3.537,2.37,5.759c1.238,2.624,1.164,3.011,3.049,2.032
		c0.038-0.021,0.995-0.631,1.017-0.678c0.384-0.816-3.131-10.673-3.726-11.854c-0.237-0.471-0.119,0.038-0.34,0
		C145.027,174.943,142.048,176.746,142.06,176.712z M73.643,177.05c-1.014-0.03,0.441-1.207,0.675-1.354
		c0.4-0.248,3.106-0.442,2.371-0.677c-2.023-0.649-1.999-0.281-3.385,0.337C72.279,175.814,73.861,177.057,73.643,177.05z
		 M79.737,175.355c2.539-0.143-2.753-0.722-2.031,0C77.891,175.541,80.019,175.341,79.737,175.355z M85.157,176.373
		c0.058,0.225-1.015,1.64-0.675,1.693c1.19,0.188,1.483-0.873,1.692-1.354c0.049-0.117,0.295-1.105,0.339-1.017
		c-0.389-0.776-4.189-0.732-4.402-0.34C82.339,174.937,85.046,175.924,85.157,176.373z M76.014,177.05
		c-0.149,1.334-1.579-0.583-1.695-0.677c0.144,0.115-0.083,0.841,0,1.016c0.232,0.488,7.211,0.526,7.792,0.339
		c0.758-0.245,0.554-1.032,1.354-1.016c-0.053-0.001,0.083,1.317,0.339,1.016c1.646-1.947-0.642-1.496-2.709-1.693
		c-1.954-0.187-5.417,0.176-6.097,0.339C75.432,176.269,76.052,176.706,76.014,177.05z M116.995,179.082
		c0.541,0.541,0.979-2.001,1.018-2.032c0.576-0.492,2.125-0.091,4.741,0c3.415,0.12,7.535-0.158,7.789,0.339
		c0.565,1.102-1.428,2.067-0.675,2.37c1.601,0.648,2.119-0.45,2.37-1.016c1.216-2.737-2.393-1.868-4.744-2.031
		c-3.315-0.23-8.346-0.767-9.82,0C117.145,176.986,116.519,178.604,116.995,179.082z M118.352,179.082
		c0.898,0.899,0.912-1.781,1.015-1.693c-0.295-0.252-0.971,0.195-1.015,0.339C118.308,177.868,118.261,178.991,118.352,179.082z
		 M119.705,179.422c0.322,0.256,2.191-0.101,4.065,0c2.944,0.155,4.65,0.695,5.419,0c-0.882,0.798,1.376-1.333,1.015-1.694
		c-0.245-0.246-4.534,0.087-6.095,0c-1.478-0.083-3.607-0.819-4.404,0C120.066,177.357,119.882,179.561,119.705,179.422z
		 M70.931,178.743c-0.907,0.81-1.695,3.713,0,3.388c0.237-0.045-0.375-0.811-0.336-0.678c-0.816-2.984,2.244-2.371,4.402-2.371
		c3.407,0,7.688-0.486,8.128,1.355c0.295,1.223-1.339,1.646-0.339,2.031c-0.455-0.175,0.926-0.151,0.678,0
		c0.427-0.264,1.378-2.832,1.017-3.387c-0.728-1.114-11.571-1.298-13.211-0.339C71.198,178.786,70.994,178.688,70.931,178.743z
		 M71.948,180.099c-0.411,0.396-0.868,1.442-0.339,2.032c0.251,0.277,8.818,0.2,9.485,0c1.414-0.424,1.894-1.365,1.354-2.032
		c0.085,0.105-4.455-0.342-4.402-0.34c-2.001-0.147-3.71-0.229-4.402,0C73.257,179.888,72.585,179.486,71.948,180.099z
		 M115.643,182.469c0.575,0.579,0.604-0.814,0.675-1.016c0.444-1.243,0.331-1.163,0.678-1.354c0.888-0.488,2.498,0.288,3.388,0.339
		c1.83,0.104,6.246-0.207,2.371-0.339c-2.318-0.079-5.103-0.906-6.772,0C115.601,180.304,115.358,182.188,115.643,182.469z
		 M129.528,181.453c0.224,0.564-1.684,1.86-1.355,2.032c1.637,0.851,2.615-0.526,2.709-1.354c0.204-1.75-2.742-2.248-3.724-1.354
		C127.285,180.659,129.192,180.604,129.528,181.453z M117.335,182.131c-0.166-0.754-0.056-1.499,1.017-1.017
		c0.491,0.222-0.604,1.342,0,1.693c0.389,0.228,2.417-0.093,4.062,0c2.104,0.117,4.422,0.793,5.42,0.339
		c0.595-0.269,1.072-1.509,1.017-1.693c-0.003-0.006-1.626-0.067-1.692,0c-0.088,0.087,0.102,0.62,0,0.678
		c-1.062,0.592-0.317,0.508-1.356,0.338c-0.212-0.034,0.706-0.718,0.679-0.677c0.38-0.576,0.226-0.425-0.339-0.678
		c-0.447-0.199-9.198-0.271-9.485,0c-0.174,0.168,0.171,1.19,0.339,1.017C116.85,182.281,117.426,182.536,117.335,182.131z
		 M67.546,185.18c0.292,1.401,0.59,0.879,0.675-0.339c0.041-0.573,0.055-0.727,0.339-1.018c0.841-0.852,5-0.5,7.792-0.338
		c1.896,0.11,3.991,0.089,4.741,1.017c0.477,0.59,0.099,0.498-0.339,1.693c-0.353,0.965-1.516,1.851,0,1.354
		c0.369-0.121,1.177-1.194,1.356-1.693c0.116-0.332,0.662-2.044,0-2.71c-0.742-0.741-7.715-0.623-11.18,0
		C69.236,183.451,67.014,182.633,67.546,185.18z M114.964,186.872c-0.141,0.023,0.24-2.604,0.339-2.71
		c1.023-1.083,5.469-0.195,7.79,0c1.585,0.134,3.61-0.438,4.401,0.679c0.761,1.066-0.132,1.26-0.336,1.693
		c-0.744,1.567,1.097,0.978,1.692,0.338c0.43-0.463,0.838-1.759,0.339-2.37c-0.57-0.702-3.845-0.864-6.436-1.017
		c-2.533-0.148-6.627-0.779-7.79,0C113.771,184.285,113.991,187.034,114.964,186.872z M69.239,186.195
		c0.769,1.146,9.355,1.643,10.499,1.016c-0.107,0.06,0.4-0.778,0.339-0.677c0.386-0.635,0.758-1.484,0.678-1.693
		c-0.436-1.152-7.586-0.397-10.16-0.679c-0.645-0.07-0.46-0.427-1.017,0C68.977,184.625,68.651,185.316,69.239,186.195z
		 M115.303,184.841c-0.005,0.01,0.16,1.526,0.34,1.693c0.551,0.516,5.885,0.568,6.771,0.677c3.206,0.392,5.579-0.717,4.744-2.031
		c-0.339-0.535-1.866-0.177-3.727-0.339c-2.145-0.188-5.557-1.021-6.775-0.339C116.218,184.747,115.488,184.372,115.303,184.841z
		 M129.528,186.872c-0.567,1.022-0.055,2.677-0.339,3.727c-0.361,1.335-1.681,1.218-2.031,2.031
		c-0.179,0.412,0.579,1.036,0.336,2.033c-0.121,0.507-1.201,0.827-1.353,1.693c-0.1,0.573,0.513,1.542,0.339,2.031
		c-0.24,0.676-1.969,1.198-1.018,1.694c-0.102-0.054,0.646-0.656,0.679-0.679c0.912-0.608,2.93-1.271,3.387-1.692
		c0.656-0.606,1.021-1.835,1.354-2.371c0.378-0.608,0.73-1.231,1.018-1.692c0.551-0.888,1.397-1.905,1.354-2.711
		c-0.036-0.686-1.442-1.97-1.692-2.371c-0.665-1.056-0.946-2.873-1.692-2.37C129.942,186.143,129.474,186.97,129.528,186.872z
		 M113.608,188.227c2.461,0.438,11.918-0.824,12.533,1.354c0.236,0.841-1.486,2.069-1.018,2.372
		c1.924,1.238,4.531-2.394,3.388-3.727c-0.304-0.352-2.075,0.08-3.049,0c-1.21-0.098-2.326-0.259-3.049-0.338
		c-1.877-0.206-7.472-1.016-8.806-0.339C113.15,187.783,112.431,188.018,113.608,188.227z M65.176,189.921
		c0.005,1.979,1.726,2.762,1.014,0.678c-0.912-2.673,2.103-1.879,4.066-2.033c3.492-0.272,7.828-0.318,8.467,1.016
		c0.171,0.357-0.262,1.005-0.339,1.355c-0.259,1.17-0.438,1.087,0.339,1.017c0.427-0.04,0.185-0.347,0.339-0.678
		c0.287-0.622,1.643-2.212,1.353-2.71c-0.055-0.095-2.222-0.761-1.692-0.677c-1.852-0.29-4.206,0.077-6.097,0
		c-1.662-0.068-3.418-0.366-4.741,0C66.005,188.407,65.167,187.605,65.176,189.921z M111.916,190.599
		c0.642,2.325,1.196-2.576,0.339-1.694C111.91,189.258,111.75,190.005,111.916,190.599z M112.933,190.937
		c0.593,0.803,5.844,0.416,8.804,0.678c0.91,0.08,2.07,0.657,2.713,0.339c0.688-0.343,1.071-2.27,1.014-2.372
		c-0.316-0.561-11.375-1.496-12.194-0.677C113.269,188.906,112.52,190.378,112.933,190.937z M66.868,189.244
		c-0.496,0.132-0.047,0.423-0.339,0.677c-0.427,0.372,0.793-0.035,0.678,0c1.116-0.34,1.389,0.253,0.678,1.016
		c0.077-0.083-1.276,0.419-0.678,0.678c0.852,0.369,5.188-0.198,7.451,0c0.929,0.081,1.949,0.543,2.37,0.339
		c0.326-0.157,1.403-1.746,1.017-2.372c-0.333-0.54-1.301-0.124-2.709-0.337c-1.651-0.253-3.293-0.365-5.758,0
		C68.792,189.359,67.16,189.165,66.868,189.244z M86.174,191.614c-0.199,0.281-0.998,0.964-1.017,1.016
		c-0.268,0.741-0.546,2.734-0.336,3.727c0.369,1.776,2.222,2.845,1.354,1.016c-1.149-2.426,0.358-5.866,1.017-7.112
		c0.025-0.049,0.824-0.878,0.675-1.016c-0.325-0.307-1.665-0.026-2.032,0c-2.018,0.139-1.042,0.155,0,0.337
		c0.722,0.127,1.017,0.543,1.017,1.018C86.852,190.308,86.182,191.604,86.174,191.614z M104.465,192.63
		c-0.231,0.743-0.601,2.922-0.339,3.727c0.278,0.857,0.411-1.521,0.339-1.354c0.844-1.937,0.628-3.112,1.692-3.727
		c1.199-0.692,2.327,0.696,3.727-0.339c0.022-0.017,0.18-1.584,0.34-1.355c-0.328-0.468-1.213,0.01-1.356,0
		C106.042,189.405,104.9,191.22,104.465,192.63z M86.852,192.969c-0.171,0.8-0.085,2.16,0,3.049
		c0.822,8.473,5.706-4.618,3.049-6.437c-0.397-0.27-0.935,0.32-1.017,0.34C88.178,190.082,86.998,192.283,86.852,192.969z
		 M110.56,194.663c0.738,0.976,0.951-1.946,1.695-2.372c0.49-0.28,2.558,0.448,1.692-0.338c-0.18-0.164-1.098,0.039-1.354,0
		c-0.88-0.132-0.835-0.426-1.356,0C110.144,192.85,110.325,194.352,110.56,194.663z M134.27,192.63
		c-0.774,1.629-1.723,2.834-2.37,4.064c-0.273,0.519-0.582,1.604-0.679,1.693c-0.212,0.196-1.066-0.096-1.353,0
		c0.143-0.048-0.384,0.381-0.34,0.339c-0.513,0.491-0.945,0.682-1.355,1.017c-0.981,0.801-1.855,1.294-2.71,2.032
		c-0.262,0.228-1.679,1.655-1.692,1.694c-0.074,0.208,0.322,1.461,0.339,2.37c0.02,1.36-0.436,1.953,0,2.37
		c0.562,0.541,2.683,0.313,4.741,0.34c5.039,0.062,8.495,0,13.209,0c3.108,0,2.921-0.09,2.034-1.694
		c-0.777-1.4-1.235-1.863-3.049-2.031c-2.654-0.248-5.647,0.573-6.437-1.018c-0.369-0.742,0.857-2.474,1.354-3.725
		c0.201-0.503,0.337-1.259,0.678-2.033c1.007-2.275,1.152-1.602,0-3.725c-0.812-1.501-0.9-2.757-2.031-2.371
		C134.601,191.956,134.286,192.599,134.27,192.63z M76.353,196.356c0.138,0.138,2.169-3.196,1.692-3.727
		c-0.284-0.315-3.159,0.014-3.387,0c-2.795-0.171-8.793-0.132-9.821-0.339c0.019,0.004-1.745,0.75-1.695,0.678
		c-0.697,1.016-0.444,3.548,0.678,3.388c0.188-0.027-0.347-1.07-0.339-1.017c-0.647-3.668,6.643-2.295,10.163-2.032
		c1.089,0.082,2.602-0.112,3.046,0.34c0.65,0.655-0.243,1.861,0,2.031C76.57,195.595,76.132,196.138,76.353,196.356z
		 M120.383,192.291c-0.094-0.093-0.838,0.179-0.678,0.339C119.799,192.724,120.543,192.452,120.383,192.291z M121.4,192.63
		c2.169-0.122-1.16-0.482-0.679,0C120.783,192.692,121.301,192.636,121.4,192.63z M111.916,192.969
		c-0.075,0.076-0.072,1.608,0,1.694c-0.033-0.037,1.626,0.252,2.709,0.339c1.246,0.1,2.588-0.09,4.065,0
		c1.93,0.115,3.997,0.764,4.741,0.338c0.091-0.052-0.063-0.58,0-0.677c0.301-0.469,1.16-0.756,0.678-1.355
		c-0.096-0.118-1.177,0-1.355,0c-2.076,0-3.176-0.151-5.419-0.339c-0.543-0.045-2.908-0.889-3.727-0.339
		c-0.431,0.291,0.856,1.532-0.34,1.694c-1.433,0.192,0.039-1.761,0-1.355c0.033-0.36-0.702-0.405-0.675,0
		C112.594,192.989,111.948,192.935,111.916,192.969z M124.785,193.647c0.121,0.945-1.384,1.783-1.015,2.031
		c1.216,0.817,3.146-0.47,3.049-1.694c-0.097-1.185-1.282-1.991-2.71-1.016C124.325,192.821,124.769,193.512,124.785,193.647z
		 M64.498,196.018c0.499,0.522,9.217,0.82,10.499,0.339c1.229-0.462,1.767-1.644,1.356-2.372c-0.595-1.05-0.411,0.07-2.709,0
		c-2.293-0.07-7.867-0.73-8.806,0C64.365,194.35,63.781,195.268,64.498,196.018z M109.884,198.388
		c0.687,0.136,0.201-1.791,0.34-2.031c0.366-0.649,3.087-0.769,2.37-1.017c-1.45-0.502-2.946,0.236-3.049,0.339
		C108.338,196.887,109.109,198.236,109.884,198.388z M118.352,196.018c2.172-0.123-1.16-0.482-0.678,0
		C117.734,196.078,118.255,196.023,118.352,196.018z M110.898,196.356c-0.499,0.378-0.455,1.86-0.339,2.031
		c0.027,0.04,8.887,0.937,9.484,0.679c0.659-0.285-0.229-0.361,0-1.018c0.813-2.322,1.907,0.608,0.678,1.018
		c0.358-0.12,1.273-0.087,1.692-0.679c0.1-0.141,0.417-1.218,0.34-1.354c-0.372-0.661-2.067-0.193-4.063-0.339
		c-3.379-0.245-6.494-0.71-7.114-0.338C111.419,196.45,111.045,196.246,110.898,196.356z M123.432,197.372
		c-0.066,0.481-0.488,0.381-0.678,0.677c-1.861,2.929,4.766,0.816,3.048-1.354c-0.396-0.502-2.403-0.193-2.709,0
		C122.972,196.771,123.439,197.305,123.432,197.372z M60.432,198.727c0.358,0.357,0.915-0.631,1.017-0.678
		c2.073-0.96,6.734-0.38,7.45-0.338c0.348,0.02,0.397-0.329,0.678-0.339c0.783-0.026,0.824,0.24,2.031,0
		c2.434-0.482-0.959-0.305-1.692-0.339c-2.081-0.1-4.826-0.301-8.128,0c-0.019,0.002,0.02,0.334,0,0.339
		C60.92,197.629,59.61,197.905,60.432,198.727z M74.318,198.049c0.05,0.213-0.427,1.333-0.339,1.354
		c0.584,0.147,0.921,0.002,1.356-0.677c1.183-1.849-1.336-2.33-2.031-1.354C73.588,196.973,74.296,197.944,74.318,198.049z
		 M62.802,199.066c0.358,0.452,6.271,0.682,7.454,0.337c0.532-0.154,1.527-1.18,1.353-1.354c-0.722-0.722-5.281,0.338-5.419,0.339
		c-1.105,0.012-0.818-0.846-2.371,0C63.629,198.491,62.265,198.384,62.802,199.066z M72.287,199.403
		c1.502,0.636,1.626-2.905,0-1.016C72.585,198.042,72.654,199.56,72.287,199.403z M62.127,198.727
		c-0.168-0.168-0.678,0.204-0.678,0.34C61.449,199.792,62.48,199.081,62.127,198.727z M108.188,201.437
		c0.692-0.771-0.424-1.45,0.679-1.693c2.282-0.506,13.636,0.69,13.887,1.016c0.835,1.089-1.927,2.032,0,2.032
		c0.438,0,2.621-0.618,1.695-2.37c-0.494-0.928-4.322-0.537-5.759-0.678c-2.712-0.264-9.043-1-10.502-0.34
		C107.635,199.656,107.497,202.21,108.188,201.437z M80.077,200.421c1.872,0.656,0.069,0.889,0,2.71
		c-0.039,1.053,0.212,2.193,1.017,2.031c0.907-0.184-0.028-1.772,0-2.031c0.074-0.733,1.557-3.514,1.354-3.728
		c-0.433-0.454-1.613,0.301-2.032,0.34C78.762,199.896,78.96,200.028,80.077,200.421z M82.111,204.485
		c0.408,0.569,1.789,0.745,2.371,0.339c0.413-0.292,0.791-3.782,0.339-4.742c-0.251-0.532-0.86-0.016-1.017,0
		C82.833,200.176,81.469,203.596,82.111,204.485z M151.204,201.775c-0.953,0.604-3.018,1.015-2.37,2.031
		c0.918,1.442,1.502,2.945,2.031,4.064c0.667,1.41,2.279,0.062,2.71-0.338c0.711-0.661,1.29-0.617,1.695-1.693
		c0.744-1.987-0.075-4.065-0.679-5.419c-0.188-0.418-0.457-0.376-0.678-0.678c0.02,0.024-0.022,0.335,0,0.339
		C152.831,199.895,151.535,201.566,151.204,201.775z M72.965,201.775c0.005-0.045-1.196,2.221-1.017,2.371
		c1.67,1.395,2.979-5.793,0.678-3.726C72.938,200.141,73.006,201.486,72.965,201.775z M110.56,202.114c0.177,0.127,6.392,0,2.373,0
		c2.031,0,6.276,0.702,6.772,0.338c0.063-0.045,0.066-1.612,0-1.693c-0.116-0.144-2.312,0.071-3.388,0
		c-0.647-0.042-6.836-0.884-7.111-0.677c-1.066,0.799,0.226,1.843,0.339,2.032c-0.75-1.251,1.045-1.686,1.015-1.693
		C111.692,200.736,110.177,201.834,110.56,202.114z M59.417,203.131c0.232-0.136-0.344-1.004-0.339-1.017
		c0.229-0.748,1.083-1.64,1.014-1.693c-1.849-1.487-1.058,3.003-1.014,2.031C59.07,202.6,59.184,203.266,59.417,203.131z
		 M61.449,204.146c0.78,0.252,8.95,0.283,9.482,0c0.455-0.24,1.48-2.887,1.356-3.049c-0.414-0.546-5.124-0.593-8.128-0.339
		c-1.706,0.146-4.217,0.312-4.405,1.355c-0.072,0.404,0.913,0.91,1.017,1.017C60.964,203.326,61.195,204.064,61.449,204.146z
		 M120.722,201.775c0.006,0.105-0.551,0.901-0.339,1.016c1.343,0.723,2.688-2.306,0-2.032c-0.019,0.003,0.02,0.318,0,0.339
		C120.259,201.238,120.714,201.664,120.722,201.775z M102.431,205.501c0.091-0.037-0.331-0.647-0.339-0.677
		c-0.075-0.322-0.13-1.396,0-1.693c0.43-0.981,3.975-0.827,2.709-1.694c-0.587-0.403-2.729,0.317-2.032,0
		c-0.545,0.248-0.355,1.105-0.678,1.694C101.488,204.235,101.714,205.797,102.431,205.501z M106.157,202.791
		c-0.135,0.181-0.011,1.116,0,1.355c0.047,1.057-0.157,1.104,0.678,1.354c0.548,0.165,0.215-1.012,0.339-1.354
		c0.62-1.729,2.337-0.531,4.742-0.34c0.325,0.026,0.262-0.322,0.339-0.337c0.303-0.061,0.312,0.336,0.339,0.337
		c2.801,0.196,9.862-1.025,8.468,1.694c-0.714,1.389,1.529,1.769,2.37,0.678c0.102-0.134,0.242-2.045-0.678-2.709
		c-0.524-0.381-2.125-0.236-3.727-0.339c-3.046-0.197-10.497-1.124-11.853-0.34C107.006,202.888,106.268,202.646,106.157,202.791z
		 M60.093,203.807c0-0.005-0.83-0.457-0.675,0C59.495,204.041,60.14,204.299,60.093,203.807z M145.786,204.485
		c-0.392,0.199-1.602,0.839-1.692,1.354c0.008-0.061,0.664,0.322,0.675,0.339c0.56,0.746,0.626,2.181,1.018,2.371
		c0.805,0.391,4.305,0.098,4.401,0c0.303-0.302-1.913-4.434-2.031-4.743c-0.188-0.486-0.16,0.037-0.339,0
		C147.42,203.726,145.86,204.446,145.786,204.485z M108.528,205.501c0.375-0.233,0.198-2.804-0.679-1.354
		C107.45,204.811,107.682,206.03,108.528,205.501z M109.206,205.501c0.832,0.614,9.138,0.551,9.484,0.339
		c-0.38,0.232-0.345-2.017,1.015-1.016c0.024,0.018-1.056,2.44,0,1.354c0.11-0.114,0.565,0.112,0.678,0
		c0.11-0.11-0.077-0.537,0-0.678c0.626-1.16,0.059-0.827-1.017-1.016c-2.147-0.379-9.221-0.606-9.821,0
		C109.474,204.556,109.38,205.629,109.206,205.501z M63.819,204.824c-4.774,0-7.323-0.483-5.419,2.031
		c0.73,0.965,1.373,0.835,2.032,0.678c-0.408,0.097-1.009-0.771-0.678-1.354c0.317-0.556,3.421-0.944,5.758-1.017
		c3.922-0.12,6.136,0.375,6.775,1.354c0.482,0.738-0.474,1.927,1.017,1.354c1.213-0.464-1.557-3.148-1.356-3.047
		c-0.876-0.437-2.982-0.053-2.371,0C67.794,204.673,65.812,204.824,63.819,204.824z M61.11,207.533
		c1.183,1.154,0.695-0.694,1.354-0.678c0.469,0.013,1.235,0.908,1.695,1.016c1.414,0.332,5.104,0.298,5.758,0
		c0.29-0.131-0.245-1.037,0.339-1.016c-0.287-0.011,1.243,1.87,1.353,1.016c0.411-3.125-5.83-1.979-7.79-1.692
		C61.587,206.504,59.509,205.971,61.11,207.533z M106.835,208.55c0.102,0-0.397-1.233,0.678-1.694
		c0.7-0.301,1.971,0.317,3.385,0.339c1.384,0.022,1.904-0.164,2.71-0.339c2.8-0.606-1.249-0.251-2.71-0.339
		c-2.067-0.124-4.443-0.372-5.08,0C104.914,207.047,106.874,208.55,106.835,208.55z M119.366,207.194
		c3.724-0.266-4.389-0.663-3.724,0C115.921,207.473,119.253,207.203,119.366,207.194z M123.432,208.55
		c0.43-0.431-1.756-2.21-2.031-1.017C121.227,208.285,122.892,209.088,123.432,208.55z M108.188,208.55
		c0.177-0.032,0.29-0.707,0.679-0.679c0.73,0.057,0.052,0.587,1.692,0.679c1.841,0.101,5.224,0.151,6.775,0
		c1.428-0.141,2.367-0.679,0.678-0.679c-2.453,0-8.773-1.049-10.499,0C107.367,207.959,108.046,208.575,108.188,208.55z
		 M120.722,207.871c-0.322-0.322,0.036-0.12-0.339,0C118.548,208.463,122.087,209.238,120.722,207.871z"/>
	<path fill-rule="evenodd" clip-rule="evenodd" d="M117.674,151.986c0.234,0.021,1.75-0.542,2.031,0
		c0.19,0.362-0.838,1.751-1.015,2.37c-0.094,0.319-0.112,2.583-0.339,3.049c-0.292,0.597-2.483,1.31-2.034,2.709
		c0.149,0.456,0.433-0.07,1.018,0c-0.066-0.008,1.482,0.63,1.355,0.679c0.626-0.234-0.011-0.87,0.337-1.355
		c0.065-0.091,1.367-0.386,1.355-0.339c0.331-1.271-1.24,0.309-1.692-0.339c-1.014-1.444,0.728-1.561,1.015-2.37
		c0.179-0.501-0.13-1.177,0-1.694c0.05-0.198,0.623-0.529,0.678-0.677c0.375-0.992-0.36-2.444,1.354-2.371
		c0.523,0.021,1.145,0.034,1.356,0.339c0.579,0.832-1.006,2.202-1.356,4.064c-0.091,0.494,0.24,2.173,0,3.048
		c-0.027,0.106-0.953-0.104-1.015,0c-0.049,0.086,0.34,0.488,0.34,0.679c0,0.242-0.298,0.374-0.34,0.676
		c-0.132,0.917,0.127,1.429-0.339,1.694c-0.118,0.067-1.618,0.084-1.692,0c-0.044-0.047,0.025-1.019,0-1.016
		c-0.182,0.013-0.912,1.727-2.034,0.677c-0.019-0.019-0.419-1.048-0.339-1.016c-0.1-0.039-0.747,0.866-0.675,1.016
		c-0.356-0.744-0.298-1.778,0.339-3.049c0.068-0.141-0.107-0.569,0-0.677c0.05-0.052,0.664,0.056,0.675,0
		c0.149-0.747-0.824-1.293-0.675-1.354c-0.543,0.226-0.133,0.788-0.339,1.354c-0.069,0.182-0.635,0.54-0.679,0.677
		c-0.394,1.188-0.005,2.59-1.017,3.049c-1.359,0.617-2.831-0.051-3.049-0.339c-0.104-0.14,2.158-6.365,0.678-1.355
		c0.141-0.474,0.298-1.194,0.34-1.354c0.124-0.47,0.309-1.221,0.339-1.354c0.231-1.048-0.044-1.665,0.339-3.049
		c0.077-0.284,0.811-2.251,1.015-2.37c0.622-0.364,2.924,0.219,3.727,0.339C117.648,152.372,117.654,151.984,117.674,151.986z
		 M117.674,154.695c-0.243,1.224-0.188,2.921,0.339,1.016c0.295-1.07,1.042-3.758,0.339-3.047
		C117.927,153.09,117.872,153.699,117.674,154.695z M120.722,155.711c0.951,0.321,3.019-4.903,0.679-3.047
		C121.015,152.969,120.141,155.517,120.722,155.711z M114.964,153.68c0.02-0.063-1.094-0.511-0.339-0.678
		c0.433-0.096,1.844,0.443,1.692,0.339c-0.11-0.077,0.1-0.579,0-0.677c-0.537-0.54-2.023,0.334-2.031,0.338
		C112.464,154.191,114.683,154.613,114.964,153.68z M116.317,156.39c0.314-0.126,0.593-2.138,0.678-2.71c0.136-0.904,0.48-0.688,0,0
		C116.676,154.138,115.472,156.729,116.317,156.39z M112.933,156.39c0.086,0.101,1.196,0.024,1.354,0
		c1.612-0.251-0.599-0.231-0.678-0.679c-0.063-0.356,1.171-0.479,1.017-0.677c-0.242-0.313-1.497-0.429-1.356,0
		C113.421,155.488,112.66,156.072,112.933,156.39z M113.608,156.729c-0.094-0.094-0.836,0.178-0.676,0.338
		C113.026,157.16,113.768,156.889,113.608,156.729z M119.705,158.421c-0.24-0.175,1.199,0.102,1.356,0
		c0.005-0.004,0.248-1.162,0.339-1.016c-0.472-0.777-1.624-0.557-2.034,0C119.109,157.757,119.595,158.34,119.705,158.421z
		 M114.286,159.099c-0.275-0.276-2.12-0.088-1.692,0.339C113.264,160.109,114.303,159.115,114.286,159.099z M119.366,161.47
		c0.375,0.467,0.634-0.583,0.678-0.677c0.328-0.686,0.538-1.132,0-0.679C119.835,160.294,118.955,160.957,119.366,161.47z
		 M113.608,160.793c-0.276-0.277-2.12-0.089-1.692,0.339C112.588,161.803,113.624,160.81,113.608,160.793z M118.013,160.793
		c-0.268-0.267-0.984,0.205-1.018,0.339C116.824,161.812,118.418,161.198,118.013,160.793z"/>
</g>
</svg>
